<?xml version="1.0" encoding="utf-8"?>
<svg xmlns="http://www.w3.org/2000/svg" xmlns:xlink="http://www.w3.org/1999/xlink" width="250" height="250" viewBox="0 0 1000 1000">
<defs>
  <clipPath id="clip880">
    <rect x="0" y="0" width="1000" height="1000"/>
  </clipPath>
</defs>
<path clip-path="url(#clip880)" d="M0 1000 L1000 1000 L1000 0 L0 0  Z" fill="#ffffff" fill-rule="evenodd" fill-opacity="1"/>
<defs>
  <clipPath id="clip881">
    <rect x="200" y="100" width="701" height="701"/>
  </clipPath>
</defs>
<path clip-path="url(#clip880)" d="M172.274 875.168 L952.756 875.168 L952.756 47.2441 L172.274 47.2441  Z" fill="#ffffff" fill-rule="evenodd" fill-opacity="1"/>
<defs>
  <clipPath id="clip882">
    <rect x="172" y="47" width="781" height="829"/>
  </clipPath>
</defs>
<circle clip-path="url(#clip882)" cx="640.052" cy="193.778" r="21.6" fill="#ff0000" fill-rule="evenodd" fill-opacity="1" stroke="#000000" stroke-opacity="1" stroke-width="2"/>
<circle clip-path="url(#clip882)" cx="771.301" cy="756.893" r="21.6" fill="#ff0000" fill-rule="evenodd" fill-opacity="1" stroke="#000000" stroke-opacity="1" stroke-width="2"/>
<circle clip-path="url(#clip882)" cx="724.691" cy="214.176" r="21.6" fill="#ff0000" fill-rule="evenodd" fill-opacity="1" stroke="#000000" stroke-opacity="1" stroke-width="2"/>
<circle clip-path="url(#clip882)" cx="313.441" cy="484.591" r="21.6" fill="#ff0000" fill-rule="evenodd" fill-opacity="1" stroke="#000000" stroke-opacity="1" stroke-width="2"/>
<circle clip-path="url(#clip882)" cx="841.258" cy="663.218" r="21.6" fill="#0000ff" fill-rule="evenodd" fill-opacity="1" stroke="#000000" stroke-opacity="1" stroke-width="2"/>
<circle clip-path="url(#clip882)" cx="484.871" cy="708.472" r="21.6" fill="#0000ff" fill-rule="evenodd" fill-opacity="1" stroke="#000000" stroke-opacity="1" stroke-width="2"/>
<circle clip-path="url(#clip882)" cx="289.784" cy="275.742" r="21.6" fill="#0000ff" fill-rule="evenodd" fill-opacity="1" stroke="#000000" stroke-opacity="1" stroke-width="2"/>
<circle clip-path="url(#clip882)" cx="626.372" cy="490.496" r="21.6" fill="#0000ff" fill-rule="evenodd" fill-opacity="1" stroke="#000000" stroke-opacity="1" stroke-width="2"/>
<circle clip-path="url(#clip882)" cx="283.771" cy="165.519" r="21.6" fill="#0000ff" fill-rule="evenodd" fill-opacity="1" stroke="#000000" stroke-opacity="1" stroke-width="2"/>
<polyline clip-path="url(#clip882)" style="stroke:#808080; stroke-linecap:round; stroke-linejoin:round; stroke-width:4; stroke-opacity:0.2; fill:none" points="640.052,193.778 724.691,214.176 "/>
<circle clip-path="url(#clip882)" cx="640.052" cy="193.778" r="14.4" fill="#808080" fill-rule="evenodd" fill-opacity="0.2" stroke="#000000" stroke-opacity="0.2" stroke-width="2"/>
<circle clip-path="url(#clip882)" cx="724.691" cy="214.176" r="14.4" fill="#808080" fill-rule="evenodd" fill-opacity="0.2" stroke="#000000" stroke-opacity="0.2" stroke-width="2"/>
<path clip-path="url(#clip882)" d="M283.771 165.519 L289.784 275.742 L313.441 484.591 L484.871 708.472 L771.301 756.893 L841.258 663.218 L283.771 165.519 L283.771 165.519  Z" fill="#808080" fill-rule="evenodd" fill-opacity="0.2"/>
<polyline clip-path="url(#clip882)" style="stroke:#000000; stroke-linecap:round; stroke-linejoin:round; stroke-width:4; stroke-opacity:0.2; fill:none" points="283.771,165.519 289.784,275.742 313.441,484.591 484.871,708.472 771.301,756.893 841.258,663.218 283.771,165.519 "/>
</svg>
