<?xml version="1.0" encoding="utf-8"?>
<svg xmlns="http://www.w3.org/2000/svg" xmlns:xlink="http://www.w3.org/1999/xlink" width="500" height="500" viewBox="0 0 2000 2000">
<defs>
  <clipPath id="clip560">
    <rect x="0" y="0" width="2000" height="2000"/>
  </clipPath>
</defs>
<path clip-path="url(#clip560)" d="M0 2000 L2000 2000 L2000 0 L0 0  Z" fill="#ffffff" fill-rule="evenodd" fill-opacity="1"/>
<defs>
  <clipPath id="clip561">
    <rect x="400" y="200" width="1401" height="1401"/>
  </clipPath>
</defs>
<path clip-path="url(#clip560)" d="M182.274 1865.17 L1952.76 1865.17 L1952.76 47.2441 L182.274 47.2441  Z" fill="#ffffff" fill-rule="evenodd" fill-opacity="1"/>
<defs>
  <clipPath id="clip562">
    <rect x="182" y="47" width="1771" height="1819"/>
  </clipPath>
</defs>
<circle clip-path="url(#clip562)" cx="1488.19" cy="1250.79" r="21.6" fill="#ff0000" fill-rule="evenodd" fill-opacity="1" stroke="#000000" stroke-opacity="1" stroke-width="4"/>
<circle clip-path="url(#clip562)" cx="794.157" cy="729.497" r="21.6" fill="#ff0000" fill-rule="evenodd" fill-opacity="1" stroke="#000000" stroke-opacity="1" stroke-width="4"/>
<circle clip-path="url(#clip562)" cx="1556.1" cy="306.947" r="21.6" fill="#ff0000" fill-rule="evenodd" fill-opacity="1" stroke="#000000" stroke-opacity="1" stroke-width="4"/>
<circle clip-path="url(#clip562)" cx="955.116" cy="1605.46" r="21.6" fill="#ff0000" fill-rule="evenodd" fill-opacity="1" stroke="#000000" stroke-opacity="1" stroke-width="4"/>
<circle clip-path="url(#clip562)" cx="1425.17" cy="331.039" r="21.6" fill="#ff0000" fill-rule="evenodd" fill-opacity="1" stroke="#000000" stroke-opacity="1" stroke-width="4"/>
<circle clip-path="url(#clip562)" cx="943.724" cy="901.901" r="21.6" fill="#ff0000" fill-rule="evenodd" fill-opacity="1" stroke="#000000" stroke-opacity="1" stroke-width="4"/>
<circle clip-path="url(#clip562)" cx="617.659" cy="1216.22" r="21.6" fill="#ff0000" fill-rule="evenodd" fill-opacity="1" stroke="#000000" stroke-opacity="1" stroke-width="4"/>
<circle clip-path="url(#clip562)" cx="435.2" cy="1180.29" r="21.6" fill="#ff0000" fill-rule="evenodd" fill-opacity="1" stroke="#000000" stroke-opacity="1" stroke-width="4"/>
<circle clip-path="url(#clip562)" cx="1077.2" cy="650.492" r="21.6" fill="#ff0000" fill-rule="evenodd" fill-opacity="1" stroke="#000000" stroke-opacity="1" stroke-width="4"/>
<circle clip-path="url(#clip562)" cx="1649.87" cy="411.56" r="21.6" fill="#ff0000" fill-rule="evenodd" fill-opacity="1" stroke="#000000" stroke-opacity="1" stroke-width="4"/>
<circle clip-path="url(#clip562)" cx="1340.39" cy="618.161" r="21.6" fill="#0000ff" fill-rule="evenodd" fill-opacity="1" stroke="#000000" stroke-opacity="1" stroke-width="4"/>
<circle clip-path="url(#clip562)" cx="1572.28" cy="756.552" r="21.6" fill="#0000ff" fill-rule="evenodd" fill-opacity="1" stroke="#000000" stroke-opacity="1" stroke-width="4"/>
<circle clip-path="url(#clip562)" cx="1322" cy="609.113" r="21.6" fill="#0000ff" fill-rule="evenodd" fill-opacity="1" stroke="#000000" stroke-opacity="1" stroke-width="4"/>
<circle clip-path="url(#clip562)" cx="1185.77" cy="632.218" r="21.6" fill="#0000ff" fill-rule="evenodd" fill-opacity="1" stroke="#000000" stroke-opacity="1" stroke-width="4"/>
<circle clip-path="url(#clip562)" cx="1275.17" cy="1054.63" r="21.6" fill="#0000ff" fill-rule="evenodd" fill-opacity="1" stroke="#000000" stroke-opacity="1" stroke-width="4"/>
<circle clip-path="url(#clip562)" cx="1699.83" cy="1019.6" r="21.6" fill="#0000ff" fill-rule="evenodd" fill-opacity="1" stroke="#000000" stroke-opacity="1" stroke-width="4"/>
<circle clip-path="url(#clip562)" cx="844.979" cy="395.316" r="21.6" fill="#0000ff" fill-rule="evenodd" fill-opacity="1" stroke="#000000" stroke-opacity="1" stroke-width="4"/>
<circle clip-path="url(#clip562)" cx="1002.38" cy="1431.5" r="21.6" fill="#0000ff" fill-rule="evenodd" fill-opacity="1" stroke="#000000" stroke-opacity="1" stroke-width="4"/>
<circle clip-path="url(#clip562)" cx="578.909" cy="705.06" r="21.6" fill="#0000ff" fill-rule="evenodd" fill-opacity="1" stroke="#000000" stroke-opacity="1" stroke-width="4"/>
<circle clip-path="url(#clip562)" cx="699.156" cy="1601.35" r="21.6" fill="#0000ff" fill-rule="evenodd" fill-opacity="1" stroke="#000000" stroke-opacity="1" stroke-width="4"/>
<polyline clip-path="url(#clip562)" style="stroke:#808080; stroke-linecap:round; stroke-linejoin:round; stroke-width:4; stroke-opacity:0.3; fill:none" points="372.763,3683.09 372.763,-1770.68 "/>
<polyline clip-path="url(#clip562)" style="stroke:#808080; stroke-linecap:round; stroke-linejoin:round; stroke-width:4; stroke-opacity:0.3; fill:none" points="507.054,3683.09 507.054,-1770.68 "/>
<polyline clip-path="url(#clip562)" style="stroke:#808080; stroke-linecap:round; stroke-linejoin:round; stroke-width:4; stroke-opacity:0.3; fill:none" points="598.284,3683.09 598.284,-1770.68 "/>
<polyline clip-path="url(#clip562)" style="stroke:#808080; stroke-linecap:round; stroke-linejoin:round; stroke-width:4; stroke-opacity:0.3; fill:none" points="658.408,3683.09 658.408,-1770.68 "/>
<polyline clip-path="url(#clip562)" style="stroke:#808080; stroke-linecap:round; stroke-linejoin:round; stroke-width:4; stroke-opacity:0.3; fill:none" points="746.657,3683.09 746.657,-1770.68 "/>
<polyline clip-path="url(#clip562)" style="stroke:#808080; stroke-linecap:round; stroke-linejoin:round; stroke-width:4; stroke-opacity:0.3; fill:none" points="819.568,3683.09 819.568,-1770.68 "/>
<polyline clip-path="url(#clip562)" style="stroke:#808080; stroke-linecap:round; stroke-linejoin:round; stroke-width:4; stroke-opacity:0.3; fill:none" points="894.352,3683.09 894.352,-1770.68 "/>
<polyline clip-path="url(#clip562)" style="stroke:#808080; stroke-linecap:round; stroke-linejoin:round; stroke-width:4; stroke-opacity:0.3; fill:none" points="949.42,3683.09 949.42,-1770.68 "/>
<polyline clip-path="url(#clip562)" style="stroke:#808080; stroke-linecap:round; stroke-linejoin:round; stroke-width:4; stroke-opacity:0.3; fill:none" points="978.748,3683.09 978.748,-1770.68 "/>
<polyline clip-path="url(#clip562)" style="stroke:#808080; stroke-linecap:round; stroke-linejoin:round; stroke-width:4; stroke-opacity:0.3; fill:none" points="1039.79,3683.09 1039.79,-1770.68 "/>
<polyline clip-path="url(#clip562)" style="stroke:#808080; stroke-linecap:round; stroke-linejoin:round; stroke-width:4; stroke-opacity:0.3; fill:none" points="1131.48,3683.09 1131.48,-1770.68 "/>
<polyline clip-path="url(#clip562)" style="stroke:#808080; stroke-linecap:round; stroke-linejoin:round; stroke-width:4; stroke-opacity:0.3; fill:none" points="1230.47,3683.09 1230.47,-1770.68 "/>
<polyline clip-path="url(#clip562)" style="stroke:#808080; stroke-linecap:round; stroke-linejoin:round; stroke-width:4; stroke-opacity:0.3; fill:none" points="1298.58,3683.09 1298.58,-1770.68 "/>
<polyline clip-path="url(#clip562)" style="stroke:#808080; stroke-linecap:round; stroke-linejoin:round; stroke-width:4; stroke-opacity:0.3; fill:none" points="1331.2,3683.09 1331.2,-1770.68 "/>
<polyline clip-path="url(#clip562)" style="stroke:#808080; stroke-linecap:round; stroke-linejoin:round; stroke-width:4; stroke-opacity:0.3; fill:none" points="1382.78,3683.09 1382.78,-1770.68 "/>
<polyline clip-path="url(#clip562)" style="stroke:#808080; stroke-linecap:round; stroke-linejoin:round; stroke-width:4; stroke-opacity:0.3; fill:none" points="1456.68,3683.09 1456.68,-1770.68 "/>
<polyline clip-path="url(#clip562)" style="stroke:#808080; stroke-linecap:round; stroke-linejoin:round; stroke-width:4; stroke-opacity:0.3; fill:none" points="1522.14,3683.09 1522.14,-1770.68 "/>
<polyline clip-path="url(#clip562)" style="stroke:#808080; stroke-linecap:round; stroke-linejoin:round; stroke-width:4; stroke-opacity:0.3; fill:none" points="1564.19,3683.09 1564.19,-1770.68 "/>
<polyline clip-path="url(#clip562)" style="stroke:#808080; stroke-linecap:round; stroke-linejoin:round; stroke-width:4; stroke-opacity:0.3; fill:none" points="1611.08,3683.09 1611.08,-1770.68 "/>
<polyline clip-path="url(#clip562)" style="stroke:#808080; stroke-linecap:round; stroke-linejoin:round; stroke-width:4; stroke-opacity:0.3; fill:none" points="1674.85,3683.09 1674.85,-1770.68 "/>
<polyline clip-path="url(#clip562)" style="stroke:#808080; stroke-linecap:round; stroke-linejoin:round; stroke-width:4; stroke-opacity:0.3; fill:none" points="1762.27,3683.09 1762.27,-1770.68 "/>
<polyline clip-path="url(#clip562)" style="stroke:#808080; stroke-linecap:round; stroke-linejoin:round; stroke-width:4; stroke-opacity:0.3; fill:none" points="-1588.21,1667.49 3723.24,1667.49 "/>
<polyline clip-path="url(#clip562)" style="stroke:#808080; stroke-linecap:round; stroke-linejoin:round; stroke-width:4; stroke-opacity:0.3; fill:none" points="-1588.21,1603.41 3723.24,1603.41 "/>
<polyline clip-path="url(#clip562)" style="stroke:#808080; stroke-linecap:round; stroke-linejoin:round; stroke-width:4; stroke-opacity:0.3; fill:none" points="-1588.21,1516.43 3723.24,1516.43 "/>
<polyline clip-path="url(#clip562)" style="stroke:#808080; stroke-linecap:round; stroke-linejoin:round; stroke-width:4; stroke-opacity:0.3; fill:none" points="-1588.21,1341.15 3723.24,1341.15 "/>
<polyline clip-path="url(#clip562)" style="stroke:#808080; stroke-linecap:round; stroke-linejoin:round; stroke-width:4; stroke-opacity:0.3; fill:none" points="-1588.21,1233.51 3723.24,1233.51 "/>
<polyline clip-path="url(#clip562)" style="stroke:#808080; stroke-linecap:round; stroke-linejoin:round; stroke-width:4; stroke-opacity:0.3; fill:none" points="-1588.21,1198.26 3723.24,1198.26 "/>
<polyline clip-path="url(#clip562)" style="stroke:#808080; stroke-linecap:round; stroke-linejoin:round; stroke-width:4; stroke-opacity:0.3; fill:none" points="-1588.21,1117.46 3723.24,1117.46 "/>
<polyline clip-path="url(#clip562)" style="stroke:#808080; stroke-linecap:round; stroke-linejoin:round; stroke-width:4; stroke-opacity:0.3; fill:none" points="-1588.21,1037.12 3723.24,1037.12 "/>
<polyline clip-path="url(#clip562)" style="stroke:#808080; stroke-linecap:round; stroke-linejoin:round; stroke-width:4; stroke-opacity:0.3; fill:none" points="-1588.21,960.753 3723.24,960.753 "/>
<polyline clip-path="url(#clip562)" style="stroke:#808080; stroke-linecap:round; stroke-linejoin:round; stroke-width:4; stroke-opacity:0.3; fill:none" points="-1588.21,829.227 3723.24,829.227 "/>
<polyline clip-path="url(#clip562)" style="stroke:#808080; stroke-linecap:round; stroke-linejoin:round; stroke-width:4; stroke-opacity:0.3; fill:none" points="-1588.21,743.025 3723.24,743.025 "/>
<polyline clip-path="url(#clip562)" style="stroke:#808080; stroke-linecap:round; stroke-linejoin:round; stroke-width:4; stroke-opacity:0.3; fill:none" points="-1588.21,717.279 3723.24,717.279 "/>
<polyline clip-path="url(#clip562)" style="stroke:#808080; stroke-linecap:round; stroke-linejoin:round; stroke-width:4; stroke-opacity:0.3; fill:none" points="-1588.21,677.776 3723.24,677.776 "/>
<polyline clip-path="url(#clip562)" style="stroke:#808080; stroke-linecap:round; stroke-linejoin:round; stroke-width:4; stroke-opacity:0.3; fill:none" points="-1588.21,641.355 3723.24,641.355 "/>
<polyline clip-path="url(#clip562)" style="stroke:#808080; stroke-linecap:round; stroke-linejoin:round; stroke-width:4; stroke-opacity:0.3; fill:none" points="-1588.21,625.19 3723.24,625.19 "/>
<polyline clip-path="url(#clip562)" style="stroke:#808080; stroke-linecap:round; stroke-linejoin:round; stroke-width:4; stroke-opacity:0.3; fill:none" points="-1588.21,613.637 3723.24,613.637 "/>
<polyline clip-path="url(#clip562)" style="stroke:#808080; stroke-linecap:round; stroke-linejoin:round; stroke-width:4; stroke-opacity:0.3; fill:none" points="-1588.21,510.336 3723.24,510.336 "/>
<polyline clip-path="url(#clip562)" style="stroke:#808080; stroke-linecap:round; stroke-linejoin:round; stroke-width:4; stroke-opacity:0.3; fill:none" points="-1588.21,403.438 3723.24,403.438 "/>
<polyline clip-path="url(#clip562)" style="stroke:#808080; stroke-linecap:round; stroke-linejoin:round; stroke-width:4; stroke-opacity:0.3; fill:none" points="-1588.21,363.177 3723.24,363.177 "/>
<polyline clip-path="url(#clip562)" style="stroke:#808080; stroke-linecap:round; stroke-linejoin:round; stroke-width:4; stroke-opacity:0.3; fill:none" points="-1588.21,318.993 3723.24,318.993 "/>
<polyline clip-path="url(#clip562)" style="stroke:#808080; stroke-linecap:round; stroke-linejoin:round; stroke-width:4; stroke-opacity:0.3; fill:none" points="-1588.21,244.919 3723.24,244.919 "/>
<polyline clip-path="url(#clip562)" style="stroke:#000000; stroke-linecap:round; stroke-linejoin:round; stroke-width:4; stroke-opacity:1; fill:none" points="372.763,743.025 1762.27,743.025 "/>
<circle clip-path="url(#clip562)" cx="1067.51" cy="743.025" r="21.6" fill="#ffffff" fill-rule="evenodd" fill-opacity="0.4" stroke="none"/>
<polyline clip-path="url(#clip562)" style="stroke:#000000; stroke-linecap:round; stroke-linejoin:round; stroke-width:4; stroke-opacity:1; fill:none" points="978.748,1667.49 978.748,743.025 "/>
<circle clip-path="url(#clip562)" cx="978.748" cy="1205.26" r="21.6" fill="#ffffff" fill-rule="evenodd" fill-opacity="0.4" stroke="none"/>
<polyline clip-path="url(#clip562)" style="stroke:#000000; stroke-linecap:round; stroke-linejoin:round; stroke-width:4; stroke-opacity:1; fill:none" points="1382.78,743.025 1382.78,244.919 "/>
<circle clip-path="url(#clip562)" cx="1382.78" cy="493.972" r="21.6" fill="#ffffff" fill-rule="evenodd" fill-opacity="0.4" stroke="none"/>
<path clip-path="url(#clip560)" d="M1060.3 753.033 L1066.03 753.033 L1066.03 733.259 L1059.8 734.509 L1059.8 731.315 L1066 730.065 L1069.5 730.065 L1069.5 753.033 L1075.23 753.033 L1075.23 755.985 L1060.3 755.985 L1060.3 753.033 Z" fill="#000000" fill-rule="nonzero" fill-opacity="1" /><path clip-path="url(#clip560)" d="M974.738 1215.27 L986.978 1215.27 L986.978 1218.22 L970.519 1218.22 L970.519 1215.27 Q972.516 1213.2 975.953 1209.73 Q979.408 1206.24 980.294 1205.23 Q981.978 1203.34 982.637 1202.04 Q983.314 1200.72 983.314 1199.45 Q983.314 1197.39 981.856 1196.08 Q980.415 1194.78 978.089 1194.78 Q976.439 1194.78 974.599 1195.35 Q972.776 1195.93 970.693 1197.09 L970.693 1193.55 Q972.811 1192.7 974.651 1192.26 Q976.491 1191.83 978.019 1191.83 Q982.047 1191.83 984.443 1193.84 Q986.839 1195.86 986.839 1199.23 Q986.839 1200.82 986.231 1202.26 Q985.641 1203.69 984.061 1205.63 Q983.627 1206.14 981.3 1208.55 Q978.974 1210.94 974.738 1215.27 Z" fill="#000000" fill-rule="nonzero" fill-opacity="1" /><path clip-path="url(#clip560)" d="M1378.77 503.981 L1391.01 503.981 L1391.01 506.932 L1374.55 506.932 L1374.55 503.981 Q1376.55 501.915 1379.99 498.443 Q1383.44 494.953 1384.33 493.946 Q1386.01 492.054 1386.67 490.752 Q1387.35 489.432 1387.35 488.165 Q1387.35 486.099 1385.89 484.797 Q1384.45 483.495 1382.12 483.495 Q1380.47 483.495 1378.63 484.068 Q1376.81 484.641 1374.73 485.804 L1374.73 482.262 Q1376.84 481.411 1378.68 480.977 Q1380.52 480.543 1382.05 480.543 Q1386.08 480.543 1388.48 482.557 Q1390.87 484.571 1390.87 487.939 Q1390.87 489.536 1390.26 490.977 Q1389.67 492.401 1388.09 494.345 Q1387.66 494.849 1385.33 497.262 Q1383.01 499.658 1378.77 503.981 Z" fill="#000000" fill-rule="nonzero" fill-opacity="1" /></svg>
