<?xml version="1.0" encoding="utf-8"?>
<svg xmlns="http://www.w3.org/2000/svg" xmlns:xlink="http://www.w3.org/1999/xlink" width="1400" height="400" viewBox="0 0 5600 1600">
<defs>
  <clipPath id="clip140">
    <rect x="0" y="0" width="5600" height="1600"/>
  </clipPath>
</defs>
<path clip-path="url(#clip140)" d="M0 1600 L5600 1600 L5600 0 L0 0  Z" fill="#ffffff" fill-rule="evenodd" fill-opacity="1"/>
<defs>
  <clipPath id="clip141">
    <rect x="1120" y="0" width="3921" height="1600"/>
  </clipPath>
</defs>
<path clip-path="url(#clip140)" d="M204.192 1472.04 L5521.26 1472.04 L5521.26 120.408 L204.192 120.408  Z" fill="#ffffff" fill-rule="evenodd" fill-opacity="1"/>
<defs>
  <clipPath id="clip142">
    <rect x="204" y="120" width="5318" height="1353"/>
  </clipPath>
</defs>
<polyline clip-path="url(#clip142)" style="stroke:#000000; stroke-linecap:round; stroke-linejoin:round; stroke-width:2; stroke-opacity:0.1; fill:none" points="671.905,1472.04 671.905,120.408 "/>
<polyline clip-path="url(#clip142)" style="stroke:#000000; stroke-linecap:round; stroke-linejoin:round; stroke-width:2; stroke-opacity:0.1; fill:none" points="1110.07,1472.04 1110.07,120.408 "/>
<polyline clip-path="url(#clip142)" style="stroke:#000000; stroke-linecap:round; stroke-linejoin:round; stroke-width:2; stroke-opacity:0.1; fill:none" points="1548.23,1472.04 1548.23,120.408 "/>
<polyline clip-path="url(#clip142)" style="stroke:#000000; stroke-linecap:round; stroke-linejoin:round; stroke-width:2; stroke-opacity:0.1; fill:none" points="1986.4,1472.04 1986.4,120.408 "/>
<polyline clip-path="url(#clip142)" style="stroke:#000000; stroke-linecap:round; stroke-linejoin:round; stroke-width:2; stroke-opacity:0.1; fill:none" points="2424.56,1472.04 2424.56,120.408 "/>
<polyline clip-path="url(#clip142)" style="stroke:#000000; stroke-linecap:round; stroke-linejoin:round; stroke-width:2; stroke-opacity:0.1; fill:none" points="2862.73,1472.04 2862.73,120.408 "/>
<polyline clip-path="url(#clip142)" style="stroke:#000000; stroke-linecap:round; stroke-linejoin:round; stroke-width:2; stroke-opacity:0.1; fill:none" points="3300.89,1472.04 3300.89,120.408 "/>
<polyline clip-path="url(#clip142)" style="stroke:#000000; stroke-linecap:round; stroke-linejoin:round; stroke-width:2; stroke-opacity:0.1; fill:none" points="3739.05,1472.04 3739.05,120.408 "/>
<polyline clip-path="url(#clip142)" style="stroke:#000000; stroke-linecap:round; stroke-linejoin:round; stroke-width:2; stroke-opacity:0.1; fill:none" points="4177.22,1472.04 4177.22,120.408 "/>
<polyline clip-path="url(#clip142)" style="stroke:#000000; stroke-linecap:round; stroke-linejoin:round; stroke-width:2; stroke-opacity:0.1; fill:none" points="4615.38,1472.04 4615.38,120.408 "/>
<polyline clip-path="url(#clip142)" style="stroke:#000000; stroke-linecap:round; stroke-linejoin:round; stroke-width:2; stroke-opacity:0.1; fill:none" points="5053.55,1472.04 5053.55,120.408 "/>
<polyline clip-path="url(#clip140)" style="stroke:#000000; stroke-linecap:round; stroke-linejoin:round; stroke-width:4; stroke-opacity:1; fill:none" points="204.192,1472.04 5521.26,1472.04 "/>
<polyline clip-path="url(#clip140)" style="stroke:#000000; stroke-linecap:round; stroke-linejoin:round; stroke-width:4; stroke-opacity:1; fill:none" points="671.905,1472.04 671.905,1453.14 "/>
<polyline clip-path="url(#clip140)" style="stroke:#000000; stroke-linecap:round; stroke-linejoin:round; stroke-width:4; stroke-opacity:1; fill:none" points="1110.07,1472.04 1110.07,1453.14 "/>
<polyline clip-path="url(#clip140)" style="stroke:#000000; stroke-linecap:round; stroke-linejoin:round; stroke-width:4; stroke-opacity:1; fill:none" points="1548.23,1472.04 1548.23,1453.14 "/>
<polyline clip-path="url(#clip140)" style="stroke:#000000; stroke-linecap:round; stroke-linejoin:round; stroke-width:4; stroke-opacity:1; fill:none" points="1986.4,1472.04 1986.4,1453.14 "/>
<polyline clip-path="url(#clip140)" style="stroke:#000000; stroke-linecap:round; stroke-linejoin:round; stroke-width:4; stroke-opacity:1; fill:none" points="2424.56,1472.04 2424.56,1453.14 "/>
<polyline clip-path="url(#clip140)" style="stroke:#000000; stroke-linecap:round; stroke-linejoin:round; stroke-width:4; stroke-opacity:1; fill:none" points="2862.73,1472.04 2862.73,1453.14 "/>
<polyline clip-path="url(#clip140)" style="stroke:#000000; stroke-linecap:round; stroke-linejoin:round; stroke-width:4; stroke-opacity:1; fill:none" points="3300.89,1472.04 3300.89,1453.14 "/>
<polyline clip-path="url(#clip140)" style="stroke:#000000; stroke-linecap:round; stroke-linejoin:round; stroke-width:4; stroke-opacity:1; fill:none" points="3739.05,1472.04 3739.05,1453.14 "/>
<polyline clip-path="url(#clip140)" style="stroke:#000000; stroke-linecap:round; stroke-linejoin:round; stroke-width:4; stroke-opacity:1; fill:none" points="4177.22,1472.04 4177.22,1453.14 "/>
<polyline clip-path="url(#clip140)" style="stroke:#000000; stroke-linecap:round; stroke-linejoin:round; stroke-width:4; stroke-opacity:1; fill:none" points="4615.38,1472.04 4615.38,1453.14 "/>
<polyline clip-path="url(#clip140)" style="stroke:#000000; stroke-linecap:round; stroke-linejoin:round; stroke-width:4; stroke-opacity:1; fill:none" points="5053.55,1472.04 5053.55,1453.14 "/>
<path clip-path="url(#clip140)" d="M669.809 1562.83 Q669.809 1566.37 672.231 1568.46 Q674.653 1570.51 678.872 1570.51 Q683.064 1570.51 685.512 1568.46 Q687.934 1566.37 687.934 1562.83 Q687.934 1559.29 685.512 1557.23 Q683.064 1555.15 678.872 1555.15 Q674.653 1555.15 672.231 1557.23 Q669.809 1559.29 669.809 1562.83 M653.325 1552.39 L658.116 1552.39 Q657.179 1554.37 656.684 1556.4 Q656.189 1558.4 656.189 1560.38 Q656.189 1565.59 659.705 1568.35 Q663.221 1571.09 670.33 1571.48 Q668.064 1569.94 666.866 1567.62 Q665.642 1565.3 665.642 1562.52 Q665.642 1556.66 669.21 1553.27 Q672.752 1549.86 678.872 1549.86 Q684.861 1549.86 688.481 1553.4 Q692.101 1556.95 692.101 1562.83 Q692.101 1569.58 686.944 1573.14 Q681.762 1576.71 671.945 1576.71 Q662.726 1576.71 657.257 1572.34 Q651.762 1567.96 651.762 1560.59 Q651.762 1558.61 652.153 1556.61 Q652.544 1554.58 653.325 1552.39 Z" fill="#000000" fill-rule="nonzero" fill-opacity="1" /><path clip-path="url(#clip140)" d="M670.382 1524.86 Q671.189 1521.09 673.741 1518.98 Q676.293 1516.84 680.043 1516.84 Q685.799 1516.84 688.95 1520.8 Q692.101 1524.76 692.101 1532.05 Q692.101 1534.5 691.606 1537.1 Q691.137 1539.68 690.174 1542.44 L685.095 1542.44 Q686.372 1540.25 687.023 1537.65 Q687.674 1535.04 687.674 1532.21 Q687.674 1527.26 685.72 1524.68 Q683.767 1522.08 680.043 1522.08 Q676.606 1522.08 674.679 1524.5 Q672.726 1526.89 672.726 1531.19 L672.726 1535.72 L668.403 1535.72 L668.403 1530.98 Q668.403 1527.1 666.866 1525.04 Q665.304 1522.99 662.387 1522.99 Q659.392 1522.99 657.804 1525.12 Q656.189 1527.23 656.189 1531.19 Q656.189 1533.35 656.658 1535.83 Q657.127 1538.3 658.116 1541.27 L653.429 1541.27 Q652.596 1538.27 652.179 1535.67 Q651.762 1533.04 651.762 1530.72 Q651.762 1524.73 654.497 1521.24 Q657.205 1517.75 661.84 1517.75 Q665.07 1517.75 667.309 1519.6 Q669.523 1521.45 670.382 1524.86 Z" fill="#000000" fill-rule="nonzero" fill-opacity="1" /><path clip-path="url(#clip140)" d="M1107.97 1564.11 Q1107.97 1567.65 1110.4 1569.73 Q1112.82 1571.79 1117.04 1571.79 Q1121.23 1571.79 1123.68 1569.73 Q1126.1 1567.65 1126.1 1564.11 Q1126.1 1560.57 1123.68 1558.51 Q1121.23 1556.42 1117.04 1556.42 Q1112.82 1556.42 1110.4 1558.51 Q1107.97 1560.57 1107.97 1564.11 M1091.49 1553.66 L1096.28 1553.66 Q1095.34 1555.64 1094.85 1557.67 Q1094.35 1559.68 1094.35 1561.66 Q1094.35 1566.87 1097.87 1569.63 Q1101.38 1572.36 1108.49 1572.75 Q1106.23 1571.22 1105.03 1568.9 Q1103.81 1566.58 1103.81 1563.79 Q1103.81 1557.94 1107.37 1554.55 Q1110.92 1551.14 1117.04 1551.14 Q1123.03 1551.14 1126.64 1554.68 Q1130.26 1558.22 1130.26 1564.11 Q1130.26 1570.85 1125.11 1574.42 Q1119.93 1577.99 1110.11 1577.99 Q1100.89 1577.99 1095.42 1573.61 Q1089.93 1569.24 1089.93 1561.87 Q1089.93 1559.89 1090.32 1557.88 Q1090.71 1555.85 1091.49 1553.66 Z" fill="#000000" fill-rule="nonzero" fill-opacity="1" /><path clip-path="url(#clip140)" d="M1095.21 1527.62 L1115.97 1540.9 L1115.97 1527.62 L1095.21 1527.62 M1090.63 1529 L1090.63 1522.39 L1115.97 1522.39 L1115.97 1516.84 L1120.34 1516.84 L1120.34 1522.39 L1129.51 1522.39 L1129.51 1527.62 L1120.34 1527.62 L1120.34 1545.17 L1115.26 1545.17 L1090.63 1529 Z" fill="#000000" fill-rule="nonzero" fill-opacity="1" /><path clip-path="url(#clip140)" d="M1546.14 1562.44 Q1546.14 1565.98 1548.56 1568.07 Q1550.98 1570.12 1555.2 1570.12 Q1559.39 1570.12 1561.84 1568.07 Q1564.26 1565.98 1564.26 1562.44 Q1564.26 1558.9 1561.84 1556.84 Q1559.39 1554.76 1555.2 1554.76 Q1550.98 1554.76 1548.56 1556.84 Q1546.14 1558.9 1546.14 1562.44 M1529.65 1552 L1534.44 1552 Q1533.51 1553.98 1533.01 1556.01 Q1532.52 1558.01 1532.52 1559.99 Q1532.52 1565.2 1536.03 1567.96 Q1539.55 1570.7 1546.66 1571.09 Q1544.39 1569.55 1543.19 1567.23 Q1541.97 1564.91 1541.97 1562.13 Q1541.97 1556.27 1545.54 1552.88 Q1549.08 1549.47 1555.2 1549.47 Q1561.19 1549.47 1564.81 1553.01 Q1568.43 1556.55 1568.43 1562.44 Q1568.43 1569.19 1563.27 1572.75 Q1558.09 1576.32 1548.27 1576.32 Q1539.05 1576.32 1533.59 1571.95 Q1528.09 1567.57 1528.09 1560.2 Q1528.09 1558.22 1528.48 1556.22 Q1528.87 1554.19 1529.65 1552 Z" fill="#000000" fill-rule="nonzero" fill-opacity="1" /><path clip-path="url(#clip140)" d="M1528.79 1540.36 L1528.79 1519.71 L1533.22 1519.71 L1533.22 1535.54 L1542.75 1535.54 Q1542.36 1534.39 1542.18 1533.25 Q1541.97 1532.1 1541.97 1530.96 Q1541.97 1524.45 1545.54 1520.64 Q1549.11 1516.84 1555.2 1516.84 Q1561.48 1516.84 1564.97 1520.75 Q1568.43 1524.65 1568.43 1531.76 Q1568.43 1534.21 1568.01 1536.76 Q1567.6 1539.29 1566.76 1542 L1561.48 1542 Q1562.75 1539.65 1563.38 1537.15 Q1564 1534.65 1564 1531.87 Q1564 1527.36 1561.63 1524.73 Q1559.26 1522.1 1555.2 1522.1 Q1551.14 1522.1 1548.77 1524.73 Q1546.4 1527.36 1546.4 1531.87 Q1546.4 1533.98 1546.87 1536.09 Q1547.34 1538.17 1548.32 1540.36 L1528.79 1540.36 Z" fill="#000000" fill-rule="nonzero" fill-opacity="1" /><path clip-path="url(#clip140)" d="M1984.3 1563.74 Q1984.3 1567.28 1986.72 1569.37 Q1989.14 1571.42 1993.36 1571.42 Q1997.56 1571.42 2000 1569.37 Q2002.43 1567.28 2002.43 1563.74 Q2002.43 1560.2 2000 1558.14 Q1997.56 1556.06 1993.36 1556.06 Q1989.14 1556.06 1986.72 1558.14 Q1984.3 1560.2 1984.3 1563.74 M1967.82 1553.3 L1972.61 1553.3 Q1971.67 1555.28 1971.18 1557.31 Q1970.68 1559.32 1970.68 1561.29 Q1970.68 1566.5 1974.2 1569.26 Q1977.71 1572 1984.82 1572.39 Q1982.56 1570.85 1981.36 1568.53 Q1980.13 1566.22 1980.13 1563.43 Q1980.13 1557.57 1983.7 1554.19 Q1987.24 1550.77 1993.36 1550.77 Q1999.35 1550.77 2002.97 1554.32 Q2006.59 1557.86 2006.59 1563.74 Q2006.59 1570.49 2001.44 1574.05 Q1996.25 1577.62 1986.44 1577.62 Q1977.22 1577.62 1971.75 1573.25 Q1966.25 1568.87 1966.25 1561.5 Q1966.25 1559.52 1966.65 1557.52 Q1967.04 1555.49 1967.82 1553.3 Z" fill="#000000" fill-rule="nonzero" fill-opacity="1" /><path clip-path="url(#clip140)" d="M1984.3 1529.81 Q1984.3 1533.35 1986.72 1535.44 Q1989.14 1537.49 1993.36 1537.49 Q1997.56 1537.49 2000 1535.44 Q2002.43 1533.35 2002.43 1529.81 Q2002.43 1526.27 2000 1524.21 Q1997.56 1522.13 1993.36 1522.13 Q1989.14 1522.13 1986.72 1524.21 Q1984.3 1526.27 1984.3 1529.81 M1967.82 1519.37 L1972.61 1519.37 Q1971.67 1521.35 1971.18 1523.38 Q1970.68 1525.38 1970.68 1527.36 Q1970.68 1532.57 1974.2 1535.33 Q1977.71 1538.07 1984.82 1538.46 Q1982.56 1536.92 1981.36 1534.6 Q1980.13 1532.28 1980.13 1529.5 Q1980.13 1523.64 1983.7 1520.25 Q1987.24 1516.84 1993.36 1516.84 Q1999.35 1516.84 2002.97 1520.38 Q2006.59 1523.92 2006.59 1529.81 Q2006.59 1536.56 2001.44 1540.12 Q1996.25 1543.69 1986.44 1543.69 Q1977.22 1543.69 1971.75 1539.32 Q1966.25 1534.94 1966.25 1527.57 Q1966.25 1525.59 1966.65 1523.59 Q1967.04 1521.56 1967.82 1519.37 Z" fill="#000000" fill-rule="nonzero" fill-opacity="1" /><path clip-path="url(#clip140)" d="M2422.47 1562.54 Q2422.47 1566.09 2424.89 1568.17 Q2427.31 1570.23 2431.53 1570.23 Q2435.72 1570.23 2438.17 1568.17 Q2440.59 1566.09 2440.59 1562.54 Q2440.59 1559 2438.17 1556.95 Q2435.72 1554.86 2431.53 1554.86 Q2427.31 1554.86 2424.89 1556.95 Q2422.47 1559 2422.47 1562.54 M2405.98 1552.1 L2410.77 1552.1 Q2409.84 1554.08 2409.34 1556.11 Q2408.85 1558.12 2408.85 1560.1 Q2408.85 1565.3 2412.36 1568.07 Q2415.88 1570.8 2422.99 1571.19 Q2420.72 1569.65 2419.52 1567.34 Q2418.3 1565.02 2418.3 1562.23 Q2418.3 1556.37 2421.87 1552.99 Q2425.41 1549.58 2431.53 1549.58 Q2437.52 1549.58 2441.14 1553.12 Q2444.76 1556.66 2444.76 1562.54 Q2444.76 1569.29 2439.6 1572.86 Q2434.42 1576.42 2424.6 1576.42 Q2415.38 1576.42 2409.91 1572.05 Q2404.42 1567.67 2404.42 1560.3 Q2404.42 1558.33 2404.81 1556.32 Q2405.2 1554.29 2405.98 1552.1 Z" fill="#000000" fill-rule="nonzero" fill-opacity="1" /><path clip-path="url(#clip140)" d="M2405.12 1541.84 L2405.12 1516.84 L2407.36 1516.84 L2444 1530.96 L2444 1536.45 L2409.55 1523.17 L2409.55 1541.84 L2405.12 1541.84 Z" fill="#000000" fill-rule="nonzero" fill-opacity="1" /><path clip-path="url(#clip140)" d="M2860.63 1563.46 Q2860.63 1567 2863.05 1569.08 Q2865.47 1571.14 2869.69 1571.14 Q2873.88 1571.14 2876.33 1569.08 Q2878.75 1567 2878.75 1563.46 Q2878.75 1559.91 2876.33 1557.86 Q2873.88 1555.77 2869.69 1555.77 Q2865.47 1555.77 2863.05 1557.86 Q2860.63 1559.91 2860.63 1563.46 M2844.15 1553.01 L2848.94 1553.01 Q2848 1554.99 2847.5 1557.02 Q2847.01 1559.03 2847.01 1561.01 Q2847.01 1566.22 2850.53 1568.98 Q2854.04 1571.71 2861.15 1572.1 Q2858.88 1570.57 2857.69 1568.25 Q2856.46 1565.93 2856.46 1563.14 Q2856.46 1557.28 2860.03 1553.9 Q2863.57 1550.49 2869.69 1550.49 Q2875.68 1550.49 2879.3 1554.03 Q2882.92 1557.57 2882.92 1563.46 Q2882.92 1570.2 2877.76 1573.77 Q2872.58 1577.34 2862.76 1577.34 Q2853.55 1577.34 2848.08 1572.96 Q2842.58 1568.59 2842.58 1561.22 Q2842.58 1559.24 2842.97 1557.23 Q2843.36 1555.2 2844.15 1553.01 Z" fill="#000000" fill-rule="nonzero" fill-opacity="1" /><path clip-path="url(#clip140)" d="M2863.7 1530.17 Q2863.7 1533.92 2865.71 1536.09 Q2867.71 1538.22 2871.23 1538.22 Q2874.74 1538.22 2876.75 1536.09 Q2878.75 1533.92 2878.75 1530.17 Q2878.75 1526.42 2876.75 1524.26 Q2874.72 1522.1 2871.23 1522.1 Q2867.71 1522.1 2865.71 1524.26 Q2863.7 1526.4 2863.7 1530.17 M2861.46 1535.44 Q2860.63 1538.82 2858.31 1540.72 Q2855.99 1542.6 2852.66 1542.6 Q2848 1542.6 2845.29 1539.29 Q2842.58 1535.96 2842.58 1530.17 Q2842.58 1524.37 2845.29 1521.06 Q2848 1517.75 2852.66 1517.75 Q2855.99 1517.75 2858.31 1519.65 Q2860.63 1521.53 2861.46 1524.89 Q2862.35 1521.09 2864.93 1518.98 Q2867.5 1516.84 2871.23 1516.84 Q2876.88 1516.84 2879.9 1520.31 Q2882.92 1523.74 2882.92 1530.17 Q2882.92 1536.61 2879.9 1540.07 Q2876.88 1543.51 2871.23 1543.51 Q2867.5 1543.51 2864.93 1541.37 Q2862.35 1539.24 2861.46 1535.44 M2853.16 1537.36 Q2856.18 1537.36 2857.87 1535.49 Q2859.56 1533.59 2859.56 1530.17 Q2859.56 1526.79 2857.87 1524.89 Q2856.18 1522.96 2853.16 1522.96 Q2850.13 1522.96 2848.44 1524.89 Q2846.75 1526.79 2846.75 1530.17 Q2846.75 1533.59 2848.44 1535.49 Q2850.13 1537.36 2853.16 1537.36 Z" fill="#000000" fill-rule="nonzero" fill-opacity="1" /><path clip-path="url(#clip140)" d="M3298.79 1563.35 Q3298.79 1566.89 3301.22 1568.98 Q3303.64 1571.03 3307.86 1571.03 Q3312.05 1571.03 3314.5 1568.98 Q3316.92 1566.89 3316.92 1563.35 Q3316.92 1559.81 3314.5 1557.75 Q3312.05 1555.67 3307.86 1555.67 Q3303.64 1555.67 3301.22 1557.75 Q3298.79 1559.81 3298.79 1563.35 M3282.31 1552.91 L3287.1 1552.91 Q3286.16 1554.89 3285.67 1556.92 Q3285.17 1558.92 3285.17 1560.9 Q3285.17 1566.11 3288.69 1568.87 Q3292.2 1571.61 3299.31 1572 Q3297.05 1570.46 3295.85 1568.14 Q3294.63 1565.83 3294.63 1563.04 Q3294.63 1557.18 3298.19 1553.79 Q3301.74 1550.38 3307.86 1550.38 Q3313.85 1550.38 3317.47 1553.92 Q3321.08 1557.47 3321.08 1563.35 Q3321.08 1570.1 3315.93 1573.66 Q3310.75 1577.23 3300.93 1577.23 Q3291.71 1577.23 3286.24 1572.86 Q3280.75 1568.48 3280.75 1561.11 Q3280.75 1559.13 3281.14 1557.13 Q3281.53 1555.1 3282.31 1552.91 Z" fill="#000000" fill-rule="nonzero" fill-opacity="1" /><path clip-path="url(#clip140)" d="M3319.52 1541.16 L3314.73 1541.16 Q3315.67 1539.19 3316.16 1537.15 Q3316.66 1535.12 3316.66 1533.17 Q3316.66 1527.96 3313.17 1525.23 Q3309.65 1522.47 3302.52 1522.08 Q3304.76 1523.59 3305.95 1525.9 Q3307.15 1528.22 3307.15 1531.03 Q3307.15 1536.87 3303.64 1540.28 Q3300.1 1543.66 3293.98 1543.66 Q3287.99 1543.66 3284.37 1540.12 Q3280.75 1536.58 3280.75 1530.7 Q3280.75 1523.95 3285.93 1520.41 Q3291.09 1516.84 3300.93 1516.84 Q3310.12 1516.84 3315.62 1521.22 Q3321.08 1525.57 3321.08 1532.94 Q3321.08 1534.91 3320.69 1536.95 Q3320.3 1538.98 3319.52 1541.16 M3303.04 1530.7 Q3303.04 1527.15 3300.62 1525.1 Q3298.19 1523.01 3293.98 1523.01 Q3289.78 1523.01 3287.36 1525.1 Q3284.91 1527.15 3284.91 1530.7 Q3284.91 1534.24 3287.36 1536.32 Q3289.78 1538.38 3293.98 1538.38 Q3298.19 1538.38 3300.62 1536.32 Q3303.04 1534.24 3303.04 1530.7 Z" fill="#000000" fill-rule="nonzero" fill-opacity="1" /><path clip-path="url(#clip140)" d="M3719.61 1576.79 L3719.61 1551.79 L3721.85 1551.79 L3758.49 1565.9 L3758.49 1571.4 L3724.04 1558.12 L3724.04 1576.79 L3719.61 1576.79 Z" fill="#000000" fill-rule="nonzero" fill-opacity="1" /><path clip-path="url(#clip140)" d="M3723.08 1530.28 Q3723.08 1534.34 3727.09 1536.4 Q3731.07 1538.43 3739.09 1538.43 Q3747.09 1538.43 3751.1 1536.4 Q3755.08 1534.34 3755.08 1530.28 Q3755.08 1526.19 3751.1 1524.16 Q3747.09 1522.1 3739.09 1522.1 Q3731.07 1522.1 3727.09 1524.16 Q3723.08 1526.19 3723.08 1530.28 M3718.91 1530.28 Q3718.91 1523.74 3724.09 1520.31 Q3729.25 1516.84 3739.09 1516.84 Q3748.91 1516.84 3754.09 1520.31 Q3759.25 1523.74 3759.25 1530.28 Q3759.25 1536.82 3754.09 1540.28 Q3748.91 1543.72 3739.09 1543.72 Q3729.25 1543.72 3724.09 1540.28 Q3718.91 1536.82 3718.91 1530.28 Z" fill="#000000" fill-rule="nonzero" fill-opacity="1" /><path clip-path="url(#clip140)" d="M4157.78 1575.41 L4157.78 1550.41 L4160.02 1550.41 L4196.66 1564.52 L4196.66 1570.02 L4162.2 1556.74 L4162.2 1575.41 L4157.78 1575.41 Z" fill="#000000" fill-rule="nonzero" fill-opacity="1" /><path clip-path="url(#clip140)" d="M4192.23 1539.24 L4192.23 1530.64 L4162.57 1530.64 L4164.44 1539.99 L4159.65 1539.99 L4157.78 1530.7 L4157.78 1525.44 L4192.23 1525.44 L4192.23 1516.84 L4196.66 1516.84 L4196.66 1539.24 L4192.23 1539.24 Z" fill="#000000" fill-rule="nonzero" fill-opacity="1" /><path clip-path="url(#clip140)" d="M4595.94 1574.99 L4595.94 1549.99 L4598.18 1549.99 L4634.82 1564.11 L4634.82 1569.6 L4600.37 1556.32 L4600.37 1574.99 L4595.94 1574.99 Z" fill="#000000" fill-rule="nonzero" fill-opacity="1" /><path clip-path="url(#clip140)" d="M4630.39 1535.2 L4630.39 1516.84 L4634.82 1516.84 L4634.82 1541.53 L4630.39 1541.53 Q4627.3 1538.53 4622.09 1533.38 Q4616.85 1528.2 4615.34 1526.87 Q4612.5 1524.34 4610.55 1523.35 Q4608.57 1522.34 4606.67 1522.34 Q4603.57 1522.34 4601.62 1524.52 Q4599.67 1526.69 4599.67 1530.17 Q4599.67 1532.65 4600.53 1535.41 Q4601.38 1538.14 4603.13 1541.27 L4597.82 1541.27 Q4596.54 1538.09 4595.89 1535.33 Q4595.24 1532.57 4595.24 1530.28 Q4595.24 1524.24 4598.26 1520.64 Q4601.28 1517.05 4606.33 1517.05 Q4608.73 1517.05 4610.89 1517.96 Q4613.03 1518.85 4615.94 1521.22 Q4616.7 1521.87 4620.32 1525.36 Q4623.91 1528.85 4630.39 1535.2 Z" fill="#000000" fill-rule="nonzero" fill-opacity="1" /><path clip-path="url(#clip140)" d="M5034.11 1576.06 L5034.11 1551.06 L5036.35 1551.06 L5072.99 1565.17 L5072.99 1570.67 L5038.53 1557.39 L5038.53 1576.06 L5034.11 1576.06 Z" fill="#000000" fill-rule="nonzero" fill-opacity="1" /><path clip-path="url(#clip140)" d="M5052.02 1524.86 Q5052.83 1521.09 5055.38 1518.98 Q5057.93 1516.84 5061.68 1516.84 Q5067.44 1516.84 5070.59 1520.8 Q5073.74 1524.76 5073.74 1532.05 Q5073.74 1534.5 5073.25 1537.1 Q5072.78 1539.68 5071.81 1542.44 L5066.74 1542.44 Q5068.01 1540.25 5068.66 1537.65 Q5069.31 1535.04 5069.31 1532.21 Q5069.31 1527.26 5067.36 1524.68 Q5065.41 1522.08 5061.68 1522.08 Q5058.25 1522.08 5056.32 1524.5 Q5054.37 1526.89 5054.37 1531.19 L5054.37 1535.72 L5050.04 1535.72 L5050.04 1530.98 Q5050.04 1527.1 5048.51 1525.04 Q5046.94 1522.99 5044.03 1522.99 Q5041.03 1522.99 5039.44 1525.12 Q5037.83 1527.23 5037.83 1531.19 Q5037.83 1533.35 5038.3 1535.83 Q5038.77 1538.3 5039.76 1541.27 L5035.07 1541.27 Q5034.24 1538.27 5033.82 1535.67 Q5033.4 1533.04 5033.4 1530.72 Q5033.4 1524.73 5036.14 1521.24 Q5038.85 1517.75 5043.48 1517.75 Q5046.71 1517.75 5048.95 1519.6 Q5051.16 1521.45 5052.02 1524.86 Z" fill="#000000" fill-rule="nonzero" fill-opacity="1" /><polyline clip-path="url(#clip142)" style="stroke:#000000; stroke-linecap:round; stroke-linejoin:round; stroke-width:2; stroke-opacity:0.1; fill:none" points="204.192,1472.04 5521.26,1472.04 "/>
<polyline clip-path="url(#clip142)" style="stroke:#000000; stroke-linecap:round; stroke-linejoin:round; stroke-width:2; stroke-opacity:0.1; fill:none" points="204.192,1190.45 5521.26,1190.45 "/>
<polyline clip-path="url(#clip142)" style="stroke:#000000; stroke-linecap:round; stroke-linejoin:round; stroke-width:2; stroke-opacity:0.1; fill:none" points="204.192,908.861 5521.26,908.861 "/>
<polyline clip-path="url(#clip142)" style="stroke:#000000; stroke-linecap:round; stroke-linejoin:round; stroke-width:2; stroke-opacity:0.1; fill:none" points="204.192,627.271 5521.26,627.271 "/>
<polyline clip-path="url(#clip142)" style="stroke:#000000; stroke-linecap:round; stroke-linejoin:round; stroke-width:2; stroke-opacity:0.1; fill:none" points="204.192,345.68 5521.26,345.68 "/>
<polyline clip-path="url(#clip140)" style="stroke:#000000; stroke-linecap:round; stroke-linejoin:round; stroke-width:4; stroke-opacity:1; fill:none" points="204.192,1472.04 204.192,120.408 "/>
<polyline clip-path="url(#clip140)" style="stroke:#000000; stroke-linecap:round; stroke-linejoin:round; stroke-width:4; stroke-opacity:1; fill:none" points="204.192,1472.04 223.089,1472.04 "/>
<polyline clip-path="url(#clip140)" style="stroke:#000000; stroke-linecap:round; stroke-linejoin:round; stroke-width:4; stroke-opacity:1; fill:none" points="204.192,1190.45 223.089,1190.45 "/>
<polyline clip-path="url(#clip140)" style="stroke:#000000; stroke-linecap:round; stroke-linejoin:round; stroke-width:4; stroke-opacity:1; fill:none" points="204.192,908.861 223.089,908.861 "/>
<polyline clip-path="url(#clip140)" style="stroke:#000000; stroke-linecap:round; stroke-linejoin:round; stroke-width:4; stroke-opacity:1; fill:none" points="204.192,627.271 223.089,627.271 "/>
<polyline clip-path="url(#clip140)" style="stroke:#000000; stroke-linecap:round; stroke-linejoin:round; stroke-width:4; stroke-opacity:1; fill:none" points="204.192,345.68 223.089,345.68 "/>
<path clip-path="url(#clip140)" d="M108.247 1457.84 Q104.636 1457.84 102.807 1461.41 Q101.002 1464.95 101.002 1472.08 Q101.002 1479.18 102.807 1482.75 Q104.636 1486.29 108.247 1486.29 Q111.881 1486.29 113.687 1482.75 Q115.516 1479.18 115.516 1472.08 Q115.516 1464.95 113.687 1461.41 Q111.881 1457.84 108.247 1457.84 M108.247 1454.14 Q114.057 1454.14 117.113 1458.74 Q120.192 1463.33 120.192 1472.08 Q120.192 1480.8 117.113 1485.41 Q114.057 1489.99 108.247 1489.99 Q102.437 1489.99 99.3584 1485.41 Q96.3028 1480.8 96.3028 1472.08 Q96.3028 1463.33 99.3584 1458.74 Q102.437 1454.14 108.247 1454.14 Z" fill="#000000" fill-rule="nonzero" fill-opacity="1" /><path clip-path="url(#clip140)" d="M99.2889 1173.17 L117.645 1173.17 L117.645 1177.11 L103.571 1177.11 L103.571 1185.58 Q104.59 1185.23 105.608 1185.07 Q106.627 1184.88 107.645 1184.88 Q113.432 1184.88 116.812 1188.06 Q120.192 1191.23 120.192 1196.64 Q120.192 1202.22 116.719 1205.32 Q113.247 1208.4 106.928 1208.4 Q104.752 1208.4 102.483 1208.03 Q100.238 1207.66 97.8306 1206.92 L97.8306 1202.22 Q99.9139 1203.36 102.136 1203.91 Q104.358 1204.47 106.835 1204.47 Q110.84 1204.47 113.178 1202.36 Q115.516 1200.25 115.516 1196.64 Q115.516 1193.03 113.178 1190.93 Q110.84 1188.82 106.835 1188.82 Q104.96 1188.82 103.085 1189.24 Q101.233 1189.65 99.2889 1190.53 L99.2889 1173.17 Z" fill="#000000" fill-rule="nonzero" fill-opacity="1" /><path clip-path="url(#clip140)" d="M68.8956 922.206 L76.5344 922.206 L76.5344 895.84 L68.2243 897.507 L68.2243 893.248 L76.4881 891.581 L81.164 891.581 L81.164 922.206 L88.8029 922.206 L88.8029 926.141 L68.8956 926.141 L68.8956 922.206 Z" fill="#000000" fill-rule="nonzero" fill-opacity="1" /><path clip-path="url(#clip140)" d="M108.247 894.66 Q104.636 894.66 102.807 898.225 Q101.002 901.766 101.002 908.896 Q101.002 916.002 102.807 919.567 Q104.636 923.109 108.247 923.109 Q111.881 923.109 113.687 919.567 Q115.516 916.002 115.516 908.896 Q115.516 901.766 113.687 898.225 Q111.881 894.66 108.247 894.66 M108.247 890.956 Q114.057 890.956 117.113 895.563 Q120.192 900.146 120.192 908.896 Q120.192 917.623 117.113 922.229 Q114.057 926.812 108.247 926.812 Q102.437 926.812 99.3584 922.229 Q96.3028 917.623 96.3028 908.896 Q96.3028 900.146 99.3584 895.563 Q102.437 890.956 108.247 890.956 Z" fill="#000000" fill-rule="nonzero" fill-opacity="1" /><path clip-path="url(#clip140)" d="M69.8909 640.616 L77.5298 640.616 L77.5298 614.25 L69.2197 615.917 L69.2197 611.657 L77.4835 609.991 L82.1594 609.991 L82.1594 640.616 L89.7982 640.616 L89.7982 644.551 L69.8909 644.551 L69.8909 640.616 Z" fill="#000000" fill-rule="nonzero" fill-opacity="1" /><path clip-path="url(#clip140)" d="M99.2889 609.991 L117.645 609.991 L117.645 613.926 L103.571 613.926 L103.571 622.398 Q104.59 622.051 105.608 621.889 Q106.627 621.704 107.645 621.704 Q113.432 621.704 116.812 624.875 Q120.192 628.046 120.192 633.463 Q120.192 639.042 116.719 642.143 Q113.247 645.222 106.928 645.222 Q104.752 645.222 102.483 644.852 Q100.238 644.481 97.8306 643.741 L97.8306 639.042 Q99.9139 640.176 102.136 640.731 Q104.358 641.287 106.835 641.287 Q110.84 641.287 113.178 639.18 Q115.516 637.074 115.516 633.463 Q115.516 629.852 113.178 627.745 Q110.84 625.639 106.835 625.639 Q104.96 625.639 103.085 626.055 Q101.233 626.472 99.2889 627.352 L99.2889 609.991 Z" fill="#000000" fill-rule="nonzero" fill-opacity="1" /><path clip-path="url(#clip140)" d="M72.1132 359.025 L88.4325 359.025 L88.4325 362.96 L66.4882 362.96 L66.4882 359.025 Q69.1502 356.271 73.7335 351.641 Q78.34 346.988 79.5205 345.646 Q81.7659 343.123 82.6455 341.386 Q83.5483 339.627 83.5483 337.937 Q83.5483 335.183 81.6038 333.447 Q79.6826 331.711 76.5807 331.711 Q74.3817 331.711 71.928 332.474 Q69.4974 333.238 66.7197 334.789 L66.7197 330.067 Q69.5437 328.933 71.9974 328.354 Q74.4511 327.775 76.4881 327.775 Q81.8585 327.775 85.0529 330.461 Q88.2473 333.146 88.2473 337.636 Q88.2473 339.766 87.4372 341.687 Q86.6501 343.586 84.5436 346.178 Q83.9649 346.849 80.8631 350.067 Q77.7613 353.261 72.1132 359.025 Z" fill="#000000" fill-rule="nonzero" fill-opacity="1" /><path clip-path="url(#clip140)" d="M108.247 331.479 Q104.636 331.479 102.807 335.044 Q101.002 338.586 101.002 345.715 Q101.002 352.822 102.807 356.386 Q104.636 359.928 108.247 359.928 Q111.881 359.928 113.687 356.386 Q115.516 352.822 115.516 345.715 Q115.516 338.586 113.687 335.044 Q111.881 331.479 108.247 331.479 M108.247 327.775 Q114.057 327.775 117.113 332.382 Q120.192 336.965 120.192 345.715 Q120.192 354.442 117.113 359.048 Q114.057 363.632 108.247 363.632 Q102.437 363.632 99.3584 359.048 Q96.3028 354.442 96.3028 345.715 Q96.3028 336.965 99.3584 332.382 Q102.437 327.775 108.247 327.775 Z" fill="#000000" fill-rule="nonzero" fill-opacity="1" /><path clip-path="url(#clip140)" d="M2018.09 12.096 L2056.33 12.096 L2056.33 18.9825 L2026.27 18.9825 L2026.27 36.8875 L2055.08 36.8875 L2055.08 43.7741 L2026.27 43.7741 L2026.27 65.6895 L2057.06 65.6895 L2057.06 72.576 L2018.09 72.576 L2018.09 12.096 Z" fill="#000000" fill-rule="nonzero" fill-opacity="1" /><path clip-path="url(#clip140)" d="M2134.27 45.1919 L2134.27 72.576 L2126.82 72.576 L2126.82 45.4349 Q2126.82 38.994 2124.31 35.7938 Q2121.8 32.5936 2116.77 32.5936 Q2110.74 32.5936 2107.25 36.4419 Q2103.77 40.2903 2103.77 46.9338 L2103.77 72.576 L2096.27 72.576 L2096.27 9.54393 L2103.77 9.54393 L2103.77 34.2544 Q2106.44 30.163 2110.05 28.1376 Q2113.69 26.1121 2118.43 26.1121 Q2126.25 26.1121 2130.26 30.9732 Q2134.27 35.7938 2134.27 45.1919 Z" fill="#000000" fill-rule="nonzero" fill-opacity="1" /><path clip-path="url(#clip140)" d="M2149.14 27.2059 L2156.59 27.2059 L2156.59 72.576 L2149.14 72.576 L2149.14 27.2059 M2149.14 9.54393 L2156.59 9.54393 L2156.59 18.9825 L2149.14 18.9825 L2149.14 9.54393 Z" fill="#000000" fill-rule="nonzero" fill-opacity="1" /><path clip-path="url(#clip140)" d="M2201.11 28.5427 L2201.11 35.5912 Q2197.95 33.9709 2194.55 33.1607 Q2191.15 32.3505 2187.5 32.3505 Q2181.95 32.3505 2179.16 34.0519 Q2176.4 35.7533 2176.4 39.156 Q2176.4 41.7486 2178.39 43.2475 Q2180.37 44.7058 2186.37 46.0426 L2188.92 46.6097 Q2196.86 48.3111 2200.18 51.4303 Q2203.54 54.509 2203.54 60.0587 Q2203.54 66.3781 2198.52 70.0644 Q2193.54 73.7508 2184.79 73.7508 Q2181.14 73.7508 2177.17 73.0216 Q2173.24 72.3329 2168.87 70.9151 L2168.87 63.2184 Q2173 65.3654 2177.01 66.4591 Q2181.02 67.5124 2184.95 67.5124 Q2190.21 67.5124 2193.05 65.73 Q2195.89 63.9071 2195.89 60.6258 Q2195.89 57.5877 2193.82 55.9673 Q2191.79 54.3469 2184.87 52.8481 L2182.28 52.2405 Q2175.35 50.7821 2172.27 47.7845 Q2169.19 44.7463 2169.19 39.4801 Q2169.19 33.0797 2173.73 29.5959 Q2178.26 26.1121 2186.61 26.1121 Q2190.74 26.1121 2194.39 26.7198 Q2198.03 27.3274 2201.11 28.5427 Z" fill="#000000" fill-rule="nonzero" fill-opacity="1" /><path clip-path="url(#clip140)" d="M2222.78 14.324 L2222.78 27.2059 L2238.14 27.2059 L2238.14 32.9987 L2222.78 32.9987 L2222.78 57.6282 Q2222.78 63.1779 2224.28 64.7578 Q2225.82 66.3376 2230.48 66.3376 L2238.14 66.3376 L2238.14 72.576 L2230.48 72.576 Q2221.85 72.576 2218.57 69.3758 Q2215.29 66.1351 2215.29 57.6282 L2215.29 32.9987 L2209.82 32.9987 L2209.82 27.2059 L2215.29 27.2059 L2215.29 14.324 L2222.78 14.324 Z" fill="#000000" fill-rule="nonzero" fill-opacity="1" /><path clip-path="url(#clip140)" d="M2265.52 32.4315 Q2259.53 32.4315 2256.04 37.1306 Q2252.56 41.7891 2252.56 49.9314 Q2252.56 58.0738 2256 62.7728 Q2259.49 67.4314 2265.52 67.4314 Q2271.48 67.4314 2274.96 62.7323 Q2278.44 58.0333 2278.44 49.9314 Q2278.44 41.8701 2274.96 37.1711 Q2271.48 32.4315 2265.52 32.4315 M2265.52 26.1121 Q2275.24 26.1121 2280.79 32.4315 Q2286.34 38.7509 2286.34 49.9314 Q2286.34 61.0714 2280.79 67.4314 Q2275.24 73.7508 2265.52 73.7508 Q2255.76 73.7508 2250.21 67.4314 Q2244.7 61.0714 2244.7 49.9314 Q2244.7 38.7509 2250.21 32.4315 Q2255.76 26.1121 2265.52 26.1121 Z" fill="#000000" fill-rule="nonzero" fill-opacity="1" /><path clip-path="url(#clip140)" d="M2328.55 49.3643 Q2328.55 41.2625 2325.19 36.8065 Q2321.87 32.3505 2315.83 32.3505 Q2309.84 32.3505 2306.48 36.8065 Q2303.15 41.2625 2303.15 49.3643 Q2303.15 57.4256 2306.48 61.8816 Q2309.84 66.3376 2315.83 66.3376 Q2321.87 66.3376 2325.19 61.8816 Q2328.55 57.4256 2328.55 49.3643 M2336.01 66.9452 Q2336.01 78.5308 2330.86 84.1616 Q2325.72 89.8329 2315.1 89.8329 Q2311.17 89.8329 2307.69 89.2252 Q2304.21 88.6581 2300.93 87.4428 L2300.93 80.1917 Q2304.21 81.9741 2307.41 82.8248 Q2310.61 83.6755 2313.93 83.6755 Q2321.26 83.6755 2324.91 79.8271 Q2328.55 76.0193 2328.55 68.282 L2328.55 64.5957 Q2326.24 68.6061 2322.64 70.5911 Q2319.03 72.576 2314.01 72.576 Q2305.67 72.576 2300.56 66.2161 Q2295.46 59.8562 2295.46 49.3643 Q2295.46 38.832 2300.56 32.472 Q2305.67 26.1121 2314.01 26.1121 Q2319.03 26.1121 2322.64 28.0971 Q2326.24 30.082 2328.55 34.0924 L2328.55 27.2059 L2336.01 27.2059 L2336.01 66.9452 Z" fill="#000000" fill-rule="nonzero" fill-opacity="1" /><path clip-path="url(#clip140)" d="M2377.65 34.1734 Q2376.39 33.4443 2374.9 33.1202 Q2373.44 32.7556 2371.65 32.7556 Q2365.34 32.7556 2361.93 36.8875 Q2358.57 40.9789 2358.57 48.6757 L2358.57 72.576 L2351.08 72.576 L2351.08 27.2059 L2358.57 27.2059 L2358.57 34.2544 Q2360.92 30.1225 2364.69 28.1376 Q2368.45 26.1121 2373.84 26.1121 Q2374.61 26.1121 2375.54 26.2337 Q2376.48 26.3147 2377.61 26.5172 L2377.65 34.1734 Z" fill="#000000" fill-rule="nonzero" fill-opacity="1" /><path clip-path="url(#clip140)" d="M2406.09 49.7694 Q2397.05 49.7694 2393.57 51.8354 Q2390.09 53.9013 2390.09 58.8839 Q2390.09 62.8538 2392.68 65.2034 Q2395.31 67.5124 2399.81 67.5124 Q2406.01 67.5124 2409.73 63.1374 Q2413.5 58.7219 2413.5 51.4303 L2413.5 49.7694 L2406.09 49.7694 M2420.95 46.6907 L2420.95 72.576 L2413.5 72.576 L2413.5 65.6895 Q2410.95 69.8214 2407.14 71.8063 Q2403.33 73.7508 2397.82 73.7508 Q2390.86 73.7508 2386.72 69.8619 Q2382.63 65.9325 2382.63 59.3701 Q2382.63 51.7138 2387.74 47.825 Q2392.88 43.9361 2403.05 43.9361 L2413.5 43.9361 L2413.5 43.2069 Q2413.5 38.0623 2410.1 35.2672 Q2406.74 32.4315 2400.62 32.4315 Q2396.73 32.4315 2393.04 33.3632 Q2389.36 34.295 2385.95 36.1584 L2385.95 29.2718 Q2390.05 27.692 2393.89 26.9223 Q2397.74 26.1121 2401.39 26.1121 Q2411.23 26.1121 2416.09 31.2163 Q2420.95 36.3204 2420.95 46.6907 Z" fill="#000000" fill-rule="nonzero" fill-opacity="1" /><path clip-path="url(#clip140)" d="M2471.63 35.9153 Q2474.43 30.8922 2478.32 28.5022 Q2482.2 26.1121 2487.47 26.1121 Q2494.56 26.1121 2498.41 31.0947 Q2502.26 36.0368 2502.26 45.1919 L2502.26 72.576 L2494.76 72.576 L2494.76 45.4349 Q2494.76 38.913 2492.45 35.7533 Q2490.14 32.5936 2485.4 32.5936 Q2479.61 32.5936 2476.25 36.4419 Q2472.89 40.2903 2472.89 46.9338 L2472.89 72.576 L2465.39 72.576 L2465.39 45.4349 Q2465.39 38.8725 2463.08 35.7533 Q2460.77 32.5936 2455.95 32.5936 Q2450.24 32.5936 2446.88 36.4824 Q2443.52 40.3308 2443.52 46.9338 L2443.52 72.576 L2436.02 72.576 L2436.02 27.2059 L2443.52 27.2059 L2443.52 34.2544 Q2446.07 30.082 2449.63 28.0971 Q2453.2 26.1121 2458.1 26.1121 Q2463.04 26.1121 2466.49 28.6237 Q2469.97 31.1352 2471.63 35.9153 Z" fill="#000000" fill-rule="nonzero" fill-opacity="1" /><path clip-path="url(#clip140)" d="M2581.21 45.1919 L2581.21 72.576 L2573.75 72.576 L2573.75 45.4349 Q2573.75 38.994 2571.24 35.7938 Q2568.73 32.5936 2563.71 32.5936 Q2557.67 32.5936 2554.19 36.4419 Q2550.7 40.2903 2550.7 46.9338 L2550.7 72.576 L2543.21 72.576 L2543.21 27.2059 L2550.7 27.2059 L2550.7 34.2544 Q2553.38 30.163 2556.98 28.1376 Q2560.63 26.1121 2565.37 26.1121 Q2573.19 26.1121 2577.2 30.9732 Q2581.21 35.7938 2581.21 45.1919 Z" fill="#000000" fill-rule="nonzero" fill-opacity="1" /><path clip-path="url(#clip140)" d="M2623.42 34.9026 L2675.35 34.9026 L2675.35 41.7081 L2623.42 41.7081 L2623.42 34.9026 M2623.42 51.4303 L2675.35 51.4303 L2675.35 58.3168 L2623.42 58.3168 L2623.42 51.4303 Z" fill="#000000" fill-rule="nonzero" fill-opacity="1" /><path clip-path="url(#clip140)" d="M2719.47 12.096 L2751.59 12.096 L2751.59 18.9825 L2726.96 18.9825 L2726.96 33.8088 Q2728.74 33.2012 2730.52 32.9176 Q2732.31 32.5936 2734.09 32.5936 Q2744.22 32.5936 2750.13 38.1433 Q2756.05 43.6931 2756.05 53.1722 Q2756.05 62.9348 2749.97 68.3631 Q2743.89 73.7508 2732.83 73.7508 Q2729.03 73.7508 2725.06 73.1026 Q2721.13 72.4545 2716.91 71.1582 L2716.91 62.9348 Q2720.56 64.9198 2724.45 65.892 Q2728.34 66.8642 2732.67 66.8642 Q2739.68 66.8642 2743.77 63.1779 Q2747.86 59.4916 2747.86 53.1722 Q2747.86 46.8528 2743.77 43.1664 Q2739.68 39.4801 2732.67 39.4801 Q2729.39 39.4801 2726.11 40.2093 Q2722.87 40.9384 2719.47 42.4778 L2719.47 12.096 Z" fill="#000000" fill-rule="nonzero" fill-opacity="1" /><path clip-path="url(#clip140)" d="M2773.02 62.2867 L2781.57 62.2867 L2781.57 69.2543 L2774.92 82.2172 L2769.7 82.2172 L2773.02 69.2543 L2773.02 62.2867 Z" fill="#000000" fill-rule="nonzero" fill-opacity="1" /><path clip-path="url(#clip140)" d="M2856.51 28.9478 L2856.51 35.9153 Q2853.35 34.1734 2850.15 33.3227 Q2846.99 32.4315 2843.75 32.4315 Q2836.5 32.4315 2832.49 37.0496 Q2828.48 41.6271 2828.48 49.9314 Q2828.48 58.2358 2832.49 62.8538 Q2836.5 67.4314 2843.75 67.4314 Q2846.99 67.4314 2850.15 66.5807 Q2853.35 65.6895 2856.51 63.9476 L2856.51 70.8341 Q2853.39 72.2924 2850.03 73.0216 Q2846.7 73.7508 2842.94 73.7508 Q2832.69 73.7508 2826.65 67.3098 Q2820.62 60.8689 2820.62 49.9314 Q2820.62 38.832 2826.69 32.472 Q2832.81 26.1121 2843.42 26.1121 Q2846.87 26.1121 2850.15 26.8413 Q2853.43 27.5299 2856.51 28.9478 Z" fill="#000000" fill-rule="nonzero" fill-opacity="1" /><path clip-path="url(#clip140)" d="M2890.09 49.7694 Q2881.06 49.7694 2877.57 51.8354 Q2874.09 53.9013 2874.09 58.8839 Q2874.09 62.8538 2876.68 65.2034 Q2879.31 67.5124 2883.81 67.5124 Q2890.01 67.5124 2893.74 63.1374 Q2897.5 58.7219 2897.5 51.4303 L2897.5 49.7694 L2890.09 49.7694 M2904.96 46.6907 L2904.96 72.576 L2897.5 72.576 L2897.5 65.6895 Q2894.95 69.8214 2891.14 71.8063 Q2887.33 73.7508 2881.83 73.7508 Q2874.86 73.7508 2870.73 69.8619 Q2866.63 65.9325 2866.63 59.3701 Q2866.63 51.7138 2871.74 47.825 Q2876.88 43.9361 2887.05 43.9361 L2897.5 43.9361 L2897.5 43.2069 Q2897.5 38.0623 2894.1 35.2672 Q2890.74 32.4315 2884.62 32.4315 Q2880.73 32.4315 2877.05 33.3632 Q2873.36 34.295 2869.96 36.1584 L2869.96 29.2718 Q2874.05 27.692 2877.9 26.9223 Q2881.74 26.1121 2885.39 26.1121 Q2895.23 26.1121 2900.1 31.2163 Q2904.96 36.3204 2904.96 46.6907 Z" fill="#000000" fill-rule="nonzero" fill-opacity="1" /><path clip-path="url(#clip140)" d="M2949.23 28.5427 L2949.23 35.5912 Q2946.07 33.9709 2942.67 33.1607 Q2939.27 32.3505 2935.62 32.3505 Q2930.07 32.3505 2927.28 34.0519 Q2924.52 35.7533 2924.52 39.156 Q2924.52 41.7486 2926.51 43.2475 Q2928.49 44.7058 2934.49 46.0426 L2937.04 46.6097 Q2944.98 48.3111 2948.3 51.4303 Q2951.66 54.509 2951.66 60.0587 Q2951.66 66.3781 2946.64 70.0644 Q2941.66 73.7508 2932.91 73.7508 Q2929.26 73.7508 2925.29 73.0216 Q2921.36 72.3329 2916.99 70.9151 L2916.99 63.2184 Q2921.12 65.3654 2925.13 66.4591 Q2929.14 67.5124 2933.07 67.5124 Q2938.34 67.5124 2941.17 65.73 Q2944.01 63.9071 2944.01 60.6258 Q2944.01 57.5877 2941.94 55.9673 Q2939.92 54.3469 2932.99 52.8481 L2930.4 52.2405 Q2923.47 50.7821 2920.39 47.7845 Q2917.31 44.7463 2917.31 39.4801 Q2917.31 33.0797 2921.85 29.5959 Q2926.39 26.1121 2934.73 26.1121 Q2938.86 26.1121 2942.51 26.7198 Q2946.15 27.3274 2949.23 28.5427 Z" fill="#000000" fill-rule="nonzero" fill-opacity="1" /><path clip-path="url(#clip140)" d="M3002.34 48.0275 L3002.34 51.6733 L2968.07 51.6733 Q2968.56 59.3701 2972.69 63.421 Q2976.86 67.4314 2984.27 67.4314 Q2988.57 67.4314 2992.58 66.3781 Q2996.63 65.3249 3000.6 63.2184 L3000.6 70.267 Q2996.59 71.9684 2992.37 72.8596 Q2988.16 73.7508 2983.83 73.7508 Q2972.97 73.7508 2966.61 67.4314 Q2960.29 61.1119 2960.29 50.3365 Q2960.29 39.1965 2966.29 32.6746 Q2972.32 26.1121 2982.53 26.1121 Q2991.69 26.1121 2996.99 32.0264 Q3002.34 37.9003 3002.34 48.0275 M2994.89 45.84 Q2994.81 39.7232 2991.44 36.0774 Q2988.12 32.4315 2982.61 32.4315 Q2976.37 32.4315 2972.61 35.9558 Q2968.88 39.4801 2968.31 45.8805 L2994.89 45.84 Z" fill="#000000" fill-rule="nonzero" fill-opacity="1" /><path clip-path="url(#clip140)" d="M3043.5 28.5427 L3043.5 35.5912 Q3040.34 33.9709 3036.93 33.1607 Q3033.53 32.3505 3029.89 32.3505 Q3024.34 32.3505 3021.54 34.0519 Q3018.79 35.7533 3018.79 39.156 Q3018.79 41.7486 3020.77 43.2475 Q3022.76 44.7058 3028.75 46.0426 L3031.3 46.6097 Q3039.24 48.3111 3042.57 51.4303 Q3045.93 54.509 3045.93 60.0587 Q3045.93 66.3781 3040.9 70.0644 Q3035.92 73.7508 3027.17 73.7508 Q3023.53 73.7508 3019.56 73.0216 Q3015.63 72.3329 3011.25 70.9151 L3011.25 63.2184 Q3015.38 65.3654 3019.39 66.4591 Q3023.4 67.5124 3027.33 67.5124 Q3032.6 67.5124 3035.44 65.73 Q3038.27 63.9071 3038.27 60.6258 Q3038.27 57.5877 3036.21 55.9673 Q3034.18 54.3469 3027.25 52.8481 L3024.66 52.2405 Q3017.73 50.7821 3014.65 47.7845 Q3011.58 44.7463 3011.58 39.4801 Q3011.58 33.0797 3016.11 29.5959 Q3020.65 26.1121 3029 26.1121 Q3033.13 26.1121 3036.77 26.7198 Q3040.42 27.3274 3043.5 28.5427 Z" fill="#000000" fill-rule="nonzero" fill-opacity="1" /><path clip-path="url(#clip140)" d="M3085.14 34.9026 L3137.07 34.9026 L3137.07 41.7081 L3085.14 41.7081 L3085.14 34.9026 M3085.14 51.4303 L3137.07 51.4303 L3137.07 58.3168 L3085.14 58.3168 L3085.14 51.4303 Z" fill="#000000" fill-rule="nonzero" fill-opacity="1" /><path clip-path="url(#clip140)" d="M3182.52 65.6895 L3195.89 65.6895 L3195.89 19.5497 L3181.35 22.4663 L3181.35 15.0127 L3195.81 12.096 L3203.99 12.096 L3203.99 65.6895 L3217.36 65.6895 L3217.36 72.576 L3182.52 72.576 L3182.52 65.6895 Z" fill="#000000" fill-rule="nonzero" fill-opacity="1" /><path clip-path="url(#clip140)" d="M3240.94 65.6895 L3269.5 65.6895 L3269.5 72.576 L3231.09 72.576 L3231.09 65.6895 Q3235.75 60.8689 3243.77 52.7671 Q3251.84 44.6248 3253.9 42.2752 Q3257.83 37.8598 3259.37 34.8216 Q3260.95 31.7429 3260.95 28.7857 Q3260.95 23.9651 3257.55 20.927 Q3254.18 17.8888 3248.76 17.8888 Q3244.91 17.8888 3240.61 19.2256 Q3236.36 20.5624 3231.5 23.2765 L3231.5 15.0127 Q3236.44 13.0277 3240.74 12.015 Q3245.03 11.0023 3248.59 11.0023 Q3257.99 11.0023 3263.58 15.7013 Q3269.17 20.4004 3269.17 28.2591 Q3269.17 31.9859 3267.76 35.3482 Q3266.38 38.6699 3262.69 43.2069 Q3261.68 44.3817 3256.25 50.0125 Q3250.82 55.6027 3240.94 65.6895 Z" fill="#000000" fill-rule="nonzero" fill-opacity="1" /><path clip-path="url(#clip140)" d="M3304.17 17.4837 Q3297.85 17.4837 3294.65 23.7221 Q3291.49 29.92 3291.49 42.3968 Q3291.49 54.833 3294.65 61.0714 Q3297.85 67.2693 3304.17 67.2693 Q3310.53 67.2693 3313.69 61.0714 Q3316.89 54.833 3316.89 42.3968 Q3316.89 29.92 3313.69 23.7221 Q3310.53 17.4837 3304.17 17.4837 M3304.17 11.0023 Q3314.34 11.0023 3319.69 19.0636 Q3325.08 27.0843 3325.08 42.3968 Q3325.08 57.6687 3319.69 65.73 Q3314.34 73.7508 3304.17 73.7508 Q3294.01 73.7508 3288.62 65.73 Q3283.27 57.6687 3283.27 42.3968 Q3283.27 27.0843 3288.62 19.0636 Q3294.01 11.0023 3304.17 11.0023 Z" fill="#000000" fill-rule="nonzero" fill-opacity="1" /><path clip-path="url(#clip140)" d="M3340.31 62.2867 L3348.85 62.2867 L3348.85 69.2543 L3342.21 82.2172 L3336.99 82.2172 L3340.31 69.2543 L3340.31 62.2867 Z" fill="#000000" fill-rule="nonzero" fill-opacity="1" /><path clip-path="url(#clip140)" d="M3383.08 12.096 L3434.25 12.096 L3434.25 18.9825 L3412.78 18.9825 L3412.78 72.576 L3404.55 72.576 L3404.55 18.9825 L3383.08 18.9825 L3383.08 12.096 Z" fill="#000000" fill-rule="nonzero" fill-opacity="1" /><path clip-path="url(#clip140)" d="M3469.17 34.9026 L3521.1 34.9026 L3521.1 41.7081 L3469.17 41.7081 L3469.17 34.9026 M3469.17 51.4303 L3521.1 51.4303 L3521.1 58.3168 L3469.17 58.3168 L3469.17 51.4303 Z" fill="#000000" fill-rule="nonzero" fill-opacity="1" /><path clip-path="url(#clip140)" d="M3572.18 65.6895 L3600.74 65.6895 L3600.74 72.576 L3562.34 72.576 L3562.34 65.6895 Q3567 60.8689 3575.02 52.7671 Q3583.08 44.6248 3585.14 42.2752 Q3589.07 37.8598 3590.61 34.8216 Q3592.19 31.7429 3592.19 28.7857 Q3592.19 23.9651 3588.79 20.927 Q3585.43 17.8888 3580 17.8888 Q3576.15 17.8888 3571.86 19.2256 Q3567.6 20.5624 3562.74 23.2765 L3562.74 15.0127 Q3567.68 13.0277 3571.98 12.015 Q3576.27 11.0023 3579.84 11.0023 Q3589.24 11.0023 3594.83 15.7013 Q3600.42 20.4004 3600.42 28.2591 Q3600.42 31.9859 3599 35.3482 Q3597.62 38.6699 3593.93 43.2069 Q3592.92 44.3817 3587.49 50.0125 Q3582.07 55.6027 3572.18 65.6895 Z" fill="#000000" fill-rule="nonzero" fill-opacity="1" /><path clip-path="url(#clip140)" d="M3624.96 65.6895 L3653.52 65.6895 L3653.52 72.576 L3615.12 72.576 L3615.12 65.6895 Q3619.78 60.8689 3627.8 52.7671 Q3635.86 44.6248 3637.93 42.2752 Q3641.86 37.8598 3643.4 34.8216 Q3644.98 31.7429 3644.98 28.7857 Q3644.98 23.9651 3641.57 20.927 Q3638.21 17.8888 3632.78 17.8888 Q3628.93 17.8888 3624.64 19.2256 Q3620.39 20.5624 3615.53 23.2765 L3615.53 15.0127 Q3620.47 13.0277 3624.76 12.015 Q3629.06 11.0023 3632.62 11.0023 Q3642.02 11.0023 3647.61 15.7013 Q3653.2 20.4004 3653.2 28.2591 Q3653.2 31.9859 3651.78 35.3482 Q3650.4 38.6699 3646.72 43.2069 Q3645.7 44.3817 3640.28 50.0125 Q3634.85 55.6027 3624.96 65.6895 Z" fill="#000000" fill-rule="nonzero" fill-opacity="1" /><path clip-path="url(#clip140)" d="M3670.78 12.096 L3702.9 12.096 L3702.9 18.9825 L3678.27 18.9825 L3678.27 33.8088 Q3680.06 33.2012 3681.84 32.9176 Q3683.62 32.5936 3685.4 32.5936 Q3695.53 32.5936 3701.45 38.1433 Q3707.36 43.6931 3707.36 53.1722 Q3707.36 62.9348 3701.28 68.3631 Q3695.21 73.7508 3684.15 73.7508 Q3680.34 73.7508 3676.37 73.1026 Q3672.44 72.4545 3668.23 71.1582 L3668.23 62.9348 Q3671.87 64.9198 3675.76 65.892 Q3679.65 66.8642 3683.99 66.8642 Q3690.99 66.8642 3695.09 63.1779 Q3699.18 59.4916 3699.18 53.1722 Q3699.18 46.8528 3695.09 43.1664 Q3690.99 39.4801 3683.99 39.4801 Q3680.7 39.4801 3677.42 40.2093 Q3674.18 40.9384 3670.78 42.4778 L3670.78 12.096 Z" fill="#000000" fill-rule="nonzero" fill-opacity="1" /><path clip-path="url(#clip142)" d="M496.64 796.225 L496.64 1472.04 L847.171 1472.04 L847.171 796.225 L496.64 796.225 L496.64 796.225  Z" fill="#009af9" fill-rule="evenodd" fill-opacity="1"/>
<polyline clip-path="url(#clip142)" style="stroke:#000000; stroke-linecap:round; stroke-linejoin:round; stroke-width:4; stroke-opacity:1; fill:none" points="496.64,796.225 496.64,1472.04 847.171,1472.04 847.171,796.225 496.64,796.225 "/>
<path clip-path="url(#clip142)" d="M934.804 1246.77 L934.804 1472.04 L1285.34 1472.04 L1285.34 1246.77 L934.804 1246.77 L934.804 1246.77  Z" fill="#009af9" fill-rule="evenodd" fill-opacity="1"/>
<polyline clip-path="url(#clip142)" style="stroke:#000000; stroke-linecap:round; stroke-linejoin:round; stroke-width:4; stroke-opacity:1; fill:none" points="934.804,1246.77 934.804,1472.04 1285.34,1472.04 1285.34,1246.77 934.804,1246.77 "/>
<path clip-path="url(#clip142)" d="M1372.97 1021.5 L1372.97 1472.04 L1723.5 1472.04 L1723.5 1021.5 L1372.97 1021.5 L1372.97 1021.5  Z" fill="#009af9" fill-rule="evenodd" fill-opacity="1"/>
<polyline clip-path="url(#clip142)" style="stroke:#000000; stroke-linecap:round; stroke-linejoin:round; stroke-width:4; stroke-opacity:1; fill:none" points="1372.97,1021.5 1372.97,1472.04 1723.5,1472.04 1723.5,1021.5 1372.97,1021.5 "/>
<path clip-path="url(#clip142)" d="M1811.13 345.68 L1811.13 1472.04 L2161.66 1472.04 L2161.66 345.68 L1811.13 345.68 L1811.13 345.68  Z" fill="#009af9" fill-rule="evenodd" fill-opacity="1"/>
<polyline clip-path="url(#clip142)" style="stroke:#000000; stroke-linecap:round; stroke-linejoin:round; stroke-width:4; stroke-opacity:1; fill:none" points="1811.13,345.68 1811.13,1472.04 2161.66,1472.04 2161.66,345.68 1811.13,345.68 "/>
<path clip-path="url(#clip142)" d="M2249.3 120.408 L2249.3 1472.04 L2599.83 1472.04 L2599.83 120.408 L2249.3 120.408 L2249.3 120.408  Z" fill="#009af9" fill-rule="evenodd" fill-opacity="1"/>
<polyline clip-path="url(#clip142)" style="stroke:#000000; stroke-linecap:round; stroke-linejoin:round; stroke-width:4; stroke-opacity:1; fill:none" points="2249.3,120.408 2249.3,1472.04 2599.83,1472.04 2599.83,120.408 2249.3,120.408 "/>
<path clip-path="url(#clip142)" d="M2687.46 120.408 L2687.46 1472.04 L3037.99 1472.04 L3037.99 120.408 L2687.46 120.408 L2687.46 120.408  Z" fill="#009af9" fill-rule="evenodd" fill-opacity="1"/>
<polyline clip-path="url(#clip142)" style="stroke:#000000; stroke-linecap:round; stroke-linejoin:round; stroke-width:4; stroke-opacity:1; fill:none" points="2687.46,120.408 2687.46,1472.04 3037.99,1472.04 3037.99,120.408 2687.46,120.408 "/>
<path clip-path="url(#clip142)" d="M3125.62 1472.04 L3125.62 1472.04 L3476.16 1472.04 L3476.16 1472.04 L3125.62 1472.04 L3125.62 1472.04  Z" fill="#009af9" fill-rule="evenodd" fill-opacity="1"/>
<polyline clip-path="url(#clip142)" style="stroke:#000000; stroke-linecap:round; stroke-linejoin:round; stroke-width:4; stroke-opacity:1; fill:none" points="3125.62,1472.04 3125.62,1472.04 3476.16,1472.04 3125.62,1472.04 "/>
<path clip-path="url(#clip142)" d="M3563.79 120.408 L3563.79 1472.04 L3914.32 1472.04 L3914.32 120.408 L3563.79 120.408 L3563.79 120.408  Z" fill="#009af9" fill-rule="evenodd" fill-opacity="1"/>
<polyline clip-path="url(#clip142)" style="stroke:#000000; stroke-linecap:round; stroke-linejoin:round; stroke-width:4; stroke-opacity:1; fill:none" points="3563.79,120.408 3563.79,1472.04 3914.32,1472.04 3914.32,120.408 3563.79,120.408 "/>
<path clip-path="url(#clip142)" d="M4001.95 1472.04 L4001.95 1472.04 L4352.48 1472.04 L4352.48 1472.04 L4001.95 1472.04 L4001.95 1472.04  Z" fill="#009af9" fill-rule="evenodd" fill-opacity="1"/>
<polyline clip-path="url(#clip142)" style="stroke:#000000; stroke-linecap:round; stroke-linejoin:round; stroke-width:4; stroke-opacity:1; fill:none" points="4001.95,1472.04 4001.95,1472.04 4352.48,1472.04 4001.95,1472.04 "/>
<path clip-path="url(#clip142)" d="M4440.12 1472.04 L4440.12 1472.04 L4790.65 1472.04 L4790.65 1472.04 L4440.12 1472.04 L4440.12 1472.04  Z" fill="#009af9" fill-rule="evenodd" fill-opacity="1"/>
<polyline clip-path="url(#clip142)" style="stroke:#000000; stroke-linecap:round; stroke-linejoin:round; stroke-width:4; stroke-opacity:1; fill:none" points="4440.12,1472.04 4440.12,1472.04 4790.65,1472.04 4440.12,1472.04 "/>
<path clip-path="url(#clip142)" d="M4878.28 1246.77 L4878.28 1472.04 L5228.81 1472.04 L5228.81 1246.77 L4878.28 1246.77 L4878.28 1246.77  Z" fill="#009af9" fill-rule="evenodd" fill-opacity="1"/>
<polyline clip-path="url(#clip142)" style="stroke:#000000; stroke-linecap:round; stroke-linejoin:round; stroke-width:4; stroke-opacity:1; fill:none" points="4878.28,1246.77 4878.28,1472.04 5228.81,1472.04 5228.81,1246.77 4878.28,1246.77 "/>
<circle clip-path="url(#clip142)" style="fill:#009af9; stroke:none; fill-opacity:0" cx="671.905" cy="796.225" r="2"/>
<circle clip-path="url(#clip142)" style="fill:#009af9; stroke:none; fill-opacity:0" cx="1110.07" cy="1246.77" r="2"/>
<circle clip-path="url(#clip142)" style="fill:#009af9; stroke:none; fill-opacity:0" cx="1548.23" cy="1021.5" r="2"/>
<circle clip-path="url(#clip142)" style="fill:#009af9; stroke:none; fill-opacity:0" cx="1986.4" cy="345.68" r="2"/>
<circle clip-path="url(#clip142)" style="fill:#009af9; stroke:none; fill-opacity:0" cx="3300.89" cy="1472.04" r="2"/>
<circle clip-path="url(#clip142)" style="fill:#009af9; stroke:none; fill-opacity:0" cx="4177.22" cy="1472.04" r="2"/>
<circle clip-path="url(#clip142)" style="fill:#009af9; stroke:none; fill-opacity:0" cx="4615.38" cy="1472.04" r="2"/>
<circle clip-path="url(#clip142)" style="fill:#009af9; stroke:none; fill-opacity:0" cx="5053.55" cy="1246.77" r="2"/>
</svg>
