<?xml version="1.0" encoding="utf-8"?>
<svg xmlns="http://www.w3.org/2000/svg" xmlns:xlink="http://www.w3.org/1999/xlink" width="1400" height="400" viewBox="0 0 5600 1600">
<defs>
  <clipPath id="clip100">
    <rect x="0" y="0" width="5600" height="1600"/>
  </clipPath>
</defs>
<path clip-path="url(#clip100)" d="M0 1600 L5600 1600 L5600 0 L0 0  Z" fill="#ffffff" fill-rule="evenodd" fill-opacity="1"/>
<defs>
  <clipPath id="clip101">
    <rect x="1120" y="0" width="3921" height="1600"/>
  </clipPath>
</defs>
<path clip-path="url(#clip100)" d="M202.456 1470.37 L5521.26 1470.37 L5521.26 120.408 L202.456 120.408  Z" fill="#ffffff" fill-rule="evenodd" fill-opacity="1"/>
<defs>
  <clipPath id="clip102">
    <rect x="202" y="120" width="5320" height="1351"/>
  </clipPath>
</defs>
<polyline clip-path="url(#clip102)" style="stroke:#000000; stroke-linecap:round; stroke-linejoin:round; stroke-width:2; stroke-opacity:0.1; fill:none" points="993.285,1470.37 993.285,120.408 "/>
<polyline clip-path="url(#clip102)" style="stroke:#000000; stroke-linecap:round; stroke-linejoin:round; stroke-width:2; stroke-opacity:0.1; fill:none" points="2239,1470.37 2239,120.408 "/>
<polyline clip-path="url(#clip102)" style="stroke:#000000; stroke-linecap:round; stroke-linejoin:round; stroke-width:2; stroke-opacity:0.1; fill:none" points="3484.72,1470.37 3484.72,120.408 "/>
<polyline clip-path="url(#clip102)" style="stroke:#000000; stroke-linecap:round; stroke-linejoin:round; stroke-width:2; stroke-opacity:0.1; fill:none" points="4730.43,1470.37 4730.43,120.408 "/>
<polyline clip-path="url(#clip100)" style="stroke:#000000; stroke-linecap:round; stroke-linejoin:round; stroke-width:4; stroke-opacity:1; fill:none" points="202.456,1470.37 5521.26,1470.37 "/>
<polyline clip-path="url(#clip100)" style="stroke:#000000; stroke-linecap:round; stroke-linejoin:round; stroke-width:4; stroke-opacity:1; fill:none" points="993.285,1470.37 993.285,1451.47 "/>
<polyline clip-path="url(#clip100)" style="stroke:#000000; stroke-linecap:round; stroke-linejoin:round; stroke-width:4; stroke-opacity:1; fill:none" points="2239,1470.37 2239,1451.47 "/>
<polyline clip-path="url(#clip100)" style="stroke:#000000; stroke-linecap:round; stroke-linejoin:round; stroke-width:4; stroke-opacity:1; fill:none" points="3484.72,1470.37 3484.72,1451.47 "/>
<polyline clip-path="url(#clip100)" style="stroke:#000000; stroke-linecap:round; stroke-linejoin:round; stroke-width:4; stroke-opacity:1; fill:none" points="4730.43,1470.37 4730.43,1451.47 "/>
<path clip-path="url(#clip100)" d="M1009.97 1575.15 L1009.97 1554.75 L1014.89 1554.75 L1014.89 1582.18 L1009.97 1582.18 Q1006.52 1578.85 1000.74 1573.12 Q994.92 1567.36 993.242 1565.89 Q990.088 1563.08 987.918 1561.98 Q985.719 1560.85 983.606 1560.85 Q980.163 1560.85 977.993 1563.28 Q975.823 1565.69 975.823 1569.56 Q975.823 1572.31 976.778 1575.38 Q977.733 1578.42 979.671 1581.89 L973.769 1581.89 Q972.351 1578.36 971.627 1575.29 Q970.904 1572.22 970.904 1569.68 Q970.904 1562.97 974.26 1558.97 Q977.617 1554.98 983.23 1554.98 Q985.892 1554.98 988.294 1555.99 Q990.667 1556.98 993.907 1559.61 Q994.746 1560.33 998.768 1564.21 Q1002.76 1568.09 1009.97 1575.15 Z" fill="#000000" fill-rule="nonzero" fill-opacity="1" /><path clip-path="url(#clip100)" d="M994.37 1529.98 Q994.37 1534.15 996.598 1536.55 Q998.826 1538.92 1002.73 1538.92 Q1006.64 1538.92 1008.87 1536.55 Q1011.09 1534.15 1011.09 1529.98 Q1011.09 1525.81 1008.87 1523.41 Q1006.61 1521.01 1002.73 1521.01 Q998.826 1521.01 996.598 1523.41 Q994.37 1525.78 994.37 1529.98 M991.882 1535.82 Q990.956 1539.59 988.381 1541.7 Q985.805 1543.78 982.102 1543.78 Q976.922 1543.78 973.913 1540.11 Q970.904 1536.4 970.904 1529.98 Q970.904 1523.53 973.913 1519.85 Q976.922 1516.18 982.102 1516.18 Q985.805 1516.18 988.381 1518.29 Q990.956 1520.37 991.882 1524.11 Q992.866 1519.88 995.73 1517.54 Q998.595 1515.17 1002.73 1515.17 Q1009.01 1515.17 1012.37 1519.01 Q1015.72 1522.83 1015.72 1529.98 Q1015.72 1537.13 1012.37 1540.98 Q1009.01 1544.79 1002.73 1544.79 Q998.595 1544.79 995.73 1542.42 Q992.866 1540.05 991.882 1535.82 M982.652 1537.97 Q986.008 1537.97 987.889 1535.88 Q989.77 1533.77 989.77 1529.98 Q989.77 1526.22 987.889 1524.11 Q986.008 1521.96 982.652 1521.96 Q979.295 1521.96 977.414 1524.11 Q975.534 1526.22 975.534 1529.98 Q975.534 1533.77 977.414 1535.88 Q979.295 1537.97 982.652 1537.97 Z" fill="#000000" fill-rule="nonzero" fill-opacity="1" /><path clip-path="url(#clip100)" d="M2255.68 1575.03 L2255.68 1554.63 L2260.6 1554.63 L2260.6 1582.06 L2255.68 1582.06 Q2252.24 1578.74 2246.45 1573.01 Q2240.64 1567.25 2238.96 1565.77 Q2235.8 1562.97 2233.63 1561.87 Q2231.43 1560.74 2229.32 1560.74 Q2225.88 1560.74 2223.71 1563.17 Q2221.54 1565.57 2221.54 1569.45 Q2221.54 1572.2 2222.49 1575.26 Q2223.45 1578.3 2225.39 1581.77 L2219.48 1581.77 Q2218.07 1578.24 2217.34 1575.18 Q2216.62 1572.11 2216.62 1569.56 Q2216.62 1562.85 2219.98 1558.86 Q2223.33 1554.86 2228.95 1554.86 Q2231.61 1554.86 2234.01 1555.88 Q2236.38 1556.86 2239.62 1559.49 Q2240.46 1560.22 2244.48 1564.09 Q2248.48 1567.97 2255.68 1575.03 Z" fill="#000000" fill-rule="nonzero" fill-opacity="1" /><path clip-path="url(#clip100)" d="M2259.7 1542.19 L2254.38 1542.19 Q2255.42 1539.99 2255.97 1537.73 Q2256.52 1535.48 2256.52 1533.31 Q2256.52 1527.52 2252.64 1524.48 Q2248.74 1521.42 2240.81 1520.98 Q2243.3 1522.66 2244.63 1525.23 Q2245.96 1527.81 2245.96 1530.93 Q2245.96 1537.42 2242.05 1541.21 Q2238.12 1544.97 2231.32 1544.97 Q2224.66 1544.97 2220.64 1541.03 Q2216.62 1537.1 2216.62 1530.56 Q2216.62 1523.06 2222.38 1519.13 Q2228.11 1515.17 2239.04 1515.17 Q2249.26 1515.17 2255.36 1520.03 Q2261.44 1524.86 2261.44 1533.05 Q2261.44 1535.25 2261.01 1537.5 Q2260.57 1539.76 2259.7 1542.19 M2241.39 1530.56 Q2241.39 1526.62 2238.7 1524.34 Q2236.01 1522.02 2231.32 1522.02 Q2226.66 1522.02 2223.97 1524.34 Q2221.25 1526.62 2221.25 1530.56 Q2221.25 1534.49 2223.97 1536.81 Q2226.66 1539.09 2231.32 1539.09 Q2236.01 1539.09 2238.7 1536.81 Q2241.39 1534.49 2241.39 1530.56 Z" fill="#000000" fill-rule="nonzero" fill-opacity="1" /><path clip-path="url(#clip100)" d="M3483.02 1562.59 Q3483.92 1558.39 3486.76 1556.05 Q3489.59 1553.68 3493.76 1553.68 Q3500.15 1553.68 3503.65 1558.08 Q3507.15 1562.47 3507.15 1570.58 Q3507.15 1573.3 3506.6 1576.19 Q3506.08 1579.05 3505.01 1582.12 L3499.37 1582.12 Q3500.79 1579.69 3501.51 1576.8 Q3502.24 1573.9 3502.24 1570.75 Q3502.24 1565.25 3500.07 1562.39 Q3497.9 1559.49 3493.76 1559.49 Q3489.94 1559.49 3487.8 1562.18 Q3485.63 1564.85 3485.63 1569.62 L3485.63 1574.66 L3480.82 1574.66 L3480.82 1569.39 Q3480.82 1565.08 3479.12 1562.79 Q3477.38 1560.51 3474.14 1560.51 Q3470.81 1560.51 3469.05 1562.88 Q3467.25 1565.22 3467.25 1569.62 Q3467.25 1572.02 3467.77 1574.77 Q3468.29 1577.52 3469.39 1580.82 L3464.19 1580.82 Q3463.26 1577.49 3462.8 1574.6 Q3462.33 1571.68 3462.33 1569.1 Q3462.33 1562.44 3465.37 1558.57 Q3468.38 1554.69 3473.53 1554.69 Q3477.12 1554.69 3479.61 1556.74 Q3482.07 1558.8 3483.02 1562.59 Z" fill="#000000" fill-rule="nonzero" fill-opacity="1" /><path clip-path="url(#clip100)" d="M3466.96 1530.1 Q3466.96 1534.61 3471.42 1536.9 Q3475.85 1539.15 3484.76 1539.15 Q3493.64 1539.15 3498.1 1536.9 Q3502.52 1534.61 3502.52 1530.1 Q3502.52 1525.55 3498.1 1523.3 Q3493.64 1521.01 3484.76 1521.01 Q3475.85 1521.01 3471.42 1523.3 Q3466.96 1525.55 3466.96 1530.1 M3462.33 1530.1 Q3462.33 1522.83 3468.09 1519.01 Q3473.82 1515.17 3484.76 1515.17 Q3495.67 1515.17 3501.43 1519.01 Q3507.15 1522.83 3507.15 1530.1 Q3507.15 1537.36 3501.43 1541.21 Q3495.67 1545.03 3484.76 1545.03 Q3473.82 1545.03 3468.09 1541.21 Q3462.33 1537.36 3462.33 1530.1 Z" fill="#000000" fill-rule="nonzero" fill-opacity="1" /><path clip-path="url(#clip100)" d="M4728.74 1561.06 Q4729.63 1556.86 4732.47 1554.52 Q4735.31 1552.14 4739.47 1552.14 Q4745.87 1552.14 4749.37 1556.54 Q4752.87 1560.94 4752.87 1569.04 Q4752.87 1571.76 4752.32 1574.66 Q4751.8 1577.52 4750.73 1580.59 L4745.09 1580.59 Q4746.5 1578.16 4747.23 1575.26 Q4747.95 1572.37 4747.95 1569.22 Q4747.95 1563.72 4745.78 1560.85 Q4743.61 1557.96 4739.47 1557.96 Q4735.65 1557.96 4733.51 1560.65 Q4731.34 1563.31 4731.34 1568.09 L4731.34 1573.12 L4726.54 1573.12 L4726.54 1567.86 Q4726.54 1563.54 4724.83 1561.26 Q4723.1 1558.97 4719.85 1558.97 Q4716.53 1558.97 4714.76 1561.35 Q4712.97 1563.69 4712.97 1568.09 Q4712.97 1570.49 4713.49 1573.24 Q4714.01 1575.99 4715.11 1579.29 L4709.9 1579.29 Q4708.97 1575.96 4708.51 1573.06 Q4708.05 1570.14 4708.05 1567.57 Q4708.05 1560.91 4711.09 1557.03 Q4714.1 1553.16 4719.25 1553.16 Q4722.83 1553.16 4725.32 1555.21 Q4727.78 1557.27 4728.74 1561.06 Z" fill="#000000" fill-rule="nonzero" fill-opacity="1" /><path clip-path="url(#clip100)" d="M4747.11 1540.05 L4747.11 1530.5 L4714.15 1530.5 L4716.24 1540.89 L4710.91 1540.89 L4708.83 1530.56 L4708.83 1524.71 L4747.11 1524.71 L4747.11 1515.17 L4752.03 1515.17 L4752.03 1540.05 L4747.11 1540.05 Z" fill="#000000" fill-rule="nonzero" fill-opacity="1" /><polyline clip-path="url(#clip102)" style="stroke:#000000; stroke-linecap:round; stroke-linejoin:round; stroke-width:2; stroke-opacity:0.1; fill:none" points="202.456,1470.37 5521.26,1470.37 "/>
<polyline clip-path="url(#clip102)" style="stroke:#000000; stroke-linecap:round; stroke-linejoin:round; stroke-width:2; stroke-opacity:0.1; fill:none" points="202.456,1200.37 5521.26,1200.37 "/>
<polyline clip-path="url(#clip102)" style="stroke:#000000; stroke-linecap:round; stroke-linejoin:round; stroke-width:2; stroke-opacity:0.1; fill:none" points="202.456,930.382 5521.26,930.382 "/>
<polyline clip-path="url(#clip102)" style="stroke:#000000; stroke-linecap:round; stroke-linejoin:round; stroke-width:2; stroke-opacity:0.1; fill:none" points="202.456,660.391 5521.26,660.391 "/>
<polyline clip-path="url(#clip102)" style="stroke:#000000; stroke-linecap:round; stroke-linejoin:round; stroke-width:2; stroke-opacity:0.1; fill:none" points="202.456,390.4 5521.26,390.4 "/>
<polyline clip-path="url(#clip102)" style="stroke:#000000; stroke-linecap:round; stroke-linejoin:round; stroke-width:2; stroke-opacity:0.1; fill:none" points="202.456,120.408 5521.26,120.408 "/>
<polyline clip-path="url(#clip100)" style="stroke:#000000; stroke-linecap:round; stroke-linejoin:round; stroke-width:4; stroke-opacity:1; fill:none" points="202.456,1470.37 202.456,120.408 "/>
<polyline clip-path="url(#clip100)" style="stroke:#000000; stroke-linecap:round; stroke-linejoin:round; stroke-width:4; stroke-opacity:1; fill:none" points="202.456,1470.37 221.353,1470.37 "/>
<polyline clip-path="url(#clip100)" style="stroke:#000000; stroke-linecap:round; stroke-linejoin:round; stroke-width:4; stroke-opacity:1; fill:none" points="202.456,1200.37 221.353,1200.37 "/>
<polyline clip-path="url(#clip100)" style="stroke:#000000; stroke-linecap:round; stroke-linejoin:round; stroke-width:4; stroke-opacity:1; fill:none" points="202.456,930.382 221.353,930.382 "/>
<polyline clip-path="url(#clip100)" style="stroke:#000000; stroke-linecap:round; stroke-linejoin:round; stroke-width:4; stroke-opacity:1; fill:none" points="202.456,660.391 221.353,660.391 "/>
<polyline clip-path="url(#clip100)" style="stroke:#000000; stroke-linecap:round; stroke-linejoin:round; stroke-width:4; stroke-opacity:1; fill:none" points="202.456,390.4 221.353,390.4 "/>
<polyline clip-path="url(#clip100)" style="stroke:#000000; stroke-linecap:round; stroke-linejoin:round; stroke-width:4; stroke-opacity:1; fill:none" points="202.456,120.408 221.353,120.408 "/>
<path clip-path="url(#clip100)" d="M106.511 1456.16 Q102.9 1456.16 101.071 1459.73 Q99.2658 1463.27 99.2658 1470.4 Q99.2658 1477.51 101.071 1481.07 Q102.9 1484.61 106.511 1484.61 Q110.145 1484.61 111.951 1481.07 Q113.78 1477.51 113.78 1470.4 Q113.78 1463.27 111.951 1459.73 Q110.145 1456.16 106.511 1456.16 M106.511 1452.46 Q112.321 1452.46 115.377 1457.07 Q118.456 1461.65 118.456 1470.4 Q118.456 1479.13 115.377 1483.73 Q112.321 1488.32 106.511 1488.32 Q100.701 1488.32 97.6223 1483.73 Q94.5667 1479.13 94.5667 1470.4 Q94.5667 1461.65 97.6223 1457.07 Q100.701 1452.46 106.511 1452.46 Z" fill="#000000" fill-rule="nonzero" fill-opacity="1" /><path clip-path="url(#clip100)" d="M102.136 1213.72 L118.456 1213.72 L118.456 1217.65 L96.5112 1217.65 L96.5112 1213.72 Q99.1732 1210.96 103.757 1206.33 Q108.363 1201.68 109.544 1200.34 Q111.789 1197.82 112.668 1196.08 Q113.571 1194.32 113.571 1192.63 Q113.571 1189.88 111.627 1188.14 Q109.706 1186.4 106.604 1186.4 Q104.405 1186.4 101.951 1187.17 Q99.5204 1187.93 96.7427 1189.48 L96.7427 1184.76 Q99.5667 1183.63 102.02 1183.05 Q104.474 1182.47 106.511 1182.47 Q111.881 1182.47 115.076 1185.15 Q118.27 1187.84 118.27 1192.33 Q118.27 1194.46 117.46 1196.38 Q116.673 1198.28 114.567 1200.87 Q113.988 1201.54 110.886 1204.76 Q107.784 1207.95 102.136 1213.72 Z" fill="#000000" fill-rule="nonzero" fill-opacity="1" /><path clip-path="url(#clip100)" d="M108.872 917.176 L97.0667 935.625 L108.872 935.625 L108.872 917.176 M107.645 913.102 L113.525 913.102 L113.525 935.625 L118.456 935.625 L118.456 939.514 L113.525 939.514 L113.525 947.662 L108.872 947.662 L108.872 939.514 L93.2705 939.514 L93.2705 935 L107.645 913.102 Z" fill="#000000" fill-rule="nonzero" fill-opacity="1" /><path clip-path="url(#clip100)" d="M106.928 658.528 Q103.78 658.528 101.928 660.68 Q100.099 662.833 100.099 666.583 Q100.099 670.31 101.928 672.486 Q103.78 674.639 106.928 674.639 Q110.076 674.639 111.905 672.486 Q113.756 670.31 113.756 666.583 Q113.756 662.833 111.905 660.68 Q110.076 658.528 106.928 658.528 M116.21 643.875 L116.21 648.134 Q114.451 647.301 112.645 646.861 Q110.863 646.421 109.104 646.421 Q104.474 646.421 102.02 649.546 Q99.5899 652.671 99.2426 658.99 Q100.608 656.977 102.669 655.912 Q104.729 654.824 107.206 654.824 Q112.414 654.824 115.423 657.995 Q118.456 661.143 118.456 666.583 Q118.456 671.907 115.307 675.125 Q112.159 678.342 106.928 678.342 Q100.932 678.342 97.7612 673.759 Q94.5899 669.152 94.5899 660.426 Q94.5899 652.231 98.4788 647.37 Q102.368 642.486 108.919 642.486 Q110.678 642.486 112.46 642.833 Q114.266 643.18 116.21 643.875 Z" fill="#000000" fill-rule="nonzero" fill-opacity="1" /><path clip-path="url(#clip100)" d="M106.604 391.268 Q103.27 391.268 101.349 393.05 Q99.451 394.832 99.451 397.957 Q99.451 401.082 101.349 402.865 Q103.27 404.647 106.604 404.647 Q109.937 404.647 111.858 402.865 Q113.78 401.059 113.78 397.957 Q113.78 394.832 111.858 393.05 Q109.96 391.268 106.604 391.268 M101.928 389.277 Q98.9186 388.536 97.2288 386.476 Q95.5621 384.416 95.5621 381.453 Q95.5621 377.309 98.5019 374.902 Q101.465 372.495 106.604 372.495 Q111.766 372.495 114.706 374.902 Q117.645 377.309 117.645 381.453 Q117.645 384.416 115.956 386.476 Q114.289 388.536 111.303 389.277 Q114.682 390.064 116.557 392.356 Q118.456 394.647 118.456 397.957 Q118.456 402.981 115.377 405.666 Q112.321 408.351 106.604 408.351 Q100.886 408.351 97.8075 405.666 Q94.7519 402.981 94.7519 397.957 Q94.7519 394.647 96.6501 392.356 Q98.5482 390.064 101.928 389.277 M100.215 381.893 Q100.215 384.578 101.882 386.082 Q103.571 387.587 106.604 387.587 Q109.613 387.587 111.303 386.082 Q113.016 384.578 113.016 381.893 Q113.016 379.207 111.303 377.703 Q109.613 376.198 106.604 376.198 Q103.571 376.198 101.882 377.703 Q100.215 379.207 100.215 381.893 Z" fill="#000000" fill-rule="nonzero" fill-opacity="1" /><path clip-path="url(#clip100)" d="M67.1595 133.753 L74.7983 133.753 L74.7983 107.387 L66.4882 109.054 L66.4882 104.795 L74.752 103.128 L79.4279 103.128 L79.4279 133.753 L87.0668 133.753 L87.0668 137.688 L67.1595 137.688 L67.1595 133.753 Z" fill="#000000" fill-rule="nonzero" fill-opacity="1" /><path clip-path="url(#clip100)" d="M106.511 106.207 Q102.9 106.207 101.071 109.772 Q99.2658 113.313 99.2658 120.443 Q99.2658 127.549 101.071 131.114 Q102.9 134.656 106.511 134.656 Q110.145 134.656 111.951 131.114 Q113.78 127.549 113.78 120.443 Q113.78 113.313 111.951 109.772 Q110.145 106.207 106.511 106.207 M106.511 102.503 Q112.321 102.503 115.377 107.11 Q118.456 111.693 118.456 120.443 Q118.456 129.17 115.377 133.776 Q112.321 138.359 106.511 138.359 Q100.701 138.359 97.6223 133.776 Q94.5667 129.17 94.5667 120.443 Q94.5667 111.693 97.6223 107.11 Q100.701 102.503 106.511 102.503 Z" fill="#000000" fill-rule="nonzero" fill-opacity="1" /><path clip-path="url(#clip100)" d="M2042.74 12.096 L2080.99 12.096 L2080.99 18.9825 L2050.93 18.9825 L2050.93 36.8875 L2079.73 36.8875 L2079.73 43.7741 L2050.93 43.7741 L2050.93 65.6895 L2081.71 65.6895 L2081.71 72.576 L2042.74 72.576 L2042.74 12.096 Z" fill="#000000" fill-rule="nonzero" fill-opacity="1" /><path clip-path="url(#clip100)" d="M2158.92 45.1919 L2158.92 72.576 L2151.47 72.576 L2151.47 45.4349 Q2151.47 38.994 2148.96 35.7938 Q2146.45 32.5936 2141.42 32.5936 Q2135.39 32.5936 2131.9 36.4419 Q2128.42 40.2903 2128.42 46.9338 L2128.42 72.576 L2120.93 72.576 L2120.93 9.54393 L2128.42 9.54393 L2128.42 34.2544 Q2131.09 30.163 2134.7 28.1376 Q2138.35 26.1121 2143.09 26.1121 Q2150.9 26.1121 2154.91 30.9732 Q2158.92 35.7938 2158.92 45.1919 Z" fill="#000000" fill-rule="nonzero" fill-opacity="1" /><path clip-path="url(#clip100)" d="M2173.79 27.2059 L2181.25 27.2059 L2181.25 72.576 L2173.79 72.576 L2173.79 27.2059 M2173.79 9.54393 L2181.25 9.54393 L2181.25 18.9825 L2173.79 18.9825 L2173.79 9.54393 Z" fill="#000000" fill-rule="nonzero" fill-opacity="1" /><path clip-path="url(#clip100)" d="M2225.76 28.5427 L2225.76 35.5912 Q2222.6 33.9709 2219.2 33.1607 Q2215.8 32.3505 2212.15 32.3505 Q2206.6 32.3505 2203.81 34.0519 Q2201.05 35.7533 2201.05 39.156 Q2201.05 41.7486 2203.04 43.2475 Q2205.02 44.7058 2211.02 46.0426 L2213.57 46.6097 Q2221.51 48.3111 2224.83 51.4303 Q2228.19 54.509 2228.19 60.0587 Q2228.19 66.3781 2223.17 70.0644 Q2218.19 73.7508 2209.44 73.7508 Q2205.79 73.7508 2201.82 73.0216 Q2197.89 72.3329 2193.52 70.9151 L2193.52 63.2184 Q2197.65 65.3654 2201.66 66.4591 Q2205.67 67.5124 2209.6 67.5124 Q2214.87 67.5124 2217.7 65.73 Q2220.54 63.9071 2220.54 60.6258 Q2220.54 57.5877 2218.47 55.9673 Q2216.45 54.3469 2209.52 52.8481 L2206.93 52.2405 Q2200 50.7821 2196.92 47.7845 Q2193.84 44.7463 2193.84 39.4801 Q2193.84 33.0797 2198.38 29.5959 Q2202.92 26.1121 2211.26 26.1121 Q2215.39 26.1121 2219.04 26.7198 Q2222.69 27.3274 2225.76 28.5427 Z" fill="#000000" fill-rule="nonzero" fill-opacity="1" /><path clip-path="url(#clip100)" d="M2247.44 14.324 L2247.44 27.2059 L2262.79 27.2059 L2262.79 32.9987 L2247.44 32.9987 L2247.44 57.6282 Q2247.44 63.1779 2248.94 64.7578 Q2250.47 66.3376 2255.13 66.3376 L2262.79 66.3376 L2262.79 72.576 L2255.13 72.576 Q2246.51 72.576 2243.22 69.3758 Q2239.94 66.1351 2239.94 57.6282 L2239.94 32.9987 L2234.47 32.9987 L2234.47 27.2059 L2239.94 27.2059 L2239.94 14.324 L2247.44 14.324 Z" fill="#000000" fill-rule="nonzero" fill-opacity="1" /><path clip-path="url(#clip100)" d="M2290.17 32.4315 Q2284.18 32.4315 2280.69 37.1306 Q2277.21 41.7891 2277.21 49.9314 Q2277.21 58.0738 2280.65 62.7728 Q2284.14 67.4314 2290.17 67.4314 Q2296.13 67.4314 2299.61 62.7323 Q2303.1 58.0333 2303.1 49.9314 Q2303.1 41.8701 2299.61 37.1711 Q2296.13 32.4315 2290.17 32.4315 M2290.17 26.1121 Q2299.9 26.1121 2305.45 32.4315 Q2311 38.7509 2311 49.9314 Q2311 61.0714 2305.45 67.4314 Q2299.9 73.7508 2290.17 73.7508 Q2280.41 73.7508 2274.86 67.4314 Q2269.35 61.0714 2269.35 49.9314 Q2269.35 38.7509 2274.86 32.4315 Q2280.41 26.1121 2290.17 26.1121 Z" fill="#000000" fill-rule="nonzero" fill-opacity="1" /><path clip-path="url(#clip100)" d="M2353.21 49.3643 Q2353.21 41.2625 2349.84 36.8065 Q2346.52 32.3505 2340.49 32.3505 Q2334.49 32.3505 2331.13 36.8065 Q2327.81 41.2625 2327.81 49.3643 Q2327.81 57.4256 2331.13 61.8816 Q2334.49 66.3376 2340.49 66.3376 Q2346.52 66.3376 2349.84 61.8816 Q2353.21 57.4256 2353.21 49.3643 M2360.66 66.9452 Q2360.66 78.5308 2355.51 84.1616 Q2350.37 89.8329 2339.76 89.8329 Q2335.83 89.8329 2332.34 89.2252 Q2328.86 88.6581 2325.58 87.4428 L2325.58 80.1917 Q2328.86 81.9741 2332.06 82.8248 Q2335.26 83.6755 2338.58 83.6755 Q2345.91 83.6755 2349.56 79.8271 Q2353.21 76.0193 2353.21 68.282 L2353.21 64.5957 Q2350.9 68.6061 2347.29 70.5911 Q2343.69 72.576 2338.66 72.576 Q2330.32 72.576 2325.21 66.2161 Q2320.11 59.8562 2320.11 49.3643 Q2320.11 38.832 2325.21 32.472 Q2330.32 26.1121 2338.66 26.1121 Q2343.69 26.1121 2347.29 28.0971 Q2350.9 30.082 2353.21 34.0924 L2353.21 27.2059 L2360.66 27.2059 L2360.66 66.9452 Z" fill="#000000" fill-rule="nonzero" fill-opacity="1" /><path clip-path="url(#clip100)" d="M2402.3 34.1734 Q2401.05 33.4443 2399.55 33.1202 Q2398.09 32.7556 2396.31 32.7556 Q2389.99 32.7556 2386.59 36.8875 Q2383.22 40.9789 2383.22 48.6757 L2383.22 72.576 L2375.73 72.576 L2375.73 27.2059 L2383.22 27.2059 L2383.22 34.2544 Q2385.57 30.1225 2389.34 28.1376 Q2393.11 26.1121 2398.49 26.1121 Q2399.26 26.1121 2400.2 26.2337 Q2401.13 26.3147 2402.26 26.5172 L2402.3 34.1734 Z" fill="#000000" fill-rule="nonzero" fill-opacity="1" /><path clip-path="url(#clip100)" d="M2430.74 49.7694 Q2421.71 49.7694 2418.22 51.8354 Q2414.74 53.9013 2414.74 58.8839 Q2414.74 62.8538 2417.33 65.2034 Q2419.96 67.5124 2424.46 67.5124 Q2430.66 67.5124 2434.39 63.1374 Q2438.15 58.7219 2438.15 51.4303 L2438.15 49.7694 L2430.74 49.7694 M2445.61 46.6907 L2445.61 72.576 L2438.15 72.576 L2438.15 65.6895 Q2435.6 69.8214 2431.79 71.8063 Q2427.99 73.7508 2422.48 73.7508 Q2415.51 73.7508 2411.38 69.8619 Q2407.29 65.9325 2407.29 59.3701 Q2407.29 51.7138 2412.39 47.825 Q2417.53 43.9361 2427.7 43.9361 L2438.15 43.9361 L2438.15 43.2069 Q2438.15 38.0623 2434.75 35.2672 Q2431.39 32.4315 2425.27 32.4315 Q2421.38 32.4315 2417.7 33.3632 Q2414.01 34.295 2410.61 36.1584 L2410.61 29.2718 Q2414.7 27.692 2418.55 26.9223 Q2422.4 26.1121 2426.04 26.1121 Q2435.88 26.1121 2440.75 31.2163 Q2445.61 36.3204 2445.61 46.6907 Z" fill="#000000" fill-rule="nonzero" fill-opacity="1" /><path clip-path="url(#clip100)" d="M2496.28 35.9153 Q2499.08 30.8922 2502.97 28.5022 Q2506.86 26.1121 2512.12 26.1121 Q2519.21 26.1121 2523.06 31.0947 Q2526.91 36.0368 2526.91 45.1919 L2526.91 72.576 L2519.41 72.576 L2519.41 45.4349 Q2519.41 38.913 2517.11 35.7533 Q2514.8 32.5936 2510.06 32.5936 Q2504.26 32.5936 2500.9 36.4419 Q2497.54 40.2903 2497.54 46.9338 L2497.54 72.576 L2490.05 72.576 L2490.05 45.4349 Q2490.05 38.8725 2487.74 35.7533 Q2485.43 32.5936 2480.61 32.5936 Q2474.9 32.5936 2471.53 36.4824 Q2468.17 40.3308 2468.17 46.9338 L2468.17 72.576 L2460.68 72.576 L2460.68 27.2059 L2468.17 27.2059 L2468.17 34.2544 Q2470.72 30.082 2474.29 28.0971 Q2477.85 26.1121 2482.75 26.1121 Q2487.7 26.1121 2491.14 28.6237 Q2494.62 31.1352 2496.28 35.9153 Z" fill="#000000" fill-rule="nonzero" fill-opacity="1" /><path clip-path="url(#clip100)" d="M2605.86 45.1919 L2605.86 72.576 L2598.41 72.576 L2598.41 45.4349 Q2598.41 38.994 2595.9 35.7938 Q2593.38 32.5936 2588.36 32.5936 Q2582.33 32.5936 2578.84 36.4419 Q2575.36 40.2903 2575.36 46.9338 L2575.36 72.576 L2567.86 72.576 L2567.86 27.2059 L2575.36 27.2059 L2575.36 34.2544 Q2578.03 30.163 2581.64 28.1376 Q2585.28 26.1121 2590.02 26.1121 Q2597.84 26.1121 2601.85 30.9732 Q2605.86 35.7938 2605.86 45.1919 Z" fill="#000000" fill-rule="nonzero" fill-opacity="1" /><path clip-path="url(#clip100)" d="M2648.07 34.9026 L2700 34.9026 L2700 41.7081 L2648.07 41.7081 L2648.07 34.9026 M2648.07 51.4303 L2700 51.4303 L2700 58.3168 L2648.07 58.3168 L2648.07 51.4303 Z" fill="#000000" fill-rule="nonzero" fill-opacity="1" /><path clip-path="url(#clip100)" d="M2766.52 19.2256 L2745.86 51.5113 L2766.52 51.5113 L2766.52 19.2256 M2764.37 12.096 L2774.66 12.096 L2774.66 51.5113 L2783.29 51.5113 L2783.29 58.3168 L2774.66 58.3168 L2774.66 72.576 L2766.52 72.576 L2766.52 58.3168 L2739.22 58.3168 L2739.22 50.4176 L2764.37 12.096 Z" fill="#000000" fill-rule="nonzero" fill-opacity="1" /><path clip-path="url(#clip100)" d="M2797.67 62.2867 L2806.22 62.2867 L2806.22 69.2543 L2799.58 82.2172 L2794.35 82.2172 L2797.67 69.2543 L2797.67 62.2867 Z" fill="#000000" fill-rule="nonzero" fill-opacity="1" /><path clip-path="url(#clip100)" d="M2881.16 28.9478 L2881.16 35.9153 Q2878 34.1734 2874.8 33.3227 Q2871.64 32.4315 2868.4 32.4315 Q2861.15 32.4315 2857.14 37.0496 Q2853.13 41.6271 2853.13 49.9314 Q2853.13 58.2358 2857.14 62.8538 Q2861.15 67.4314 2868.4 67.4314 Q2871.64 67.4314 2874.8 66.5807 Q2878 65.6895 2881.16 63.9476 L2881.16 70.8341 Q2878.04 72.2924 2874.68 73.0216 Q2871.36 73.7508 2867.59 73.7508 Q2857.34 73.7508 2851.31 67.3098 Q2845.27 60.8689 2845.27 49.9314 Q2845.27 38.832 2851.35 32.472 Q2857.46 26.1121 2868.08 26.1121 Q2871.52 26.1121 2874.8 26.8413 Q2878.08 27.5299 2881.16 28.9478 Z" fill="#000000" fill-rule="nonzero" fill-opacity="1" /><path clip-path="url(#clip100)" d="M2914.74 49.7694 Q2905.71 49.7694 2902.22 51.8354 Q2898.74 53.9013 2898.74 58.8839 Q2898.74 62.8538 2901.33 65.2034 Q2903.97 67.5124 2908.46 67.5124 Q2914.66 67.5124 2918.39 63.1374 Q2922.16 58.7219 2922.16 51.4303 L2922.16 49.7694 L2914.74 49.7694 M2929.61 46.6907 L2929.61 72.576 L2922.16 72.576 L2922.16 65.6895 Q2919.6 69.8214 2915.8 71.8063 Q2911.99 73.7508 2906.48 73.7508 Q2899.51 73.7508 2895.38 69.8619 Q2891.29 65.9325 2891.29 59.3701 Q2891.29 51.7138 2896.39 47.825 Q2901.54 43.9361 2911.7 43.9361 L2922.16 43.9361 L2922.16 43.2069 Q2922.16 38.0623 2918.75 35.2672 Q2915.39 32.4315 2909.27 32.4315 Q2905.38 32.4315 2901.7 33.3632 Q2898.01 34.295 2894.61 36.1584 L2894.61 29.2718 Q2898.7 27.692 2902.55 26.9223 Q2906.4 26.1121 2910.04 26.1121 Q2919.89 26.1121 2924.75 31.2163 Q2929.61 36.3204 2929.61 46.6907 Z" fill="#000000" fill-rule="nonzero" fill-opacity="1" /><path clip-path="url(#clip100)" d="M2973.89 28.5427 L2973.89 35.5912 Q2970.73 33.9709 2967.32 33.1607 Q2963.92 32.3505 2960.27 32.3505 Q2954.72 32.3505 2951.93 34.0519 Q2949.17 35.7533 2949.17 39.156 Q2949.17 41.7486 2951.16 43.2475 Q2953.14 44.7058 2959.14 46.0426 L2961.69 46.6097 Q2969.63 48.3111 2972.95 51.4303 Q2976.32 54.509 2976.32 60.0587 Q2976.32 66.3781 2971.29 70.0644 Q2966.31 73.7508 2957.56 73.7508 Q2953.91 73.7508 2949.94 73.0216 Q2946.02 72.3329 2941.64 70.9151 L2941.64 63.2184 Q2945.77 65.3654 2949.78 66.4591 Q2953.79 67.5124 2957.72 67.5124 Q2962.99 67.5124 2965.82 65.73 Q2968.66 63.9071 2968.66 60.6258 Q2968.66 57.5877 2966.59 55.9673 Q2964.57 54.3469 2957.64 52.8481 L2955.05 52.2405 Q2948.12 50.7821 2945.04 47.7845 Q2941.96 44.7463 2941.96 39.4801 Q2941.96 33.0797 2946.5 29.5959 Q2951.04 26.1121 2959.38 26.1121 Q2963.52 26.1121 2967.16 26.7198 Q2970.81 27.3274 2973.89 28.5427 Z" fill="#000000" fill-rule="nonzero" fill-opacity="1" /><path clip-path="url(#clip100)" d="M3026.99 48.0275 L3026.99 51.6733 L2992.72 51.6733 Q2993.21 59.3701 2997.34 63.421 Q3001.51 67.4314 3008.93 67.4314 Q3013.22 67.4314 3017.23 66.3781 Q3021.28 65.3249 3025.25 63.2184 L3025.25 70.267 Q3021.24 71.9684 3017.03 72.8596 Q3012.81 73.7508 3008.48 73.7508 Q2997.62 73.7508 2991.26 67.4314 Q2984.94 61.1119 2984.94 50.3365 Q2984.94 39.1965 2990.94 32.6746 Q2996.98 26.1121 3007.18 26.1121 Q3016.34 26.1121 3021.65 32.0264 Q3026.99 37.9003 3026.99 48.0275 M3019.54 45.84 Q3019.46 39.7232 3016.1 36.0774 Q3012.77 32.4315 3007.26 32.4315 Q3001.03 32.4315 2997.26 35.9558 Q2993.53 39.4801 2992.97 45.8805 L3019.54 45.84 Z" fill="#000000" fill-rule="nonzero" fill-opacity="1" /><path clip-path="url(#clip100)" d="M3068.15 28.5427 L3068.15 35.5912 Q3064.99 33.9709 3061.59 33.1607 Q3058.18 32.3505 3054.54 32.3505 Q3048.99 32.3505 3046.19 34.0519 Q3043.44 35.7533 3043.44 39.156 Q3043.44 41.7486 3045.42 43.2475 Q3047.41 44.7058 3053.4 46.0426 L3055.96 46.6097 Q3063.9 48.3111 3067.22 51.4303 Q3070.58 54.509 3070.58 60.0587 Q3070.58 66.3781 3065.56 70.0644 Q3060.57 73.7508 3051.82 73.7508 Q3048.18 73.7508 3044.21 73.0216 Q3040.28 72.3329 3035.9 70.9151 L3035.9 63.2184 Q3040.04 65.3654 3044.05 66.4591 Q3048.06 67.5124 3051.99 67.5124 Q3057.25 67.5124 3060.09 65.73 Q3062.92 63.9071 3062.92 60.6258 Q3062.92 57.5877 3060.86 55.9673 Q3058.83 54.3469 3051.91 52.8481 L3049.31 52.2405 Q3042.39 50.7821 3039.31 47.7845 Q3036.23 44.7463 3036.23 39.4801 Q3036.23 33.0797 3040.77 29.5959 Q3045.3 26.1121 3053.65 26.1121 Q3057.78 26.1121 3061.43 26.7198 Q3065.07 27.3274 3068.15 28.5427 Z" fill="#000000" fill-rule="nonzero" fill-opacity="1" /><path clip-path="url(#clip100)" d="M3109.79 34.9026 L3161.73 34.9026 L3161.73 41.7081 L3109.79 41.7081 L3109.79 34.9026 M3109.79 51.4303 L3161.73 51.4303 L3161.73 58.3168 L3109.79 58.3168 L3109.79 51.4303 Z" fill="#000000" fill-rule="nonzero" fill-opacity="1" /><path clip-path="url(#clip100)" d="M3212.81 65.6895 L3241.37 65.6895 L3241.37 72.576 L3202.96 72.576 L3202.96 65.6895 Q3207.62 60.8689 3215.64 52.7671 Q3223.7 44.6248 3225.77 42.2752 Q3229.7 37.8598 3231.24 34.8216 Q3232.82 31.7429 3232.82 28.7857 Q3232.82 23.9651 3229.42 20.927 Q3226.05 17.8888 3220.63 17.8888 Q3216.78 17.8888 3212.48 19.2256 Q3208.23 20.5624 3203.37 23.2765 L3203.37 15.0127 Q3208.31 13.0277 3212.61 12.015 Q3216.9 11.0023 3220.46 11.0023 Q3229.86 11.0023 3235.45 15.7013 Q3241.04 20.4004 3241.04 28.2591 Q3241.04 31.9859 3239.62 35.3482 Q3238.25 38.6699 3234.56 43.2069 Q3233.55 44.3817 3228.12 50.0125 Q3222.69 55.6027 3212.81 65.6895 Z" fill="#000000" fill-rule="nonzero" fill-opacity="1" /><path clip-path="url(#clip100)" d="M3281.02 19.2256 L3260.37 51.5113 L3281.02 51.5113 L3281.02 19.2256 M3278.88 12.096 L3289.17 12.096 L3289.17 51.5113 L3297.8 51.5113 L3297.8 58.3168 L3289.17 58.3168 L3289.17 72.576 L3281.02 72.576 L3281.02 58.3168 L3253.72 58.3168 L3253.72 50.4176 L3278.88 12.096 Z" fill="#000000" fill-rule="nonzero" fill-opacity="1" /><path clip-path="url(#clip100)" d="M3312.18 62.2867 L3320.72 62.2867 L3320.72 69.2543 L3314.08 82.2172 L3308.85 82.2172 L3312.18 69.2543 L3312.18 62.2867 Z" fill="#000000" fill-rule="nonzero" fill-opacity="1" /><path clip-path="url(#clip100)" d="M3354.95 12.096 L3406.12 12.096 L3406.12 18.9825 L3384.65 18.9825 L3384.65 72.576 L3376.42 72.576 L3376.42 18.9825 L3354.95 18.9825 L3354.95 12.096 Z" fill="#000000" fill-rule="nonzero" fill-opacity="1" /><path clip-path="url(#clip100)" d="M3441.04 34.9026 L3492.97 34.9026 L3492.97 41.7081 L3441.04 41.7081 L3441.04 34.9026 M3441.04 51.4303 L3492.97 51.4303 L3492.97 58.3168 L3441.04 58.3168 L3441.04 51.4303 Z" fill="#000000" fill-rule="nonzero" fill-opacity="1" /><path clip-path="url(#clip100)" d="M3538.42 65.6895 L3551.79 65.6895 L3551.79 19.5497 L3537.24 22.4663 L3537.24 15.0127 L3551.71 12.096 L3559.89 12.096 L3559.89 65.6895 L3573.26 65.6895 L3573.26 72.576 L3538.42 72.576 L3538.42 65.6895 Z" fill="#000000" fill-rule="nonzero" fill-opacity="1" /><path clip-path="url(#clip100)" d="M3607.28 17.4837 Q3600.97 17.4837 3597.77 23.7221 Q3594.61 29.92 3594.61 42.3968 Q3594.61 54.833 3597.77 61.0714 Q3600.97 67.2693 3607.28 67.2693 Q3613.64 67.2693 3616.8 61.0714 Q3620 54.833 3620 42.3968 Q3620 29.92 3616.8 23.7221 Q3613.64 17.4837 3607.28 17.4837 M3607.28 11.0023 Q3617.45 11.0023 3622.8 19.0636 Q3628.19 27.0843 3628.19 42.3968 Q3628.19 57.6687 3622.8 65.73 Q3617.45 73.7508 3607.28 73.7508 Q3597.12 73.7508 3591.73 65.73 Q3586.38 57.6687 3586.38 42.3968 Q3586.38 27.0843 3591.73 19.0636 Q3597.12 11.0023 3607.28 11.0023 Z" fill="#000000" fill-rule="nonzero" fill-opacity="1" /><path clip-path="url(#clip100)" d="M3660.07 17.4837 Q3653.75 17.4837 3650.55 23.7221 Q3647.39 29.92 3647.39 42.3968 Q3647.39 54.833 3650.55 61.0714 Q3653.75 67.2693 3660.07 67.2693 Q3666.43 67.2693 3669.59 61.0714 Q3672.79 54.833 3672.79 42.3968 Q3672.79 29.92 3669.59 23.7221 Q3666.43 17.4837 3660.07 17.4837 M3660.07 11.0023 Q3670.24 11.0023 3675.58 19.0636 Q3680.97 27.0843 3680.97 42.3968 Q3680.97 57.6687 3675.58 65.73 Q3670.24 73.7508 3660.07 73.7508 Q3649.9 73.7508 3644.51 65.73 Q3639.17 57.6687 3639.17 42.3968 Q3639.17 27.0843 3644.51 19.0636 Q3649.9 11.0023 3660.07 11.0023 Z" fill="#000000" fill-rule="nonzero" fill-opacity="1" /><path clip-path="url(#clip102)" d="M494.999 1200.37 L494.999 1470.37 L1491.57 1470.37 L1491.57 1200.37 L494.999 1200.37 L494.999 1200.37  Z" fill="#009af9" fill-rule="evenodd" fill-opacity="1"/>
<polyline clip-path="url(#clip102)" style="stroke:#000000; stroke-linecap:round; stroke-linejoin:round; stroke-width:4; stroke-opacity:1; fill:none" points="494.999,1200.37 494.999,1470.37 1491.57,1470.37 1491.57,1200.37 494.999,1200.37 "/>
<path clip-path="url(#clip102)" d="M1740.71 120.408 L1740.71 1470.37 L2737.29 1470.37 L2737.29 120.408 L1740.71 120.408 L1740.71 120.408  Z" fill="#009af9" fill-rule="evenodd" fill-opacity="1"/>
<polyline clip-path="url(#clip102)" style="stroke:#000000; stroke-linecap:round; stroke-linejoin:round; stroke-width:4; stroke-opacity:1; fill:none" points="1740.71,120.408 1740.71,1470.37 2737.29,1470.37 2737.29,120.408 1740.71,120.408 "/>
<path clip-path="url(#clip102)" d="M2986.43 120.408 L2986.43 1470.37 L3983 1470.37 L3983 120.408 L2986.43 120.408 L2986.43 120.408  Z" fill="#009af9" fill-rule="evenodd" fill-opacity="1"/>
<polyline clip-path="url(#clip102)" style="stroke:#000000; stroke-linecap:round; stroke-linejoin:round; stroke-width:4; stroke-opacity:1; fill:none" points="2986.43,120.408 2986.43,1470.37 3983,1470.37 3983,120.408 2986.43,120.408 "/>
<path clip-path="url(#clip102)" d="M4232.14 1200.37 L4232.14 1470.37 L5228.72 1470.37 L5228.72 1200.37 L4232.14 1200.37 L4232.14 1200.37  Z" fill="#009af9" fill-rule="evenodd" fill-opacity="1"/>
<polyline clip-path="url(#clip102)" style="stroke:#000000; stroke-linecap:round; stroke-linejoin:round; stroke-width:4; stroke-opacity:1; fill:none" points="4232.14,1200.37 4232.14,1470.37 5228.72,1470.37 5228.72,1200.37 4232.14,1200.37 "/>
<circle clip-path="url(#clip102)" style="fill:#009af9; stroke:none; fill-opacity:0" cx="993.285" cy="1200.37" r="2"/>
<circle clip-path="url(#clip102)" style="fill:#009af9; stroke:none; fill-opacity:0" cx="4730.43" cy="1200.37" r="2"/>
</svg>
