<?xml version="1.0" encoding="utf-8"?>
<svg xmlns="http://www.w3.org/2000/svg" xmlns:xlink="http://www.w3.org/1999/xlink" width="500" height="160" viewBox="0 0 2000 640">
<defs>
  <clipPath id="clip140">
    <rect x="0" y="0" width="2000" height="640"/>
  </clipPath>
</defs>
<path clip-path="url(#clip140)" d="M0 640 L2000 640 L2000 0 L0 0  Z" fill="#ffffff" fill-rule="evenodd" fill-opacity="1"/>
<defs>
  <clipPath id="clip141">
    <rect x="400" y="0" width="1401" height="640"/>
  </clipPath>
</defs>
<defs>
  <clipPath id="clip142">
    <rect x="146" y="47" width="1807" height="469"/>
  </clipPath>
</defs>
<path clip-path="url(#clip140)" d="M189.073 515.461 L1952.76 515.461 L1952.76 47.2441 L189.073 47.2441  Z" fill="#ffffff" fill-rule="evenodd" fill-opacity="1"/>
<defs>
  <clipPath id="clip143">
    <rect x="189" y="47" width="1765" height="469"/>
  </clipPath>
</defs>
<polyline clip-path="url(#clip143)" style="stroke:#000000; stroke-linecap:round; stroke-linejoin:round; stroke-width:2; stroke-opacity:0.1; fill:none" points="238.988,515.461 238.988,47.2441 "/>
<polyline clip-path="url(#clip143)" style="stroke:#000000; stroke-linecap:round; stroke-linejoin:round; stroke-width:2; stroke-opacity:0.1; fill:none" points="793.606,515.461 793.606,47.2441 "/>
<polyline clip-path="url(#clip143)" style="stroke:#000000; stroke-linecap:round; stroke-linejoin:round; stroke-width:2; stroke-opacity:0.1; fill:none" points="1348.22,515.461 1348.22,47.2441 "/>
<polyline clip-path="url(#clip143)" style="stroke:#000000; stroke-linecap:round; stroke-linejoin:round; stroke-width:2; stroke-opacity:0.1; fill:none" points="1902.84,515.461 1902.84,47.2441 "/>
<polyline clip-path="url(#clip140)" style="stroke:#000000; stroke-linecap:round; stroke-linejoin:round; stroke-width:4; stroke-opacity:1; fill:none" points="189.073,515.461 1952.76,515.461 "/>
<polyline clip-path="url(#clip140)" style="stroke:#000000; stroke-linecap:round; stroke-linejoin:round; stroke-width:4; stroke-opacity:1; fill:none" points="238.988,515.461 238.988,496.564 "/>
<polyline clip-path="url(#clip140)" style="stroke:#000000; stroke-linecap:round; stroke-linejoin:round; stroke-width:4; stroke-opacity:1; fill:none" points="793.606,515.461 793.606,496.564 "/>
<polyline clip-path="url(#clip140)" style="stroke:#000000; stroke-linecap:round; stroke-linejoin:round; stroke-width:4; stroke-opacity:1; fill:none" points="1348.22,515.461 1348.22,496.564 "/>
<polyline clip-path="url(#clip140)" style="stroke:#000000; stroke-linecap:round; stroke-linejoin:round; stroke-width:4; stroke-opacity:1; fill:none" points="1902.84,515.461 1902.84,496.564 "/>
<path clip-path="url(#clip140)" d="M213.676 570.726 L221.315 570.726 L221.315 544.361 L213.004 546.027 L213.004 541.768 L221.268 540.101 L225.944 540.101 L225.944 570.726 L233.583 570.726 L233.583 574.661 L213.676 574.661 L213.676 570.726 Z" fill="#000000" fill-rule="nonzero" fill-opacity="1" /><path clip-path="url(#clip140)" d="M253.027 543.18 Q249.416 543.18 247.588 546.745 Q245.782 550.287 245.782 557.416 Q245.782 564.523 247.588 568.087 Q249.416 571.629 253.027 571.629 Q256.662 571.629 258.467 568.087 Q260.296 564.523 260.296 557.416 Q260.296 550.287 258.467 546.745 Q256.662 543.18 253.027 543.18 M253.027 539.476 Q258.838 539.476 261.893 544.083 Q264.972 548.666 264.972 557.416 Q264.972 566.143 261.893 570.749 Q258.838 575.333 253.027 575.333 Q247.217 575.333 244.139 570.749 Q241.083 566.143 241.083 557.416 Q241.083 548.666 244.139 544.083 Q247.217 539.476 253.027 539.476 Z" fill="#000000" fill-rule="nonzero" fill-opacity="1" /><path clip-path="url(#clip140)" d="M772.379 570.726 L788.698 570.726 L788.698 574.661 L766.754 574.661 L766.754 570.726 Q769.416 567.972 773.999 563.342 Q778.606 558.689 779.786 557.347 Q782.032 554.824 782.911 553.087 Q783.814 551.328 783.814 549.638 Q783.814 546.884 781.869 545.148 Q779.948 543.412 776.846 543.412 Q774.647 543.412 772.194 544.175 Q769.763 544.939 766.985 546.49 L766.985 541.768 Q769.809 540.634 772.263 540.055 Q774.717 539.476 776.754 539.476 Q782.124 539.476 785.319 542.162 Q788.513 544.847 788.513 549.338 Q788.513 551.467 787.703 553.388 Q786.916 555.287 784.809 557.879 Q784.231 558.55 781.129 561.768 Q778.027 564.962 772.379 570.726 Z" fill="#000000" fill-rule="nonzero" fill-opacity="1" /><path clip-path="url(#clip140)" d="M808.513 543.18 Q804.902 543.18 803.073 546.745 Q801.268 550.287 801.268 557.416 Q801.268 564.523 803.073 568.087 Q804.902 571.629 808.513 571.629 Q812.147 571.629 813.953 568.087 Q815.781 564.523 815.781 557.416 Q815.781 550.287 813.953 546.745 Q812.147 543.18 808.513 543.18 M808.513 539.476 Q814.323 539.476 817.379 544.083 Q820.457 548.666 820.457 557.416 Q820.457 566.143 817.379 570.749 Q814.323 575.333 808.513 575.333 Q802.703 575.333 799.624 570.749 Q796.568 566.143 796.568 557.416 Q796.568 548.666 799.624 544.083 Q802.703 539.476 808.513 539.476 Z" fill="#000000" fill-rule="nonzero" fill-opacity="1" /><path clip-path="url(#clip140)" d="M1337.07 556.027 Q1340.42 556.745 1342.3 559.013 Q1344.2 561.282 1344.2 564.615 Q1344.2 569.731 1340.68 572.532 Q1337.16 575.333 1330.68 575.333 Q1328.5 575.333 1326.19 574.893 Q1323.89 574.476 1321.44 573.62 L1321.44 569.106 Q1323.39 570.24 1325.7 570.819 Q1328.01 571.398 1330.54 571.398 Q1334.94 571.398 1337.23 569.661 Q1339.54 567.925 1339.54 564.615 Q1339.54 561.56 1337.39 559.847 Q1335.26 558.111 1331.44 558.111 L1327.41 558.111 L1327.41 554.268 L1331.63 554.268 Q1335.07 554.268 1336.9 552.902 Q1338.73 551.513 1338.73 548.921 Q1338.73 546.259 1336.83 544.847 Q1334.96 543.412 1331.44 543.412 Q1329.52 543.412 1327.32 543.828 Q1325.12 544.245 1322.48 545.125 L1322.48 540.958 Q1325.14 540.217 1327.46 539.847 Q1329.8 539.476 1331.86 539.476 Q1337.18 539.476 1340.28 541.907 Q1343.38 544.314 1343.38 548.435 Q1343.38 551.305 1341.74 553.296 Q1340.1 555.263 1337.07 556.027 Z" fill="#000000" fill-rule="nonzero" fill-opacity="1" /><path clip-path="url(#clip140)" d="M1363.06 543.18 Q1359.45 543.18 1357.62 546.745 Q1355.82 550.287 1355.82 557.416 Q1355.82 564.523 1357.62 568.087 Q1359.45 571.629 1363.06 571.629 Q1366.7 571.629 1368.5 568.087 Q1370.33 564.523 1370.33 557.416 Q1370.33 550.287 1368.5 546.745 Q1366.7 543.18 1363.06 543.18 M1363.06 539.476 Q1368.87 539.476 1371.93 544.083 Q1375.01 548.666 1375.01 557.416 Q1375.01 566.143 1371.93 570.749 Q1368.87 575.333 1363.06 575.333 Q1357.25 575.333 1354.17 570.749 Q1351.12 566.143 1351.12 557.416 Q1351.12 548.666 1354.17 544.083 Q1357.25 539.476 1363.06 539.476 Z" fill="#000000" fill-rule="nonzero" fill-opacity="1" /><path clip-path="url(#clip140)" d="M1891.01 544.175 L1879.21 562.624 L1891.01 562.624 L1891.01 544.175 M1889.78 540.101 L1895.66 540.101 L1895.66 562.624 L1900.59 562.624 L1900.59 566.513 L1895.66 566.513 L1895.66 574.661 L1891.01 574.661 L1891.01 566.513 L1875.41 566.513 L1875.41 561.999 L1889.78 540.101 Z" fill="#000000" fill-rule="nonzero" fill-opacity="1" /><path clip-path="url(#clip140)" d="M1918.33 543.18 Q1914.72 543.18 1912.89 546.745 Q1911.08 550.287 1911.08 557.416 Q1911.08 564.523 1912.89 568.087 Q1914.72 571.629 1918.33 571.629 Q1921.96 571.629 1923.77 568.087 Q1925.59 564.523 1925.59 557.416 Q1925.59 550.287 1923.77 546.745 Q1921.96 543.18 1918.33 543.18 M1918.33 539.476 Q1924.14 539.476 1927.19 544.083 Q1930.27 548.666 1930.27 557.416 Q1930.27 566.143 1927.19 570.749 Q1924.14 575.333 1918.33 575.333 Q1912.52 575.333 1909.44 570.749 Q1906.38 566.143 1906.38 557.416 Q1906.38 548.666 1909.44 544.083 Q1912.52 539.476 1918.33 539.476 Z" fill="#000000" fill-rule="nonzero" fill-opacity="1" /><path clip-path="url(#clip140)" d="M1087.08 630.446 Q1087.08 630.704 1086.79 631.702 Q1086.5 632.701 1085.79 634.246 Q1085.11 635.792 1084.18 637.209 Q1083.25 638.594 1081.7 639.625 Q1080.19 640.623 1078.45 640.623 Q1076.13 640.623 1074.58 639.077 Q1073.04 637.531 1073.04 635.213 Q1073.04 633.924 1073.71 632.153 Q1078 620.72 1078 616.791 Q1078 612.185 1074.42 612.185 Q1072.65 612.185 1070.97 612.862 Q1069.33 613.506 1068.21 614.408 Q1067.08 615.309 1066.05 616.565 Q1065.05 617.789 1064.53 618.627 Q1064.05 619.432 1063.66 620.237 L1062.83 623.522 Q1062.63 624.424 1061.7 627.934 L1060.25 633.892 Q1059.22 638.337 1058.99 638.755 Q1058.67 639.657 1057.96 640.14 Q1057.26 640.623 1056.55 640.623 Q1055.74 640.623 1055.19 640.14 Q1054.65 639.657 1054.65 638.82 Q1054.65 638.691 1054.74 638.208 Q1054.84 637.725 1055 637.048 Q1055.16 636.372 1055.23 635.986 L1059.06 620.752 Q1059.77 617.982 1059.93 617.113 Q1060.12 616.211 1060.12 615.213 Q1060.12 612.185 1058.06 612.185 Q1056.39 612.185 1055.29 614.182 Q1054.2 616.179 1053.26 620.044 Q1052.97 621.106 1052.78 621.332 Q1052.62 621.557 1052.13 621.557 Q1051.33 621.525 1051.33 620.881 Q1051.33 620.72 1051.59 619.657 Q1051.84 618.594 1052.33 617.081 Q1052.84 615.535 1053.33 614.504 Q1053.74 613.731 1053.97 613.377 Q1054.23 612.991 1054.84 612.25 Q1055.48 611.477 1056.32 611.123 Q1057.19 610.736 1058.25 610.736 Q1060.64 610.736 1062.38 612.282 Q1064.12 613.796 1064.34 616.469 Q1068.62 610.736 1074.61 610.736 Q1078.16 610.736 1080.19 612.604 Q1082.21 614.472 1082.21 617.789 Q1082.21 618.562 1082.05 619.561 Q1081.92 620.527 1081.6 621.751 Q1081.31 622.974 1081.06 623.908 Q1080.8 624.842 1080.28 626.356 Q1079.77 627.837 1079.54 628.482 Q1079.32 629.126 1078.77 630.639 Q1078.25 632.121 1078.19 632.282 Q1077 635.277 1077 636.984 Q1077 638.111 1077.35 638.626 Q1077.74 639.142 1078.58 639.142 Q1080.83 639.142 1082.5 636.92 Q1084.21 634.665 1085.31 630.994 Q1085.56 630.188 1085.69 629.995 Q1085.85 629.802 1086.3 629.802 Q1087.08 629.802 1087.08 630.446 Z" fill="#000000" fill-rule="nonzero" fill-opacity="1" /><polyline clip-path="url(#clip143)" style="stroke:#000000; stroke-linecap:round; stroke-linejoin:round; stroke-width:2; stroke-opacity:0.1; fill:none" points="189.073,430.581 1952.76,430.581 "/>
<polyline clip-path="url(#clip143)" style="stroke:#000000; stroke-linecap:round; stroke-linejoin:round; stroke-width:2; stroke-opacity:0.1; fill:none" points="189.073,335.075 1952.76,335.075 "/>
<polyline clip-path="url(#clip143)" style="stroke:#000000; stroke-linecap:round; stroke-linejoin:round; stroke-width:2; stroke-opacity:0.1; fill:none" points="189.073,239.569 1952.76,239.569 "/>
<polyline clip-path="url(#clip143)" style="stroke:#000000; stroke-linecap:round; stroke-linejoin:round; stroke-width:2; stroke-opacity:0.1; fill:none" points="189.073,144.063 1952.76,144.063 "/>
<polyline clip-path="url(#clip143)" style="stroke:#000000; stroke-linecap:round; stroke-linejoin:round; stroke-width:2; stroke-opacity:0.1; fill:none" points="189.073,48.5573 1952.76,48.5573 "/>
<polyline clip-path="url(#clip140)" style="stroke:#000000; stroke-linecap:round; stroke-linejoin:round; stroke-width:4; stroke-opacity:1; fill:none" points="189.073,515.461 189.073,47.2441 "/>
<polyline clip-path="url(#clip140)" style="stroke:#000000; stroke-linecap:round; stroke-linejoin:round; stroke-width:4; stroke-opacity:1; fill:none" points="189.073,430.581 207.97,430.581 "/>
<polyline clip-path="url(#clip140)" style="stroke:#000000; stroke-linecap:round; stroke-linejoin:round; stroke-width:4; stroke-opacity:1; fill:none" points="189.073,335.075 207.97,335.075 "/>
<polyline clip-path="url(#clip140)" style="stroke:#000000; stroke-linecap:round; stroke-linejoin:round; stroke-width:4; stroke-opacity:1; fill:none" points="189.073,239.569 207.97,239.569 "/>
<polyline clip-path="url(#clip140)" style="stroke:#000000; stroke-linecap:round; stroke-linejoin:round; stroke-width:4; stroke-opacity:1; fill:none" points="189.073,144.063 207.97,144.063 "/>
<polyline clip-path="url(#clip140)" style="stroke:#000000; stroke-linecap:round; stroke-linejoin:round; stroke-width:4; stroke-opacity:1; fill:none" points="189.073,48.5573 207.97,48.5573 "/>
<path clip-path="url(#clip140)" d="M93.934 443.925 L101.573 443.925 L101.573 417.56 L93.2627 419.227 L93.2627 414.967 L101.527 413.301 L106.202 413.301 L106.202 443.925 L113.841 443.925 L113.841 447.861 L93.934 447.861 L93.934 443.925 Z" fill="#000000" fill-rule="nonzero" fill-opacity="1" /><path clip-path="url(#clip140)" d="M123.286 441.981 L128.17 441.981 L128.17 447.861 L123.286 447.861 L123.286 441.981 Z" fill="#000000" fill-rule="nonzero" fill-opacity="1" /><path clip-path="url(#clip140)" d="M139.165 443.925 L146.804 443.925 L146.804 417.56 L138.494 419.227 L138.494 414.967 L146.758 413.301 L151.434 413.301 L151.434 443.925 L159.073 443.925 L159.073 447.861 L139.165 447.861 L139.165 443.925 Z" fill="#000000" fill-rule="nonzero" fill-opacity="1" /><path clip-path="url(#clip140)" d="M94.3044 348.42 L101.943 348.42 L101.943 322.054 L93.6331 323.721 L93.6331 319.461 L101.897 317.795 L106.573 317.795 L106.573 348.42 L114.212 348.42 L114.212 352.355 L94.3044 352.355 L94.3044 348.42 Z" fill="#000000" fill-rule="nonzero" fill-opacity="1" /><path clip-path="url(#clip140)" d="M123.656 346.475 L128.54 346.475 L128.54 352.355 L123.656 352.355 L123.656 346.475 Z" fill="#000000" fill-rule="nonzero" fill-opacity="1" /><path clip-path="url(#clip140)" d="M142.753 348.42 L159.073 348.42 L159.073 352.355 L137.128 352.355 L137.128 348.42 Q139.79 345.665 144.374 341.035 Q148.98 336.383 150.161 335.04 Q152.406 332.517 153.286 330.781 Q154.188 329.022 154.188 327.332 Q154.188 324.577 152.244 322.841 Q150.323 321.105 147.221 321.105 Q145.022 321.105 142.568 321.869 Q140.137 322.633 137.36 324.184 L137.36 319.461 Q140.184 318.327 142.637 317.749 Q145.091 317.17 147.128 317.17 Q152.499 317.17 155.693 319.855 Q158.887 322.54 158.887 327.031 Q158.887 329.16 158.077 331.082 Q157.29 332.98 155.184 335.572 Q154.605 336.244 151.503 339.461 Q148.401 342.656 142.753 348.42 Z" fill="#000000" fill-rule="nonzero" fill-opacity="1" /><path clip-path="url(#clip140)" d="M93.3553 252.914 L100.994 252.914 L100.994 226.548 L92.684 228.215 L92.684 223.956 L100.948 222.289 L105.624 222.289 L105.624 252.914 L113.263 252.914 L113.263 256.849 L93.3553 256.849 L93.3553 252.914 Z" fill="#000000" fill-rule="nonzero" fill-opacity="1" /><path clip-path="url(#clip140)" d="M122.707 250.969 L127.591 250.969 L127.591 256.849 L122.707 256.849 L122.707 250.969 Z" fill="#000000" fill-rule="nonzero" fill-opacity="1" /><path clip-path="url(#clip140)" d="M151.943 238.215 Q155.299 238.932 157.174 241.201 Q159.073 243.469 159.073 246.803 Q159.073 251.918 155.554 254.719 Q152.036 257.52 145.554 257.52 Q143.378 257.52 141.063 257.08 Q138.772 256.664 136.318 255.807 L136.318 251.293 Q138.262 252.428 140.577 253.006 Q142.892 253.585 145.415 253.585 Q149.813 253.585 152.105 251.849 Q154.42 250.113 154.42 246.803 Q154.42 243.747 152.267 242.034 Q150.137 240.298 146.318 240.298 L142.29 240.298 L142.29 236.456 L146.503 236.456 Q149.952 236.456 151.781 235.09 Q153.61 233.701 153.61 231.108 Q153.61 228.446 151.711 227.034 Q149.836 225.599 146.318 225.599 Q144.397 225.599 142.198 226.016 Q139.999 226.432 137.36 227.312 L137.36 223.145 Q140.022 222.405 142.337 222.034 Q144.674 221.664 146.735 221.664 Q152.059 221.664 155.161 224.095 Q158.262 226.502 158.262 230.622 Q158.262 233.493 156.619 235.483 Q154.975 237.451 151.943 238.215 Z" fill="#000000" fill-rule="nonzero" fill-opacity="1" /><path clip-path="url(#clip140)" d="M92.2211 157.408 L99.8599 157.408 L99.8599 131.042 L91.5498 132.709 L91.5498 128.45 L99.8136 126.783 L104.49 126.783 L104.49 157.408 L112.128 157.408 L112.128 161.343 L92.2211 161.343 L92.2211 157.408 Z" fill="#000000" fill-rule="nonzero" fill-opacity="1" /><path clip-path="url(#clip140)" d="M121.573 155.464 L126.457 155.464 L126.457 161.343 L121.573 161.343 L121.573 155.464 Z" fill="#000000" fill-rule="nonzero" fill-opacity="1" /><path clip-path="url(#clip140)" d="M149.489 130.857 L137.684 149.306 L149.489 149.306 L149.489 130.857 M148.262 126.783 L154.142 126.783 L154.142 149.306 L159.073 149.306 L159.073 153.195 L154.142 153.195 L154.142 161.343 L149.489 161.343 L149.489 153.195 L133.887 153.195 L133.887 148.681 L148.262 126.783 Z" fill="#000000" fill-rule="nonzero" fill-opacity="1" /><path clip-path="url(#clip140)" d="M93.7025 61.9021 L101.341 61.9021 L101.341 35.5365 L93.0312 37.2032 L93.0312 32.944 L101.295 31.2773 L105.971 31.2773 L105.971 61.9021 L113.61 61.9021 L113.61 65.8373 L93.7025 65.8373 L93.7025 61.9021 Z" fill="#000000" fill-rule="nonzero" fill-opacity="1" /><path clip-path="url(#clip140)" d="M123.054 59.9577 L127.938 59.9577 L127.938 65.8373 L123.054 65.8373 L123.054 59.9577 Z" fill="#000000" fill-rule="nonzero" fill-opacity="1" /><path clip-path="url(#clip140)" d="M138.17 31.2773 L156.526 31.2773 L156.526 35.2125 L142.452 35.2125 L142.452 43.6846 Q143.471 43.3374 144.489 43.1754 Q145.508 42.9902 146.526 42.9902 Q152.313 42.9902 155.693 46.1615 Q159.073 49.3328 159.073 54.7494 Q159.073 60.3281 155.6 63.4299 Q152.128 66.5086 145.809 66.5086 Q143.633 66.5086 141.364 66.1382 Q139.119 65.7679 136.712 65.0271 L136.712 60.3281 Q138.795 61.4623 141.017 62.0179 Q143.239 62.5734 145.716 62.5734 Q149.721 62.5734 152.059 60.467 Q154.397 58.3605 154.397 54.7494 Q154.397 51.1383 152.059 49.0318 Q149.721 46.9254 145.716 46.9254 Q143.841 46.9254 141.966 47.342 Q140.114 47.7587 138.17 48.6383 L138.17 31.2773 Z" fill="#000000" fill-rule="nonzero" fill-opacity="1" /><path clip-path="url(#clip140)" d="M26.5441 380.924 Q22.5974 378.728 20.7195 375.673 Q18.8416 372.617 18.8416 368.479 Q18.8416 362.909 22.7565 359.886 Q26.6396 356.862 33.8329 356.862 L55.349 356.862 L55.349 362.75 L34.0238 362.75 Q28.8994 362.75 26.4168 364.565 Q23.9342 366.379 23.9342 370.103 Q23.9342 374.654 26.9579 377.296 Q29.9816 379.938 35.2015 379.938 L55.349 379.938 L55.349 385.826 L34.0238 385.826 Q28.8676 385.826 26.4168 387.64 Q23.9342 389.454 23.9342 393.242 Q23.9342 397.73 26.9897 400.372 Q30.0134 403.013 35.2015 403.013 L55.349 403.013 L55.349 408.902 L19.701 408.902 L19.701 403.013 L25.2392 403.013 Q21.9608 401.008 20.4012 398.207 Q18.8416 395.406 18.8416 391.555 Q18.8416 387.672 20.815 384.967 Q22.7884 382.229 26.5441 380.924 Z" fill="#000000" fill-rule="nonzero" fill-opacity="1" /><path clip-path="url(#clip140)" d="M36.0609 314.689 L38.9254 314.689 L38.9254 341.616 Q44.9729 341.234 48.1557 337.988 Q51.3067 334.709 51.3067 328.885 Q51.3067 325.511 50.4792 322.36 Q49.6516 319.177 47.9966 316.058 L53.5347 316.058 Q54.8715 319.209 55.5718 322.519 Q56.272 325.829 56.272 329.235 Q56.272 337.765 51.3067 342.762 Q46.3415 347.727 37.8751 347.727 Q29.1222 347.727 23.9979 343.017 Q18.8416 338.274 18.8416 330.253 Q18.8416 323.06 23.4886 318.891 Q28.1037 314.689 36.0609 314.689 M34.3421 320.546 Q29.536 320.609 26.6714 323.251 Q23.8069 325.861 23.8069 330.19 Q23.8069 335.091 26.576 338.051 Q29.345 340.98 34.374 341.425 L34.3421 320.546 Z" fill="#000000" fill-rule="nonzero" fill-opacity="1" /><path clip-path="url(#clip140)" d="M37.4295 288.876 Q37.4295 295.974 39.0527 298.711 Q40.676 301.449 44.5909 301.449 Q47.7101 301.449 49.5562 299.411 Q51.3704 297.343 51.3704 293.81 Q51.3704 288.94 47.9329 286.012 Q44.4636 283.052 38.7345 283.052 L37.4295 283.052 L37.4295 288.876 M35.0105 277.195 L55.349 277.195 L55.349 283.052 L49.9381 283.052 Q53.1846 285.057 54.7442 288.049 Q56.272 291.041 56.272 295.369 Q56.272 300.844 53.2164 304.09 Q50.1291 307.305 44.9729 307.305 Q38.9573 307.305 35.9017 303.295 Q32.8462 299.252 32.8462 291.263 L32.8462 283.052 L32.2733 283.052 Q28.231 283.052 26.0349 285.725 Q23.8069 288.367 23.8069 293.173 Q23.8069 296.229 24.5389 299.125 Q25.271 302.021 26.7351 304.695 L21.3243 304.695 Q20.0829 301.48 19.4782 298.457 Q18.8416 295.433 18.8416 292.568 Q18.8416 284.834 22.852 281.015 Q26.8624 277.195 35.0105 277.195 Z" fill="#000000" fill-rule="nonzero" fill-opacity="1" /><path clip-path="url(#clip140)" d="M33.8329 235.5 L55.349 235.5 L55.349 241.356 L34.0238 241.356 Q28.9631 241.356 26.4486 243.33 Q23.9342 245.303 23.9342 249.25 Q23.9342 253.992 26.9579 256.729 Q29.9816 259.467 35.2015 259.467 L55.349 259.467 L55.349 265.355 L19.701 265.355 L19.701 259.467 L25.2392 259.467 Q22.0245 257.366 20.4331 254.533 Q18.8416 251.669 18.8416 247.945 Q18.8416 241.802 22.6611 238.651 Q26.4486 235.5 33.8329 235.5 Z" fill="#000000" fill-rule="nonzero" fill-opacity="1" /><path clip-path="url(#clip140)" d="M11.0337 153.106 Q11.4524 153.106 11.7422 153.203 Q11.9999 153.3 12.1287 153.525 Q12.2575 153.751 12.2897 153.879 Q12.3219 154.008 12.3541 154.298 Q12.483 155.683 12.7084 156.649 Q12.9338 157.583 14.0932 159.902 Q15.2527 162.189 17.346 165.055 L26.2671 176.585 L27.7807 178.517 Q27.8774 178.517 28.0706 178.452 Q28.2316 178.388 28.4571 178.324 Q28.6503 178.227 28.7147 178.195 L50.3248 168.823 Q52.064 168.082 52.6759 167.18 Q53.2878 166.279 53.32 164.25 Q53.32 163.928 53.3522 163.799 Q53.3522 163.638 53.4166 163.412 Q53.4488 163.155 53.6098 163.058 Q53.7709 162.929 54.0285 162.929 Q55.349 162.929 55.349 164.121 Q55.349 164.862 55.2523 167.374 Q55.1557 169.886 55.1557 170.594 Q55.1557 171.915 55.2523 174.62 Q55.349 177.325 55.349 178.646 Q55.349 179.58 54.6082 179.58 Q53.9963 179.58 53.7065 179.354 Q53.3844 179.097 53.3522 178.871 Q53.32 178.646 53.32 178.13 Q53.32 177.744 53.2878 177.325 Q53.2234 176.874 53.0623 176.23 Q52.8691 175.554 52.4182 175.135 Q51.9351 174.684 51.2588 174.684 Q50.7113 174.684 48.94 175.49 L31.1946 183.122 L38.8596 192.945 L49.2298 195.586 Q49.6163 195.65 50.2926 195.811 Q50.969 195.972 51.452 196.101 Q51.9351 196.198 52.1284 196.198 Q52.547 196.198 52.8047 195.94 Q53.0623 195.65 53.1912 194.942 Q53.2878 194.233 53.32 193.686 Q53.32 193.106 53.32 191.915 Q53.32 190.433 53.5776 190.175 Q53.7387 190.047 54.0285 190.047 Q54.4794 190.047 54.8015 190.175 Q55.0913 190.304 55.1879 190.562 Q55.2845 190.787 55.3167 190.948 Q55.349 191.109 55.349 191.367 Q55.349 192.043 55.2845 193.493 Q55.2201 194.91 55.2201 195.65 L55.1557 199.869 L55.349 208.243 Q55.349 209.241 54.5438 209.241 Q53.9319 209.241 53.6743 208.984 Q53.3844 208.726 53.3522 208.436 Q53.32 208.146 53.32 207.406 Q53.32 205.795 53.2234 204.829 Q53.1268 203.863 52.9979 203.251 Q52.8369 202.607 52.386 202.285 Q51.9351 201.931 51.5487 201.77 Q51.13 201.608 50.196 201.383 L14.7696 192.559 Q13.7068 192.301 13.5457 192.301 Q12.9982 192.301 12.805 192.623 Q12.5796 192.913 12.483 193.75 Q12.3541 195.361 12.3541 196.584 Q12.3541 197.39 12.3219 197.712 Q12.2897 198.001 12.1287 198.259 Q11.9355 198.485 11.549 198.485 Q10.293 198.485 10.293 197.164 L10.4862 188.662 L10.293 180.224 Q10.293 179.29 11.0337 179.29 Q11.9677 179.29 12.1609 179.741 Q12.3541 180.159 12.3541 181.544 Q12.3541 183.96 12.6762 185.055 Q12.966 186.117 13.4813 186.44 Q13.9644 186.729 15.3815 187.084 L36.5407 192.365 L16.7663 166.633 Q14.7696 164.25 13.739 164.25 Q13.0627 164.25 12.7728 164.733 Q12.4507 165.184 12.3541 166.311 Q12.2253 167.116 11.6134 167.116 Q11.0015 167.116 10.7116 166.891 Q10.3896 166.633 10.3574 166.44 Q10.293 166.214 10.293 165.86 Q10.293 164.668 10.3896 162.189 Q10.4862 159.709 10.4862 158.517 Q10.4862 157.712 10.3896 156.134 Q10.293 154.556 10.293 153.847 Q10.293 153.493 10.5506 153.3 Q10.776 153.106 11.0337 153.106 Z" fill="#000000" fill-rule="nonzero" fill-opacity="1" /><polyline clip-path="url(#clip143)" style="stroke:#009af9; stroke-linecap:round; stroke-linejoin:round; stroke-width:4; stroke-opacity:1; fill:none" points="238.988,502.21 294.45,167.94 349.912,454.457 405.373,203.754 460.835,430.581 516.297,96.3102 571.759,430.581 627.22,60.4955 682.682,466.395 738.144,96.3102 793.606,454.457 849.067,239.569 904.529,466.395 959.991,108.248 1015.45,490.272 1070.91,227.631 1126.38,466.395 1181.84,132.125 1237.3,454.457 1292.76,144.063 1348.22,454.457 1403.68,203.754 1459.15,478.334 1514.61,358.951 1570.07,478.334 1625.53,323.137 1680.99,382.828 1736.46,239.569 1791.92,406.704 1847.38,227.631 1902.84,466.395 "/>
</svg>
