<?xml version="1.0" encoding="utf-8"?>
<svg xmlns="http://www.w3.org/2000/svg" xmlns:xlink="http://www.w3.org/1999/xlink" width="500" height="160" viewBox="0 0 2000 640">
<defs>
  <clipPath id="clip100">
    <rect x="0" y="0" width="2000" height="640"/>
  </clipPath>
</defs>
<path clip-path="url(#clip100)" d="M0 640 L2000 640 L2000 0 L0 0  Z" fill="#ffffff" fill-rule="evenodd" fill-opacity="1"/>
<defs>
  <clipPath id="clip101">
    <rect x="400" y="0" width="1401" height="640"/>
  </clipPath>
</defs>
<defs>
  <clipPath id="clip102">
    <rect x="189" y="47" width="1765" height="469"/>
  </clipPath>
</defs>
<path clip-path="url(#clip100)" d="M146.944 515.461 L1952.76 515.461 L1952.76 47.2441 L146.944 47.2441  Z" fill="#ffffff" fill-rule="evenodd" fill-opacity="1"/>
<defs>
  <clipPath id="clip103">
    <rect x="146" y="47" width="1807" height="469"/>
  </clipPath>
</defs>
<polyline clip-path="url(#clip103)" style="stroke:#000000; stroke-linecap:round; stroke-linejoin:round; stroke-width:2; stroke-opacity:0.1; fill:none" points="198.052,515.461 198.052,47.2441 "/>
<polyline clip-path="url(#clip103)" style="stroke:#000000; stroke-linecap:round; stroke-linejoin:round; stroke-width:2; stroke-opacity:0.1; fill:none" points="765.917,515.461 765.917,47.2441 "/>
<polyline clip-path="url(#clip103)" style="stroke:#000000; stroke-linecap:round; stroke-linejoin:round; stroke-width:2; stroke-opacity:0.1; fill:none" points="1333.78,515.461 1333.78,47.2441 "/>
<polyline clip-path="url(#clip103)" style="stroke:#000000; stroke-linecap:round; stroke-linejoin:round; stroke-width:2; stroke-opacity:0.1; fill:none" points="1901.65,515.461 1901.65,47.2441 "/>
<polyline clip-path="url(#clip100)" style="stroke:#000000; stroke-linecap:round; stroke-linejoin:round; stroke-width:4; stroke-opacity:1; fill:none" points="146.944,515.461 1952.76,515.461 "/>
<polyline clip-path="url(#clip100)" style="stroke:#000000; stroke-linecap:round; stroke-linejoin:round; stroke-width:4; stroke-opacity:1; fill:none" points="198.052,515.461 198.052,496.564 "/>
<polyline clip-path="url(#clip100)" style="stroke:#000000; stroke-linecap:round; stroke-linejoin:round; stroke-width:4; stroke-opacity:1; fill:none" points="765.917,515.461 765.917,496.564 "/>
<polyline clip-path="url(#clip100)" style="stroke:#000000; stroke-linecap:round; stroke-linejoin:round; stroke-width:4; stroke-opacity:1; fill:none" points="1333.78,515.461 1333.78,496.564 "/>
<polyline clip-path="url(#clip100)" style="stroke:#000000; stroke-linecap:round; stroke-linejoin:round; stroke-width:4; stroke-opacity:1; fill:none" points="1901.65,515.461 1901.65,496.564 "/>
<path clip-path="url(#clip100)" d="M172.739 570.726 L180.378 570.726 L180.378 544.361 L172.068 546.027 L172.068 541.768 L180.332 540.101 L185.008 540.101 L185.008 570.726 L192.647 570.726 L192.647 574.661 L172.739 574.661 L172.739 570.726 Z" fill="#000000" fill-rule="nonzero" fill-opacity="1" /><path clip-path="url(#clip100)" d="M212.091 543.18 Q208.48 543.18 206.651 546.745 Q204.846 550.287 204.846 557.416 Q204.846 564.523 206.651 568.087 Q208.48 571.629 212.091 571.629 Q215.725 571.629 217.531 568.087 Q219.359 564.523 219.359 557.416 Q219.359 550.287 217.531 546.745 Q215.725 543.18 212.091 543.18 M212.091 539.476 Q217.901 539.476 220.957 544.083 Q224.035 548.666 224.035 557.416 Q224.035 566.143 220.957 570.749 Q217.901 575.333 212.091 575.333 Q206.281 575.333 203.202 570.749 Q200.146 566.143 200.146 557.416 Q200.146 548.666 203.202 544.083 Q206.281 539.476 212.091 539.476 Z" fill="#000000" fill-rule="nonzero" fill-opacity="1" /><path clip-path="url(#clip100)" d="M744.69 570.726 L761.01 570.726 L761.01 574.661 L739.065 574.661 L739.065 570.726 Q741.727 567.972 746.311 563.342 Q750.917 558.689 752.098 557.347 Q754.343 554.824 755.223 553.087 Q756.125 551.328 756.125 549.638 Q756.125 546.884 754.181 545.148 Q752.26 543.412 749.158 543.412 Q746.959 543.412 744.505 544.175 Q742.075 544.939 739.297 546.49 L739.297 541.768 Q742.121 540.634 744.575 540.055 Q747.028 539.476 749.065 539.476 Q754.436 539.476 757.63 542.162 Q760.825 544.847 760.825 549.338 Q760.825 551.467 760.014 553.388 Q759.227 555.287 757.121 557.879 Q756.542 558.55 753.44 561.768 Q750.338 564.962 744.69 570.726 Z" fill="#000000" fill-rule="nonzero" fill-opacity="1" /><path clip-path="url(#clip100)" d="M780.824 543.18 Q777.213 543.18 775.385 546.745 Q773.579 550.287 773.579 557.416 Q773.579 564.523 775.385 568.087 Q777.213 571.629 780.824 571.629 Q784.459 571.629 786.264 568.087 Q788.093 564.523 788.093 557.416 Q788.093 550.287 786.264 546.745 Q784.459 543.18 780.824 543.18 M780.824 539.476 Q786.635 539.476 789.69 544.083 Q792.769 548.666 792.769 557.416 Q792.769 566.143 789.69 570.749 Q786.635 575.333 780.824 575.333 Q775.014 575.333 771.936 570.749 Q768.88 566.143 768.88 557.416 Q768.88 548.666 771.936 544.083 Q775.014 539.476 780.824 539.476 Z" fill="#000000" fill-rule="nonzero" fill-opacity="1" /><path clip-path="url(#clip100)" d="M1322.63 556.027 Q1325.98 556.745 1327.86 559.013 Q1329.75 561.282 1329.75 564.615 Q1329.75 569.731 1326.24 572.532 Q1322.72 575.333 1316.24 575.333 Q1314.06 575.333 1311.75 574.893 Q1309.45 574.476 1307 573.62 L1307 569.106 Q1308.94 570.24 1311.26 570.819 Q1313.57 571.398 1316.1 571.398 Q1320.5 571.398 1322.79 569.661 Q1325.1 567.925 1325.1 564.615 Q1325.1 561.56 1322.95 559.847 Q1320.82 558.111 1317 558.111 L1312.97 558.111 L1312.97 554.268 L1317.19 554.268 Q1320.63 554.268 1322.46 552.902 Q1324.29 551.513 1324.29 548.921 Q1324.29 546.259 1322.39 544.847 Q1320.52 543.412 1317 543.412 Q1315.08 543.412 1312.88 543.828 Q1310.68 544.245 1308.04 545.125 L1308.04 540.958 Q1310.7 540.217 1313.02 539.847 Q1315.36 539.476 1317.42 539.476 Q1322.74 539.476 1325.84 541.907 Q1328.94 544.314 1328.94 548.435 Q1328.94 551.305 1327.3 553.296 Q1325.66 555.263 1322.63 556.027 Z" fill="#000000" fill-rule="nonzero" fill-opacity="1" /><path clip-path="url(#clip100)" d="M1348.62 543.18 Q1345.01 543.18 1343.18 546.745 Q1341.38 550.287 1341.38 557.416 Q1341.38 564.523 1343.18 568.087 Q1345.01 571.629 1348.62 571.629 Q1352.25 571.629 1354.06 568.087 Q1355.89 564.523 1355.89 557.416 Q1355.89 550.287 1354.06 546.745 Q1352.25 543.18 1348.62 543.18 M1348.62 539.476 Q1354.43 539.476 1357.49 544.083 Q1360.56 548.666 1360.56 557.416 Q1360.56 566.143 1357.49 570.749 Q1354.43 575.333 1348.62 575.333 Q1342.81 575.333 1339.73 570.749 Q1336.68 566.143 1336.68 557.416 Q1336.68 548.666 1339.73 544.083 Q1342.81 539.476 1348.62 539.476 Z" fill="#000000" fill-rule="nonzero" fill-opacity="1" /><path clip-path="url(#clip100)" d="M1889.82 544.175 L1878.01 562.624 L1889.82 562.624 L1889.82 544.175 M1888.59 540.101 L1894.47 540.101 L1894.47 562.624 L1899.4 562.624 L1899.4 566.513 L1894.47 566.513 L1894.47 574.661 L1889.82 574.661 L1889.82 566.513 L1874.22 566.513 L1874.22 561.999 L1888.59 540.101 Z" fill="#000000" fill-rule="nonzero" fill-opacity="1" /><path clip-path="url(#clip100)" d="M1917.13 543.18 Q1913.52 543.18 1911.69 546.745 Q1909.89 550.287 1909.89 557.416 Q1909.89 564.523 1911.69 568.087 Q1913.52 571.629 1917.13 571.629 Q1920.77 571.629 1922.57 568.087 Q1924.4 564.523 1924.4 557.416 Q1924.4 550.287 1922.57 546.745 Q1920.77 543.18 1917.13 543.18 M1917.13 539.476 Q1922.94 539.476 1926 544.083 Q1929.08 548.666 1929.08 557.416 Q1929.08 566.143 1926 570.749 Q1922.94 575.333 1917.13 575.333 Q1911.32 575.333 1908.25 570.749 Q1905.19 566.143 1905.19 557.416 Q1905.19 548.666 1908.25 544.083 Q1911.32 539.476 1917.13 539.476 Z" fill="#000000" fill-rule="nonzero" fill-opacity="1" /><path clip-path="url(#clip100)" d="M1066.01 630.446 Q1066.01 630.704 1065.72 631.702 Q1065.43 632.701 1064.73 634.246 Q1064.05 635.792 1063.11 637.209 Q1062.18 638.594 1060.64 639.625 Q1059.12 640.623 1057.38 640.623 Q1055.06 640.623 1053.52 639.077 Q1051.97 637.531 1051.97 635.213 Q1051.97 633.924 1052.65 632.153 Q1056.93 620.72 1056.93 616.791 Q1056.93 612.185 1053.36 612.185 Q1051.59 612.185 1049.91 612.862 Q1048.27 613.506 1047.14 614.408 Q1046.01 615.309 1044.98 616.565 Q1043.98 617.789 1043.47 618.627 Q1042.99 619.432 1042.6 620.237 L1041.76 623.522 Q1041.57 624.424 1040.64 627.934 L1039.19 633.892 Q1038.16 638.337 1037.93 638.755 Q1037.61 639.657 1036.9 640.14 Q1036.19 640.623 1035.48 640.623 Q1034.68 640.623 1034.13 640.14 Q1033.58 639.657 1033.58 638.82 Q1033.58 638.691 1033.68 638.208 Q1033.78 637.725 1033.94 637.048 Q1034.1 636.372 1034.16 635.986 L1037.99 620.752 Q1038.7 617.982 1038.86 617.113 Q1039.06 616.211 1039.06 615.213 Q1039.06 612.185 1037 612.185 Q1035.32 612.185 1034.23 614.182 Q1033.13 616.179 1032.2 620.044 Q1031.91 621.106 1031.71 621.332 Q1031.55 621.557 1031.07 621.557 Q1030.26 621.525 1030.26 620.881 Q1030.26 620.72 1030.52 619.657 Q1030.78 618.594 1031.26 617.081 Q1031.78 615.535 1032.26 614.504 Q1032.68 613.731 1032.91 613.377 Q1033.16 612.991 1033.78 612.25 Q1034.42 611.477 1035.26 611.123 Q1036.13 610.736 1037.19 610.736 Q1039.57 610.736 1041.31 612.282 Q1043.05 613.796 1043.28 616.469 Q1047.56 610.736 1053.55 610.736 Q1057.09 610.736 1059.12 612.604 Q1061.15 614.472 1061.15 617.789 Q1061.15 618.562 1060.99 619.561 Q1060.86 620.527 1060.54 621.751 Q1060.25 622.974 1059.99 623.908 Q1059.73 624.842 1059.22 626.356 Q1058.7 627.837 1058.48 628.482 Q1058.25 629.126 1057.7 630.639 Q1057.19 632.121 1057.12 632.282 Q1055.93 635.277 1055.93 636.984 Q1055.93 638.111 1056.29 638.626 Q1056.67 639.142 1057.51 639.142 Q1059.77 639.142 1061.44 636.92 Q1063.15 634.665 1064.24 630.994 Q1064.5 630.188 1064.63 629.995 Q1064.79 629.802 1065.24 629.802 Q1066.01 629.802 1066.01 630.446 Z" fill="#000000" fill-rule="nonzero" fill-opacity="1" /><polyline clip-path="url(#clip103)" style="stroke:#000000; stroke-linecap:round; stroke-linejoin:round; stroke-width:2; stroke-opacity:0.1; fill:none" points="146.944,450.244 1952.76,450.244 "/>
<polyline clip-path="url(#clip103)" style="stroke:#000000; stroke-linecap:round; stroke-linejoin:round; stroke-width:2; stroke-opacity:0.1; fill:none" points="146.944,327.97 1952.76,327.97 "/>
<polyline clip-path="url(#clip103)" style="stroke:#000000; stroke-linecap:round; stroke-linejoin:round; stroke-width:2; stroke-opacity:0.1; fill:none" points="146.944,205.696 1952.76,205.696 "/>
<polyline clip-path="url(#clip103)" style="stroke:#000000; stroke-linecap:round; stroke-linejoin:round; stroke-width:2; stroke-opacity:0.1; fill:none" points="146.944,83.4219 1952.76,83.4219 "/>
<polyline clip-path="url(#clip100)" style="stroke:#000000; stroke-linecap:round; stroke-linejoin:round; stroke-width:4; stroke-opacity:1; fill:none" points="146.944,515.461 146.944,47.2441 "/>
<polyline clip-path="url(#clip100)" style="stroke:#000000; stroke-linecap:round; stroke-linejoin:round; stroke-width:4; stroke-opacity:1; fill:none" points="146.944,450.244 165.841,450.244 "/>
<polyline clip-path="url(#clip100)" style="stroke:#000000; stroke-linecap:round; stroke-linejoin:round; stroke-width:4; stroke-opacity:1; fill:none" points="146.944,327.97 165.841,327.97 "/>
<polyline clip-path="url(#clip100)" style="stroke:#000000; stroke-linecap:round; stroke-linejoin:round; stroke-width:4; stroke-opacity:1; fill:none" points="146.944,205.696 165.841,205.696 "/>
<polyline clip-path="url(#clip100)" style="stroke:#000000; stroke-linecap:round; stroke-linejoin:round; stroke-width:4; stroke-opacity:1; fill:none" points="146.944,83.4219 165.841,83.4219 "/>
<path clip-path="url(#clip100)" d="M109.814 448.889 Q113.171 449.607 115.046 451.876 Q116.944 454.144 116.944 457.477 Q116.944 462.593 113.425 465.394 Q109.907 468.195 103.425 468.195 Q101.249 468.195 98.9345 467.755 Q96.6429 467.338 94.1892 466.482 L94.1892 461.968 Q96.1336 463.102 98.4484 463.681 Q100.763 464.26 103.286 464.26 Q107.684 464.26 109.976 462.524 Q112.291 460.788 112.291 457.477 Q112.291 454.422 110.138 452.709 Q108.009 450.973 104.189 450.973 L100.161 450.973 L100.161 447.13 L104.374 447.13 Q107.823 447.13 109.652 445.764 Q111.481 444.376 111.481 441.783 Q111.481 439.121 109.583 437.709 Q107.708 436.274 104.189 436.274 Q102.268 436.274 100.069 436.69 Q97.8697 437.107 95.2309 437.987 L95.2309 433.82 Q97.8929 433.079 100.208 432.709 Q102.546 432.339 104.606 432.339 Q109.93 432.339 113.032 434.769 Q116.134 437.177 116.134 441.297 Q116.134 444.167 114.49 446.158 Q112.847 448.126 109.814 448.889 Z" fill="#000000" fill-rule="nonzero" fill-opacity="1" /><path clip-path="url(#clip100)" d="M107.36 314.764 L95.5549 333.213 L107.36 333.213 L107.36 314.764 M106.134 310.69 L112.013 310.69 L112.013 333.213 L116.944 333.213 L116.944 337.102 L112.013 337.102 L112.013 345.25 L107.36 345.25 L107.36 337.102 L91.7587 337.102 L91.7587 332.588 L106.134 310.69 Z" fill="#000000" fill-rule="nonzero" fill-opacity="1" /><path clip-path="url(#clip100)" d="M96.041 188.416 L114.397 188.416 L114.397 192.351 L100.323 192.351 L100.323 200.823 Q101.342 200.476 102.36 200.314 Q103.379 200.129 104.397 200.129 Q110.184 200.129 113.564 203.3 Q116.944 206.471 116.944 211.888 Q116.944 217.467 113.472 220.568 Q109.999 223.647 103.68 223.647 Q101.504 223.647 99.2355 223.277 Q96.9901 222.906 94.5827 222.166 L94.5827 217.467 Q96.666 218.601 98.8882 219.156 Q101.11 219.712 103.587 219.712 Q107.592 219.712 109.93 217.605 Q112.268 215.499 112.268 211.888 Q112.268 208.277 109.93 206.17 Q107.592 204.064 103.587 204.064 Q101.712 204.064 99.8373 204.481 Q97.9855 204.897 96.041 205.777 L96.041 188.416 Z" fill="#000000" fill-rule="nonzero" fill-opacity="1" /><path clip-path="url(#clip100)" d="M105.416 81.5585 Q102.268 81.5585 100.416 83.7112 Q98.5873 85.864 98.5873 89.614 Q98.5873 93.3408 100.416 95.5167 Q102.268 97.6695 105.416 97.6695 Q108.564 97.6695 110.393 95.5167 Q112.245 93.3408 112.245 89.614 Q112.245 85.864 110.393 83.7112 Q108.564 81.5585 105.416 81.5585 M114.698 66.9058 L114.698 71.165 Q112.939 70.3317 111.134 69.8919 Q109.351 69.4521 107.592 69.4521 Q102.962 69.4521 100.509 72.577 Q98.0781 75.702 97.7308 82.0214 Q99.0966 80.0076 101.157 78.9427 Q103.217 77.8548 105.694 77.8548 Q110.902 77.8548 113.911 81.0261 Q116.944 84.1742 116.944 89.614 Q116.944 94.938 113.796 98.1556 Q110.647 101.373 105.416 101.373 Q99.4207 101.373 96.2494 96.7899 Q93.0781 92.1834 93.0781 83.4566 Q93.0781 75.2622 96.967 70.4011 Q100.856 65.5169 107.407 65.5169 Q109.166 65.5169 110.948 65.8641 Q112.754 66.2113 114.698 66.9058 Z" fill="#000000" fill-rule="nonzero" fill-opacity="1" /><path clip-path="url(#clip100)" d="M17.2117 439.394 Q13.265 437.198 11.3871 434.142 Q9.50919 431.087 9.50919 426.949 Q9.50919 421.379 13.4241 418.355 Q17.3072 415.332 24.5004 415.332 L46.0165 415.332 L46.0165 421.22 L24.6914 421.22 Q19.567 421.22 17.0844 423.034 Q14.6018 424.848 14.6018 428.572 Q14.6018 433.124 17.6255 435.766 Q20.6492 438.407 25.8691 438.407 L46.0165 438.407 L46.0165 444.296 L24.6914 444.296 Q19.5352 444.296 17.0844 446.11 Q14.6018 447.924 14.6018 451.712 Q14.6018 456.2 17.6573 458.841 Q20.681 461.483 25.8691 461.483 L46.0165 461.483 L46.0165 467.371 L10.3686 467.371 L10.3686 461.483 L15.9067 461.483 Q12.6284 459.478 11.0688 456.677 Q9.50919 453.876 9.50919 450.025 Q9.50919 446.142 11.4826 443.436 Q13.4559 440.699 17.2117 439.394 Z" fill="#000000" fill-rule="nonzero" fill-opacity="1" /><path clip-path="url(#clip100)" d="M26.7284 373.159 L29.593 373.159 L29.593 400.086 Q35.6404 399.704 38.8233 396.457 Q41.9743 393.179 41.9743 387.354 Q41.9743 383.981 41.1468 380.83 Q40.3192 377.647 38.6641 374.528 L44.2023 374.528 Q45.5391 377.679 46.2393 380.989 Q46.9395 384.299 46.9395 387.705 Q46.9395 396.235 41.9743 401.232 Q37.009 406.197 28.5427 406.197 Q19.7898 406.197 14.6654 401.486 Q9.50919 396.744 9.50919 388.723 Q9.50919 381.53 14.1562 377.36 Q18.7713 373.159 26.7284 373.159 M25.0097 379.015 Q20.2036 379.079 17.339 381.721 Q14.4744 384.331 14.4744 388.659 Q14.4744 393.561 17.2435 396.521 Q20.0126 399.449 25.0415 399.895 L25.0097 379.015 Z" fill="#000000" fill-rule="nonzero" fill-opacity="1" /><path clip-path="url(#clip100)" d="M28.0971 347.346 Q28.0971 354.444 29.7203 357.181 Q31.3436 359.918 35.2585 359.918 Q38.3777 359.918 40.2237 357.881 Q42.038 355.812 42.038 352.279 Q42.038 347.41 38.6005 344.481 Q35.1312 341.521 29.402 341.521 L28.0971 341.521 L28.0971 347.346 M25.6781 335.665 L46.0165 335.665 L46.0165 341.521 L40.6057 341.521 Q43.8522 343.527 45.4118 346.518 Q46.9395 349.51 46.9395 353.839 Q46.9395 359.313 43.884 362.56 Q40.7966 365.775 35.6404 365.775 Q29.6248 365.775 26.5693 361.764 Q23.5137 357.722 23.5137 349.733 L23.5137 341.521 L22.9408 341.521 Q18.8986 341.521 16.7024 344.195 Q14.4744 346.837 14.4744 351.643 Q14.4744 354.698 15.2065 357.595 Q15.9386 360.491 17.4027 363.165 L11.9918 363.165 Q10.7505 359.95 10.1458 356.926 Q9.50919 353.903 9.50919 351.038 Q9.50919 343.304 13.5196 339.484 Q17.53 335.665 25.6781 335.665 Z" fill="#000000" fill-rule="nonzero" fill-opacity="1" /><path clip-path="url(#clip100)" d="M24.5004 293.969 L46.0165 293.969 L46.0165 299.826 L24.6914 299.826 Q19.6307 299.826 17.1162 301.799 Q14.6018 303.773 14.6018 307.719 Q14.6018 312.462 17.6255 315.199 Q20.6492 317.936 25.8691 317.936 L46.0165 317.936 L46.0165 323.825 L10.3686 323.825 L10.3686 317.936 L15.9067 317.936 Q12.692 315.836 11.1006 313.003 Q9.50919 310.138 9.50919 306.414 Q9.50919 300.272 13.3286 297.121 Q17.1162 293.969 24.5004 293.969 Z" fill="#000000" fill-rule="nonzero" fill-opacity="1" /><path clip-path="url(#clip100)" d="M0.187581 220.884 L16.999 225.038 Q18.0618 225.328 18.1907 225.521 Q18.3195 225.682 18.3195 226.198 Q18.3195 227.196 17.6432 227.196 Q17.5787 227.196 16.7414 227.099 Q15.8718 227.003 14.2937 227.003 Q8.46449 227.003 5.01846 229.837 Q1.57243 232.639 1.57243 237.631 Q1.57243 241.946 3.76243 246.294 Q5.95243 250.61 9.52728 253.701 Q12.2326 256.02 15.6464 257.727 Q19.0602 259.402 22.1842 260.207 Q25.3082 260.98 27.6592 261.334 Q30.0102 261.688 31.7171 261.688 Q34.197 261.688 36.2904 261.173 Q38.3837 260.626 39.8652 259.659 Q41.3145 258.693 42.4417 257.469 Q43.5367 256.213 44.1808 254.764 Q44.8249 253.283 45.147 251.801 Q45.4368 250.32 45.4368 248.774 Q45.4368 242.558 40.6059 236.632 Q36.6446 231.93 30.1712 229.966 Q29.5271 229.805 29.5271 229.128 Q29.5271 228.323 30.1712 228.323 Q30.3001 228.323 30.9442 228.484 Q31.5561 228.645 32.8121 229.128 Q34.0359 229.611 35.4208 230.352 Q36.8056 231.093 38.5448 232.478 Q40.2839 233.863 41.7976 235.57 Q44.3096 238.468 45.8877 242.14 Q47.4658 245.811 47.4658 249.837 Q47.4658 254.861 45.2436 258.919 Q43.0214 262.977 38.8668 265.36 Q34.7123 267.711 29.3983 267.711 Q23.7945 267.711 18.2873 265.134 Q12.7801 262.558 8.68993 258.468 Q4.59978 254.378 2.05552 248.967 Q-0.488742 243.557 -0.488742 238.146 Q-0.488742 236.085 0.0587579 234.249 Q0.606258 232.413 1.28258 231.318 Q1.9589 230.191 2.95729 229.193 Q3.92346 228.194 4.37434 227.872 Q4.82523 227.518 5.37273 227.196 L0.316405 222.591 Q-0.488742 221.785 -0.488742 221.592 Q-0.488742 221.206 -0.263301 221.045 Q-0.0378596 220.884 0.187581 220.884 Z" fill="#000000" fill-rule="nonzero" fill-opacity="1" /><path clip-path="url(#clip100)" d="M41.3349 193.112 Q41.3574 193.112 42.169 193.248 L62.6616 198.388 Q63.7437 198.658 64.8258 199.425 Q65.9305 200.169 66.8773 201.363 Q67.8467 202.536 68.4329 204.339 Q69.0416 206.12 69.0416 208.172 Q69.0416 211.441 68.3427 212.883 Q67.6664 214.304 66.2235 214.304 Q64.9611 214.304 64.2397 213.515 Q63.5408 212.726 63.5408 211.824 Q63.5408 210.967 64.0368 210.516 Q64.5327 210.065 65.164 210.065 Q65.8628 210.065 66.5617 210.539 Q67.2831 211.012 67.5536 211.959 Q68.0271 210.449 68.0271 208.262 Q68.0271 203.64 63.135 201.657 Q63.0674 201.611 63.0448 201.611 L56.9354 200.078 L56.8903 200.146 Q57.3412 200.529 57.8597 201.138 Q58.3557 201.724 58.9643 202.987 Q59.573 204.249 59.573 205.489 Q59.573 208.082 57.5892 209.863 Q55.5827 211.621 52.2687 211.621 Q49.8565 211.621 47.4443 210.652 Q45.0095 209.66 43.2286 208.127 Q41.425 206.571 40.2978 204.587 Q39.1706 202.581 39.1706 200.642 Q39.1706 199.289 39.9822 198.14 Q40.7713 196.99 42.0788 196.359 Q40.9967 196.246 40.5458 195.637 Q40.0949 195.006 40.0949 194.465 Q40.0949 193.856 40.4331 193.496 Q40.7487 193.112 41.3349 193.112 M44.1529 196.9 Q44.0176 196.9 43.6569 196.99 Q43.2736 197.08 42.665 197.351 Q42.0563 197.599 41.5152 197.982 Q40.9741 198.365 40.5909 199.064 Q40.1851 199.74 40.1851 200.597 Q40.1851 201.995 41.3574 203.392 Q42.5071 204.79 44.2881 205.76 Q46.0015 206.661 49.3155 207.518 Q52.6294 208.352 54.3203 208.352 Q55.9885 208.352 57.2735 207.631 Q58.5585 206.909 58.5585 205.354 Q58.5585 203.55 56.8903 201.611 Q55.1544 199.605 53.6665 199.267 L44.8517 197.035 Q44.3107 196.9 44.1529 196.9 Z" fill="#000000" fill-rule="nonzero" fill-opacity="1" /><path clip-path="url(#clip100)" d="M29.5271 186.282 Q18.3839 186.282 9.39846 182.127 Q5.63037 180.356 2.4742 177.876 Q-0.681977 175.396 -2.06683 173.754 Q-3.45168 172.111 -3.45168 171.661 Q-3.45168 171.016 -2.80756 170.984 Q-2.48551 170.984 -1.68036 171.854 Q9.14081 182.482 29.5271 182.45 Q49.9778 182.45 60.3803 172.111 Q61.5075 170.984 61.8618 170.984 Q62.5059 170.984 62.5059 171.661 Q62.5059 172.111 61.1855 173.69 Q59.865 175.268 56.8377 177.715 Q53.8103 180.163 50.1067 181.934 Q41.1212 186.282 29.5271 186.282 Z" fill="#000000" fill-rule="nonzero" fill-opacity="1" /><path clip-path="url(#clip100)" d="M0.187581 125.521 L14.6158 129.096 Q15.4854 129.29 15.7108 129.451 Q15.9362 129.612 15.9362 130.063 Q15.9362 130.417 15.7752 130.642 Q15.6142 130.835 15.4532 130.835 L15.2921 130.868 Q15.1955 130.868 14.7124 130.803 Q14.1971 130.739 13.3598 130.674 Q12.5224 130.61 11.5885 130.61 Q6.3067 130.61 3.85905 133.186 Q1.3792 135.731 1.3792 140.111 Q1.3792 143.138 2.98949 145.843 Q4.59978 148.549 7.14405 150.095 Q9.6561 151.64 12.297 151.64 Q14.7124 151.64 16.2583 150.417 Q17.8042 149.193 18.3195 147.615 L19.5111 143.202 Q20.7027 138.565 21.218 137.244 Q21.7011 135.924 22.7961 134.829 Q25.8234 131.576 30.5255 131.576 Q34.5834 131.576 38.5126 133.863 Q42.4095 136.149 44.9537 140.079 Q47.4658 144.008 47.4658 148.355 Q47.4658 155.988 42.7315 159.499 L46.4674 162.719 Q47.1759 163.331 47.3048 163.524 Q47.4658 163.685 47.4658 163.911 Q47.4658 164.201 47.2726 164.426 Q47.1115 164.652 46.8217 164.652 Q46.5962 164.652 39.0279 162.751 Q31.4595 160.851 31.2984 160.69 Q31.0408 160.433 31.0408 160.014 Q31.0408 159.241 31.7815 159.241 Q31.9748 159.305 32.2324 159.37 Q34.5512 159.756 35.8073 159.756 Q38.1583 159.756 39.9618 158.951 Q41.7331 158.146 42.7637 156.954 Q43.7621 155.731 44.4062 154.088 Q45.0181 152.446 45.2436 151.061 Q45.4368 149.676 45.4368 148.227 Q45.4368 145.103 43.6333 142.333 Q41.8298 139.531 39.0279 137.953 Q36.2259 136.343 33.2952 136.343 Q31.7493 136.343 30.5577 136.761 Q29.3339 137.18 28.6576 137.76 Q27.9812 138.307 27.4659 139.241 Q26.9507 140.175 26.7574 140.819 Q26.532 141.431 26.3065 142.397 L24.4386 149.45 Q23.6012 152.285 21.1858 154.314 Q18.7704 156.31 15.0667 156.31 Q11.1698 156.31 7.56272 154.024 Q3.92346 151.705 1.73346 147.937 Q-0.488742 144.136 -0.488742 140.046 Q-0.488742 136.826 0.767287 134.346 Q1.99111 131.866 4.27773 130.61 L0.50964 127.422 Q-0.231095 126.778 -0.359918 126.649 Q-0.488742 126.488 -0.488742 126.262 Q-0.488742 125.876 -0.263301 125.715 Q-0.0378596 125.521 0.187581 125.521 Z" fill="#000000" fill-rule="nonzero" fill-opacity="1" /><path clip-path="url(#clip100)" d="M61.8618 120.661 Q61.5397 120.661 60.7346 119.823 Q49.9134 109.195 29.5271 109.195 Q9.0764 109.195 -1.26168 119.405 Q-2.4533 120.661 -2.80756 120.661 Q-3.45168 120.661 -3.45168 120.016 Q-3.45168 119.566 -2.13124 117.988 Q-0.8108 116.377 2.21655 113.962 Q5.2439 111.514 8.94758 109.711 Q17.933 105.363 29.5271 105.363 Q40.6703 105.363 49.6558 109.517 Q53.4239 111.289 56.58 113.769 Q59.7362 116.248 61.1211 117.891 Q62.5059 119.533 62.5059 120.016 Q62.5059 120.661 61.8618 120.661 Z" fill="#000000" fill-rule="nonzero" fill-opacity="1" /><polyline clip-path="url(#clip103)" style="stroke:#009af9; stroke-linecap:round; stroke-linejoin:round; stroke-width:4; stroke-opacity:1; fill:none" points="198.052,473.17 254.838,502.21 311.625,453.3 368.411,485.397 425.198,416.618 481.984,444.13 538.771,375.351 595.557,427.317 652.344,337.14 709.131,413.561 765.917,334.083 822.704,355.481 879.49,311.157 936.277,355.481 993.063,274.475 1049.85,298.93 1106.64,243.906 1163.42,288.231 1220.21,227.094 1277,246.963 1333.78,199.582 1390.57,237.793 1447.36,150.673 1504.14,199.582 1560.93,173.599 1617.72,216.395 1674.5,158.315 1731.29,181.241 1788.07,60.4955 1844.86,169.014 1901.65,89.5356 "/>
</svg>
