<?xml version="1.0" encoding="utf-8"?>
<svg xmlns="http://www.w3.org/2000/svg" xmlns:xlink="http://www.w3.org/1999/xlink" width="500" height="500" viewBox="0 0 2000 2000">
<defs>
  <clipPath id="clip420">
    <rect x="0" y="0" width="2000" height="2000"/>
  </clipPath>
</defs>
<path clip-path="url(#clip420)" d="M0 2000 L2000 2000 L2000 0 L0 0  Z" fill="#ffffff" fill-rule="evenodd" fill-opacity="1"/>
<defs>
  <clipPath id="clip421">
    <rect x="400" y="200" width="1401" height="1401"/>
  </clipPath>
</defs>
<path clip-path="url(#clip420)" d="M182.274 1865.17 L1952.76 1865.17 L1952.76 47.2441 L182.274 47.2441  Z" fill="#ffffff" fill-rule="evenodd" fill-opacity="1"/>
<defs>
  <clipPath id="clip422">
    <rect x="182" y="47" width="1771" height="1819"/>
  </clipPath>
</defs>
<circle clip-path="url(#clip422)" cx="782.384" cy="569.531" r="21.6" fill="#ff0000" fill-rule="evenodd" fill-opacity="1" stroke="#000000" stroke-opacity="1" stroke-width="4"/>
<circle clip-path="url(#clip422)" cx="993.513" cy="1402.34" r="21.6" fill="#ff0000" fill-rule="evenodd" fill-opacity="1" stroke="#000000" stroke-opacity="1" stroke-width="4"/>
<circle clip-path="url(#clip422)" cx="1486.91" cy="1278.96" r="21.6" fill="#ff0000" fill-rule="evenodd" fill-opacity="1" stroke="#000000" stroke-opacity="1" stroke-width="4"/>
<circle clip-path="url(#clip422)" cx="1699.83" cy="461.83" r="21.6" fill="#ff0000" fill-rule="evenodd" fill-opacity="1" stroke="#000000" stroke-opacity="1" stroke-width="4"/>
<circle clip-path="url(#clip422)" cx="1170.11" cy="1305.85" r="21.6" fill="#ff0000" fill-rule="evenodd" fill-opacity="1" stroke="#000000" stroke-opacity="1" stroke-width="4"/>
<circle clip-path="url(#clip422)" cx="885.894" cy="1461.69" r="21.6" fill="#ff0000" fill-rule="evenodd" fill-opacity="1" stroke="#000000" stroke-opacity="1" stroke-width="4"/>
<circle clip-path="url(#clip422)" cx="435.2" cy="833.302" r="21.6" fill="#ff0000" fill-rule="evenodd" fill-opacity="1" stroke="#000000" stroke-opacity="1" stroke-width="4"/>
<circle clip-path="url(#clip422)" cx="676.622" cy="611.75" r="21.6" fill="#ff0000" fill-rule="evenodd" fill-opacity="1" stroke="#000000" stroke-opacity="1" stroke-width="4"/>
<circle clip-path="url(#clip422)" cx="1070.85" cy="971.634" r="21.6" fill="#ff0000" fill-rule="evenodd" fill-opacity="1" stroke="#000000" stroke-opacity="1" stroke-width="4"/>
<circle clip-path="url(#clip422)" cx="584.983" cy="1342.48" r="21.6" fill="#ff0000" fill-rule="evenodd" fill-opacity="1" stroke="#000000" stroke-opacity="1" stroke-width="4"/>
<circle clip-path="url(#clip422)" cx="1102.39" cy="961.17" r="21.6" fill="#ff0000" fill-rule="evenodd" fill-opacity="1" stroke="#000000" stroke-opacity="1" stroke-width="4"/>
<circle clip-path="url(#clip422)" cx="1286.7" cy="1560.13" r="21.6" fill="#ff0000" fill-rule="evenodd" fill-opacity="1" stroke="#000000" stroke-opacity="1" stroke-width="4"/>
<circle clip-path="url(#clip422)" cx="842.25" cy="364.973" r="21.6" fill="#ff0000" fill-rule="evenodd" fill-opacity="1" stroke="#000000" stroke-opacity="1" stroke-width="4"/>
<circle clip-path="url(#clip422)" cx="1317.35" cy="1605.46" r="21.6" fill="#0000ff" fill-rule="evenodd" fill-opacity="1" stroke="#000000" stroke-opacity="1" stroke-width="4"/>
<circle clip-path="url(#clip422)" cx="1039.49" cy="1341.01" r="21.6" fill="#0000ff" fill-rule="evenodd" fill-opacity="1" stroke="#000000" stroke-opacity="1" stroke-width="4"/>
<circle clip-path="url(#clip422)" cx="856.655" cy="848.193" r="21.6" fill="#0000ff" fill-rule="evenodd" fill-opacity="1" stroke="#000000" stroke-opacity="1" stroke-width="4"/>
<circle clip-path="url(#clip422)" cx="1129.75" cy="306.947" r="21.6" fill="#0000ff" fill-rule="evenodd" fill-opacity="1" stroke="#000000" stroke-opacity="1" stroke-width="4"/>
<circle clip-path="url(#clip422)" cx="563.925" cy="1150.82" r="21.6" fill="#0000ff" fill-rule="evenodd" fill-opacity="1" stroke="#000000" stroke-opacity="1" stroke-width="4"/>
<circle clip-path="url(#clip422)" cx="884.792" cy="807.103" r="21.6" fill="#0000ff" fill-rule="evenodd" fill-opacity="1" stroke="#000000" stroke-opacity="1" stroke-width="4"/>
<circle clip-path="url(#clip422)" cx="547.162" cy="629.35" r="21.6" fill="#0000ff" fill-rule="evenodd" fill-opacity="1" stroke="#000000" stroke-opacity="1" stroke-width="4"/>
<circle clip-path="url(#clip422)" cx="529.195" cy="1185.52" r="21.6" fill="#0000ff" fill-rule="evenodd" fill-opacity="1" stroke="#000000" stroke-opacity="1" stroke-width="4"/>
<circle clip-path="url(#clip422)" cx="1181.02" cy="1081.17" r="21.6" fill="#0000ff" fill-rule="evenodd" fill-opacity="1" stroke="#000000" stroke-opacity="1" stroke-width="4"/>
<circle clip-path="url(#clip422)" cx="1225.9" cy="991.528" r="21.6" fill="#0000ff" fill-rule="evenodd" fill-opacity="1" stroke="#000000" stroke-opacity="1" stroke-width="4"/>
<circle clip-path="url(#clip422)" cx="924.324" cy="1603.43" r="21.6" fill="#0000ff" fill-rule="evenodd" fill-opacity="1" stroke="#000000" stroke-opacity="1" stroke-width="4"/>
<circle clip-path="url(#clip422)" cx="1293.06" cy="1526.72" r="21.6" fill="#0000ff" fill-rule="evenodd" fill-opacity="1" stroke="#000000" stroke-opacity="1" stroke-width="4"/>
<circle clip-path="url(#clip422)" cx="1331.35" cy="461.873" r="21.6" fill="#0000ff" fill-rule="evenodd" fill-opacity="1" stroke="#000000" stroke-opacity="1" stroke-width="4"/>
<circle clip-path="url(#clip422)" cx="683.272" cy="976.853" r="21.6" fill="#0000ff" fill-rule="evenodd" fill-opacity="1" stroke="#000000" stroke-opacity="1" stroke-width="4"/>
<polyline clip-path="url(#clip422)" style="stroke:#000000; stroke-linecap:round; stroke-linejoin:round; stroke-width:4; stroke-opacity:1; fill:none" points="574.454,1653.6 574.454,258.808 "/>
<circle clip-path="url(#clip422)" cx="574.454" cy="956.206" r="21.6" fill="#ffffff" fill-rule="evenodd" fill-opacity="0.6" stroke="none"/>
<polyline clip-path="url(#clip422)" style="stroke:#000000; stroke-linecap:round; stroke-linejoin:round; stroke-width:4; stroke-opacity:1; fill:none" points="679.947,1653.6 679.947,258.808 "/>
<circle clip-path="url(#clip422)" cx="679.947" cy="956.206" r="21.6" fill="#ffffff" fill-rule="evenodd" fill-opacity="0.6" stroke="none"/>
<polyline clip-path="url(#clip422)" style="stroke:#000000; stroke-linecap:round; stroke-linejoin:round; stroke-width:4; stroke-opacity:1; fill:none" points="870.723,1653.6 870.723,258.808 "/>
<circle clip-path="url(#clip422)" cx="870.723" cy="956.206" r="21.6" fill="#ffffff" fill-rule="evenodd" fill-opacity="0.6" stroke="none"/>
<polyline clip-path="url(#clip422)" style="stroke:#000000; stroke-linecap:round; stroke-linejoin:round; stroke-width:4; stroke-opacity:1; fill:none" points="679.947,840.747 870.723,840.747 "/>
<circle clip-path="url(#clip422)" cx="775.335" cy="840.747" r="21.6" fill="#ffffff" fill-rule="evenodd" fill-opacity="0.6" stroke="none"/>
<polyline clip-path="url(#clip422)" style="stroke:#000000; stroke-linecap:round; stroke-linejoin:round; stroke-width:4; stroke-opacity:1; fill:none" points="1149.93,1653.6 1149.93,258.808 "/>
<circle clip-path="url(#clip422)" cx="1149.93" cy="956.206" r="21.6" fill="#ffffff" fill-rule="evenodd" fill-opacity="0.6" stroke="none"/>
<polyline clip-path="url(#clip422)" style="stroke:#000000; stroke-linecap:round; stroke-linejoin:round; stroke-width:4; stroke-opacity:1; fill:none" points="870.723,904.681 1149.93,904.681 "/>
<circle clip-path="url(#clip422)" cx="1010.33" cy="904.681" r="21.6" fill="#ffffff" fill-rule="evenodd" fill-opacity="0.6" stroke="none"/>
<polyline clip-path="url(#clip422)" style="stroke:#000000; stroke-linecap:round; stroke-linejoin:round; stroke-width:4; stroke-opacity:1; fill:none" points="1289.88,1653.6 1289.88,258.808 "/>
<circle clip-path="url(#clip422)" cx="1289.88" cy="956.206" r="21.6" fill="#ffffff" fill-rule="evenodd" fill-opacity="0.6" stroke="none"/>
<polyline clip-path="url(#clip422)" style="stroke:#000000; stroke-linecap:round; stroke-linejoin:round; stroke-width:4; stroke-opacity:1; fill:none" points="1149.93,1292.4 1289.88,1292.4 "/>
<circle clip-path="url(#clip422)" cx="1219.9" cy="1292.4" r="21.6" fill="#ffffff" fill-rule="evenodd" fill-opacity="0.6" stroke="none"/>
<polyline clip-path="url(#clip422)" style="stroke:#000000; stroke-linecap:round; stroke-linejoin:round; stroke-width:4; stroke-opacity:1; fill:none" points="1409.13,1653.6 1409.13,258.808 "/>
<circle clip-path="url(#clip422)" cx="1409.13" cy="956.206" r="21.6" fill="#ffffff" fill-rule="evenodd" fill-opacity="0.6" stroke="none"/>
<path clip-path="url(#clip420)" d="M567.24 966.215 L572.969 966.215 L572.969 946.44 L566.737 947.69 L566.737 944.496 L572.935 943.246 L576.442 943.246 L576.442 966.215 L582.171 966.215 L582.171 969.166 L567.24 969.166 L567.24 966.215 Z" fill="#000000" fill-rule="nonzero" fill-opacity="1" /><path clip-path="url(#clip420)" d="M675.937 966.215 L688.176 966.215 L688.176 969.166 L671.718 969.166 L671.718 966.215 Q673.714 964.149 677.152 960.676 Q680.607 957.187 681.492 956.18 Q683.176 954.288 683.836 952.986 Q684.513 951.666 684.513 950.399 Q684.513 948.333 683.055 947.031 Q681.614 945.729 679.287 945.729 Q677.638 945.729 675.798 946.302 Q673.975 946.874 671.891 948.038 L671.891 944.496 Q674.009 943.645 675.85 943.211 Q677.69 942.777 679.218 942.777 Q683.246 942.777 685.641 944.791 Q688.037 946.805 688.037 950.173 Q688.037 951.77 687.43 953.211 Q686.839 954.635 685.259 956.579 Q684.825 957.083 682.499 959.496 Q680.173 961.892 675.937 966.215 Z" fill="#000000" fill-rule="nonzero" fill-opacity="1" /><path clip-path="url(#clip420)" d="M873.909 955.19 Q876.426 955.729 877.833 957.43 Q879.256 959.131 879.256 961.631 Q879.256 965.468 876.617 967.569 Q873.978 969.669 869.117 969.669 Q867.485 969.669 865.749 969.34 Q864.031 969.027 862.19 968.385 L862.19 964.999 Q863.649 965.85 865.385 966.284 Q867.121 966.718 869.013 966.718 Q872.312 966.718 874.031 965.416 Q875.767 964.114 875.767 961.631 Q875.767 959.34 874.152 958.055 Q872.555 956.753 869.69 956.753 L866.67 956.753 L866.67 953.871 L869.829 953.871 Q872.416 953.871 873.788 952.847 Q875.159 951.805 875.159 949.861 Q875.159 947.864 873.735 946.805 Q872.329 945.729 869.69 945.729 Q868.249 945.729 866.6 946.041 Q864.951 946.354 862.972 947.013 L862.972 943.888 Q864.968 943.333 866.704 943.055 Q868.458 942.777 870.003 942.777 Q873.996 942.777 876.322 944.6 Q878.649 946.406 878.649 949.496 Q878.649 951.649 877.416 953.142 Q876.183 954.617 873.909 955.19 Z" fill="#000000" fill-rule="nonzero" fill-opacity="1" /><path clip-path="url(#clip420)" d="M777.592 830.843 L768.738 844.68 L777.592 844.68 L777.592 830.843 M776.672 827.787 L781.082 827.787 L781.082 844.68 L784.78 844.68 L784.78 847.596 L781.082 847.596 L781.082 853.707 L777.592 853.707 L777.592 847.596 L765.891 847.596 L765.891 844.211 L776.672 827.787 Z" fill="#000000" fill-rule="nonzero" fill-opacity="1" /><path clip-path="url(#clip420)" d="M1152.19 946.302 L1143.33 960.138 L1152.19 960.138 L1152.19 946.302 M1151.27 943.246 L1155.68 943.246 L1155.68 960.138 L1159.37 960.138 L1159.37 963.055 L1155.68 963.055 L1155.68 969.166 L1152.19 969.166 L1152.19 963.055 L1140.49 963.055 L1140.49 959.67 L1151.27 943.246 Z" fill="#000000" fill-rule="nonzero" fill-opacity="1" /><path clip-path="url(#clip420)" d="M1003.03 891.721 L1016.8 891.721 L1016.8 894.673 L1006.25 894.673 L1006.25 901.027 Q1007.01 900.766 1007.77 900.645 Q1008.54 900.506 1009.3 900.506 Q1013.64 900.506 1016.18 902.884 Q1018.71 905.263 1018.71 909.325 Q1018.71 913.509 1016.11 915.836 Q1013.5 918.145 1008.76 918.145 Q1007.13 918.145 1005.43 917.867 Q1003.75 917.589 1001.94 917.034 L1001.94 913.509 Q1003.5 914.36 1005.17 914.777 Q1006.84 915.193 1008.69 915.193 Q1011.7 915.193 1013.45 913.613 Q1015.2 912.034 1015.2 909.325 Q1015.2 906.617 1013.45 905.037 Q1011.7 903.457 1008.69 903.457 Q1007.29 903.457 1005.88 903.77 Q1004.49 904.082 1003.03 904.742 L1003.03 891.721 Z" fill="#000000" fill-rule="nonzero" fill-opacity="1" /><path clip-path="url(#clip420)" d="M1282.59 943.246 L1296.36 943.246 L1296.36 946.197 L1285.8 946.197 L1285.8 952.551 Q1286.56 952.291 1287.33 952.17 Q1288.09 952.031 1288.86 952.031 Q1293.2 952.031 1295.73 954.409 Q1298.27 956.788 1298.27 960.85 Q1298.27 965.034 1295.66 967.36 Q1293.06 969.669 1288.32 969.669 Q1286.69 969.669 1284.98 969.392 Q1283.3 969.114 1281.49 968.558 L1281.49 965.034 Q1283.06 965.885 1284.72 966.301 Q1286.39 966.718 1288.25 966.718 Q1291.25 966.718 1293 965.138 Q1294.76 963.558 1294.76 960.85 Q1294.76 958.142 1293 956.562 Q1291.25 954.982 1288.25 954.982 Q1286.84 954.982 1285.44 955.295 Q1284.05 955.607 1282.59 956.267 L1282.59 943.246 Z" fill="#000000" fill-rule="nonzero" fill-opacity="1" /><path clip-path="url(#clip420)" d="M1220.21 1291.01 Q1217.85 1291.01 1216.46 1292.62 Q1215.09 1294.24 1215.09 1297.05 Q1215.09 1299.84 1216.46 1301.47 Q1217.85 1303.09 1220.21 1303.09 Q1222.57 1303.09 1223.94 1301.47 Q1225.33 1299.84 1225.33 1297.05 Q1225.33 1294.24 1223.94 1292.62 Q1222.57 1291.01 1220.21 1291.01 M1227.17 1280.02 L1227.17 1283.21 Q1225.85 1282.59 1224.5 1282.26 Q1223.16 1281.93 1221.84 1281.93 Q1218.37 1281.93 1216.53 1284.27 Q1214.71 1286.61 1214.44 1291.35 Q1215.47 1289.84 1217.01 1289.04 Q1218.56 1288.23 1220.42 1288.23 Q1224.32 1288.23 1226.58 1290.61 Q1228.85 1292.97 1228.85 1297.05 Q1228.85 1301.04 1226.49 1303.45 Q1224.13 1305.87 1220.21 1305.87 Q1215.71 1305.87 1213.33 1302.43 Q1210.96 1298.97 1210.96 1292.43 Q1210.96 1286.28 1213.87 1282.64 Q1216.79 1278.98 1221.7 1278.98 Q1223.02 1278.98 1224.36 1279.24 Q1225.71 1279.5 1227.17 1280.02 Z" fill="#000000" fill-rule="nonzero" fill-opacity="1" /><path clip-path="url(#clip420)" d="M1409.43 954.808 Q1407.07 954.808 1405.68 956.423 Q1404.31 958.038 1404.31 960.85 Q1404.31 963.645 1405.68 965.277 Q1407.07 966.892 1409.43 966.892 Q1411.79 966.892 1413.16 965.277 Q1414.55 963.645 1414.55 960.85 Q1414.55 958.038 1413.16 956.423 Q1411.79 954.808 1409.43 954.808 M1416.39 943.819 L1416.39 947.013 Q1415.07 946.388 1413.72 946.058 Q1412.38 945.729 1411.06 945.729 Q1407.59 945.729 1405.75 948.072 Q1403.93 950.416 1403.67 955.156 Q1404.69 953.645 1406.24 952.847 Q1407.78 952.031 1409.64 952.031 Q1413.55 952.031 1415.8 954.409 Q1418.08 956.77 1418.08 960.85 Q1418.08 964.843 1415.72 967.256 Q1413.36 969.669 1409.43 969.669 Q1404.93 969.669 1402.56 966.232 Q1400.18 962.777 1400.18 956.232 Q1400.18 950.086 1403.09 946.44 Q1406.01 942.777 1410.92 942.777 Q1412.24 942.777 1413.58 943.038 Q1414.93 943.298 1416.39 943.819 Z" fill="#000000" fill-rule="nonzero" fill-opacity="1" /></svg>
